%TF.GenerationSoftware,KiCad,Pcbnew,7.0.7*%
%TF.CreationDate,2023-09-24T09:01:41+02:00*%
%TF.ProjectId,transmitter_v0.1,7472616e-736d-4697-9474-65725f76302e,rev?*%
%TF.SameCoordinates,Original*%
%TF.FileFunction,Copper,L2,Bot*%
%TF.FilePolarity,Positive*%
%FSLAX46Y46*%
G04 Gerber Fmt 4.6, Leading zero omitted, Abs format (unit mm)*
G04 Created by KiCad (PCBNEW 7.0.7) date 2023-09-24 09:01:41*
%MOMM*%
%LPD*%
G01*
G04 APERTURE LIST*
%TA.AperFunction,ConnectorPad*%
%ADD10C,5.600000*%
%TD*%
%TA.AperFunction,ComponentPad*%
%ADD11C,3.600000*%
%TD*%
%TA.AperFunction,ComponentPad*%
%ADD12C,2.000000*%
%TD*%
%TA.AperFunction,ComponentPad*%
%ADD13R,1.700000X1.700000*%
%TD*%
%TA.AperFunction,ComponentPad*%
%ADD14O,1.700000X1.700000*%
%TD*%
%TA.AperFunction,ViaPad*%
%ADD15C,0.800000*%
%TD*%
%TA.AperFunction,ViaPad*%
%ADD16C,0.700000*%
%TD*%
%TA.AperFunction,Conductor*%
%ADD17C,0.500000*%
%TD*%
%TA.AperFunction,Conductor*%
%ADD18C,0.300000*%
%TD*%
G04 APERTURE END LIST*
D10*
%TO.P,H2,1*%
%TO.N,N/C*%
X119000000Y-145000000D03*
D11*
X119000000Y-145000000D03*
%TD*%
D12*
%TO.P,SW2,1,A*%
%TO.N,/BTN2*%
X162250000Y-141350000D03*
X168750000Y-141350000D03*
%TO.P,SW2,2,B*%
%TO.N,+3.3V*%
X162250000Y-145850000D03*
X168750000Y-145850000D03*
%TD*%
D13*
%TO.P,J1,1,Pin_1*%
%TO.N,GND*%
X168300000Y-134420000D03*
D14*
%TO.P,J1,2,Pin_2*%
%TO.N,unconnected-(J1-Pin_2-Pad2)*%
X168300000Y-131880000D03*
%TO.P,J1,3,Pin_3*%
%TO.N,/BTN2*%
X168300000Y-129340000D03*
%TO.P,J1,4,Pin_4*%
%TO.N,/RST*%
X168300000Y-126800000D03*
%TO.P,J1,5,Pin_5*%
%TO.N,/SPI_MISO*%
X168300000Y-124260000D03*
%TO.P,J1,6,Pin_6*%
%TO.N,/SPI_MOSI*%
X168300000Y-121720000D03*
%TO.P,J1,7,Pin_7*%
%TO.N,/NSS*%
X168300000Y-119180000D03*
%TO.P,J1,8,Pin_8*%
%TO.N,/I2C2_SCL*%
X168300000Y-116640000D03*
%TO.P,J1,9,Pin_9*%
%TO.N,/I2C2_SDA*%
X168300000Y-114100000D03*
%TO.P,J1,10,Pin_10*%
%TO.N,/USART1_TX_DEBUG*%
X168300000Y-111560000D03*
%TD*%
D11*
%TO.P,H1,1*%
%TO.N,N/C*%
X118300000Y-112750000D03*
D10*
X118300000Y-112750000D03*
%TD*%
D13*
%TO.P,J3,1,Pin_1*%
%TO.N,unconnected-(J3-Pin_1-Pad1)*%
X103568000Y-134136800D03*
D14*
%TO.P,J3,2,Pin_2*%
%TO.N,/USART2_RX*%
X106108000Y-134136800D03*
%TO.P,J3,3,Pin_3*%
%TO.N,/USART2_TX*%
X108648000Y-134136800D03*
%TO.P,J3,4,Pin_4*%
%TO.N,GND*%
X111188000Y-134136800D03*
%TO.P,J3,5,Pin_5*%
%TO.N,+3.3V*%
X113728000Y-134136800D03*
%TD*%
D12*
%TO.P,SW1,1,A*%
%TO.N,/BTN1*%
X152200000Y-141350000D03*
X158700000Y-141350000D03*
%TO.P,SW1,2,B*%
%TO.N,+3.3V*%
X152200000Y-145850000D03*
X158700000Y-145850000D03*
%TD*%
D13*
%TO.P,J6,1,Pin_1*%
%TO.N,+BATT*%
X141122400Y-142184200D03*
D14*
%TO.P,J6,2,Pin_2*%
%TO.N,GND*%
X141122400Y-144724200D03*
%TD*%
D13*
%TO.P,J4,1,Pin_1*%
%TO.N,/I2C2_SDA*%
X104760000Y-142150000D03*
D14*
%TO.P,J4,2,Pin_2*%
%TO.N,/I2C2_SCL*%
X107300000Y-142150000D03*
%TO.P,J4,3,Pin_3*%
%TO.N,+3.3V*%
X109840000Y-142150000D03*
%TO.P,J4,4,Pin_4*%
%TO.N,GND*%
X112380000Y-142150000D03*
%TD*%
D13*
%TO.P,J2,1,Pin_1*%
%TO.N,/USART2_RX*%
X153060000Y-134420000D03*
D14*
%TO.P,J2,2,Pin_2*%
%TO.N,/USART2_TX*%
X153060000Y-131880000D03*
%TO.P,J2,3,Pin_3*%
%TO.N,/SPI1_SCL*%
X153060000Y-129340000D03*
%TO.P,J2,4,Pin_4*%
%TO.N,/DIO0*%
X153060000Y-126800000D03*
%TO.P,J2,5,Pin_5*%
%TO.N,unconnected-(J2-Pin_5-Pad5)*%
X153060000Y-124260000D03*
%TO.P,J2,6,Pin_6*%
%TO.N,GND*%
X153060000Y-121720000D03*
%TO.P,J2,7,Pin_7*%
%TO.N,+3.3V*%
X153060000Y-119180000D03*
%TO.P,J2,8,Pin_8*%
%TO.N,unconnected-(J2-Pin_8-Pad8)*%
X153060000Y-116640000D03*
%TO.P,J2,9,Pin_9*%
%TO.N,unconnected-(J2-Pin_9-Pad9)*%
X153060000Y-114100000D03*
%TO.P,J2,10,Pin_10*%
%TO.N,/BTN1*%
X153060000Y-111560000D03*
%TD*%
D13*
%TO.P,J5,1,Pin_1*%
%TO.N,GND*%
X146405600Y-144678400D03*
D14*
%TO.P,J5,2,Pin_2*%
%TO.N,/USART1_TX_DEBUG*%
X146405600Y-142138400D03*
%TD*%
D15*
%TO.N,GND*%
X127965200Y-145440400D03*
D16*
X147726400Y-125323600D03*
X126492000Y-111353600D03*
X147523200Y-111353600D03*
X124102700Y-111455200D03*
%TO.N,+3.3V*%
X156464000Y-131876800D03*
X156514800Y-123291600D03*
%TO.N,/BTN1*%
X158700000Y-120850000D03*
X158700000Y-131650000D03*
%TO.N,/USART1_TX_DEBUG*%
X165862000Y-139039600D03*
X157530800Y-139039600D03*
%TD*%
D17*
%TO.N,+3.3V*%
X156464000Y-131876800D02*
X156464000Y-123342400D01*
X156464000Y-123342400D02*
X156514800Y-123291600D01*
D18*
%TO.N,/BTN1*%
X158700000Y-120850000D02*
X158700000Y-131650000D01*
%TO.N,/USART1_TX_DEBUG*%
X165862000Y-139039600D02*
X157530800Y-139039600D01*
%TD*%
%TA.AperFunction,Conductor*%
%TO.N,GND*%
G36*
X170181866Y-104440613D02*
G01*
X170253173Y-104444926D01*
X170446200Y-104456601D01*
X170453634Y-104457505D01*
X170712260Y-104504901D01*
X170719530Y-104506692D01*
X170970561Y-104584916D01*
X170977554Y-104587569D01*
X171115118Y-104649481D01*
X171217330Y-104695483D01*
X171223956Y-104698960D01*
X171448969Y-104834986D01*
X171455136Y-104839243D01*
X171662111Y-105001397D01*
X171667711Y-105006358D01*
X171853640Y-105192287D01*
X171858602Y-105197888D01*
X172020756Y-105404863D01*
X172025013Y-105411030D01*
X172161036Y-105636038D01*
X172164519Y-105642674D01*
X172272430Y-105882445D01*
X172275086Y-105889447D01*
X172314196Y-106014957D01*
X172353305Y-106140463D01*
X172355098Y-106147739D01*
X172402494Y-106406365D01*
X172403398Y-106413804D01*
X172419387Y-106678133D01*
X172419500Y-106681877D01*
X172419500Y-147318122D01*
X172419387Y-147321866D01*
X172403398Y-147586195D01*
X172402494Y-147593634D01*
X172355098Y-147852260D01*
X172353305Y-147859536D01*
X172275088Y-148110547D01*
X172272430Y-148117554D01*
X172164519Y-148357325D01*
X172161036Y-148363961D01*
X172025013Y-148588969D01*
X172020756Y-148595136D01*
X171858602Y-148802111D01*
X171853633Y-148807720D01*
X171667720Y-148993633D01*
X171662111Y-148998602D01*
X171455136Y-149160756D01*
X171448969Y-149165013D01*
X171223961Y-149301036D01*
X171217325Y-149304519D01*
X170977554Y-149412430D01*
X170970547Y-149415088D01*
X170719536Y-149493305D01*
X170712260Y-149495098D01*
X170453634Y-149542494D01*
X170446195Y-149543398D01*
X170181866Y-149559387D01*
X170178122Y-149559500D01*
X96521878Y-149559500D01*
X96518134Y-149559387D01*
X96253804Y-149543398D01*
X96246365Y-149542494D01*
X95987739Y-149495098D01*
X95980463Y-149493305D01*
X95813680Y-149441334D01*
X95729447Y-149415086D01*
X95722445Y-149412430D01*
X95482674Y-149304519D01*
X95476038Y-149301036D01*
X95251030Y-149165013D01*
X95244863Y-149160756D01*
X95037888Y-148998602D01*
X95032287Y-148993640D01*
X94846358Y-148807711D01*
X94841397Y-148802111D01*
X94679243Y-148595136D01*
X94674986Y-148588969D01*
X94538963Y-148363961D01*
X94535480Y-148357325D01*
X94427569Y-148117554D01*
X94424916Y-148110561D01*
X94346692Y-147859530D01*
X94344901Y-147852260D01*
X94297505Y-147593634D01*
X94296601Y-147586195D01*
X94280613Y-147321866D01*
X94280500Y-147318122D01*
X94280500Y-145000000D01*
X115894615Y-145000000D01*
X115914140Y-145347688D01*
X115914142Y-145347700D01*
X115960969Y-145623308D01*
X115972473Y-145691013D01*
X116068879Y-146025644D01*
X116202145Y-146347376D01*
X116370595Y-146652164D01*
X116572112Y-146936176D01*
X116804161Y-147195839D01*
X117063824Y-147427888D01*
X117347836Y-147629405D01*
X117652624Y-147797855D01*
X117974356Y-147931121D01*
X118308987Y-148027527D01*
X118652307Y-148085859D01*
X119000000Y-148105385D01*
X119347693Y-148085859D01*
X119691013Y-148027527D01*
X120025644Y-147931121D01*
X120347376Y-147797855D01*
X120652164Y-147629405D01*
X120936176Y-147427888D01*
X121195839Y-147195839D01*
X121427888Y-146936176D01*
X121629405Y-146652164D01*
X121797855Y-146347376D01*
X121931121Y-146025644D01*
X122027527Y-145691013D01*
X122085859Y-145347693D01*
X122105385Y-145000000D01*
X122103936Y-144974200D01*
X139791764Y-144974200D01*
X139848967Y-145187686D01*
X139848970Y-145187692D01*
X139948799Y-145401778D01*
X140084294Y-145595282D01*
X140251317Y-145762305D01*
X140444821Y-145897800D01*
X140658907Y-145997629D01*
X140658916Y-145997633D01*
X140872400Y-146054834D01*
X140872400Y-145336501D01*
X140892085Y-145269462D01*
X140944889Y-145223707D01*
X141014047Y-145213763D01*
X141086637Y-145224200D01*
X141086638Y-145224200D01*
X141158162Y-145224200D01*
X141158163Y-145224200D01*
X141230753Y-145213763D01*
X141299912Y-145223707D01*
X141352715Y-145269462D01*
X141372400Y-145336501D01*
X141372400Y-146054833D01*
X141585883Y-145997633D01*
X141585892Y-145997629D01*
X141799978Y-145897800D01*
X141993482Y-145762305D01*
X142160505Y-145595282D01*
X142173836Y-145576244D01*
X145055600Y-145576244D01*
X145062001Y-145635772D01*
X145062003Y-145635779D01*
X145112245Y-145770486D01*
X145112249Y-145770493D01*
X145198409Y-145885587D01*
X145198412Y-145885590D01*
X145313506Y-145971750D01*
X145313513Y-145971754D01*
X145448220Y-146021996D01*
X145448227Y-146021998D01*
X145507755Y-146028399D01*
X145507772Y-146028400D01*
X146155600Y-146028400D01*
X146155600Y-145290701D01*
X146175285Y-145223662D01*
X146228089Y-145177907D01*
X146297247Y-145167963D01*
X146369837Y-145178400D01*
X146369838Y-145178400D01*
X146441362Y-145178400D01*
X146441363Y-145178400D01*
X146513953Y-145167963D01*
X146583112Y-145177907D01*
X146635915Y-145223662D01*
X146655600Y-145290701D01*
X146655600Y-146028400D01*
X147303428Y-146028400D01*
X147303444Y-146028399D01*
X147362972Y-146021998D01*
X147362979Y-146021996D01*
X147497686Y-145971754D01*
X147497693Y-145971750D01*
X147612787Y-145885590D01*
X147612790Y-145885587D01*
X147639430Y-145850001D01*
X150894532Y-145850001D01*
X150914364Y-146076686D01*
X150914366Y-146076697D01*
X150973258Y-146296488D01*
X150973261Y-146296497D01*
X151069431Y-146502732D01*
X151069432Y-146502734D01*
X151199954Y-146689141D01*
X151360858Y-146850045D01*
X151360861Y-146850047D01*
X151547266Y-146980568D01*
X151753504Y-147076739D01*
X151973308Y-147135635D01*
X152135230Y-147149801D01*
X152199998Y-147155468D01*
X152200000Y-147155468D01*
X152200002Y-147155468D01*
X152256672Y-147150509D01*
X152426692Y-147135635D01*
X152646496Y-147076739D01*
X152852734Y-146980568D01*
X153039139Y-146850047D01*
X153200047Y-146689139D01*
X153330568Y-146502734D01*
X153426739Y-146296496D01*
X153485635Y-146076692D01*
X153505468Y-145850001D01*
X157394532Y-145850001D01*
X157414364Y-146076686D01*
X157414366Y-146076697D01*
X157473258Y-146296488D01*
X157473261Y-146296497D01*
X157569431Y-146502732D01*
X157569432Y-146502734D01*
X157699954Y-146689141D01*
X157860858Y-146850045D01*
X157860861Y-146850047D01*
X158047266Y-146980568D01*
X158253504Y-147076739D01*
X158473308Y-147135635D01*
X158635230Y-147149801D01*
X158699998Y-147155468D01*
X158700000Y-147155468D01*
X158700002Y-147155468D01*
X158756672Y-147150509D01*
X158926692Y-147135635D01*
X159146496Y-147076739D01*
X159352734Y-146980568D01*
X159539139Y-146850047D01*
X159700047Y-146689139D01*
X159830568Y-146502734D01*
X159926739Y-146296496D01*
X159985635Y-146076692D01*
X160005468Y-145850001D01*
X160944532Y-145850001D01*
X160964364Y-146076686D01*
X160964366Y-146076697D01*
X161023258Y-146296488D01*
X161023261Y-146296497D01*
X161119431Y-146502732D01*
X161119432Y-146502734D01*
X161249954Y-146689141D01*
X161410858Y-146850045D01*
X161410861Y-146850047D01*
X161597266Y-146980568D01*
X161803504Y-147076739D01*
X162023308Y-147135635D01*
X162185230Y-147149801D01*
X162249998Y-147155468D01*
X162250000Y-147155468D01*
X162250002Y-147155468D01*
X162306673Y-147150509D01*
X162476692Y-147135635D01*
X162696496Y-147076739D01*
X162902734Y-146980568D01*
X163089139Y-146850047D01*
X163250047Y-146689139D01*
X163380568Y-146502734D01*
X163476739Y-146296496D01*
X163535635Y-146076692D01*
X163555468Y-145850001D01*
X167444532Y-145850001D01*
X167464364Y-146076686D01*
X167464366Y-146076697D01*
X167523258Y-146296488D01*
X167523261Y-146296497D01*
X167619431Y-146502732D01*
X167619432Y-146502734D01*
X167749954Y-146689141D01*
X167910858Y-146850045D01*
X167910861Y-146850047D01*
X168097266Y-146980568D01*
X168303504Y-147076739D01*
X168523308Y-147135635D01*
X168685230Y-147149801D01*
X168749998Y-147155468D01*
X168750000Y-147155468D01*
X168750002Y-147155468D01*
X168806672Y-147150509D01*
X168976692Y-147135635D01*
X169196496Y-147076739D01*
X169402734Y-146980568D01*
X169589139Y-146850047D01*
X169750047Y-146689139D01*
X169880568Y-146502734D01*
X169976739Y-146296496D01*
X170035635Y-146076692D01*
X170055468Y-145850000D01*
X170035635Y-145623308D01*
X169976739Y-145403504D01*
X169880568Y-145197266D01*
X169750047Y-145010861D01*
X169750045Y-145010858D01*
X169589141Y-144849954D01*
X169402734Y-144719432D01*
X169402732Y-144719431D01*
X169196497Y-144623261D01*
X169196488Y-144623258D01*
X168976697Y-144564366D01*
X168976693Y-144564365D01*
X168976692Y-144564365D01*
X168976691Y-144564364D01*
X168976686Y-144564364D01*
X168750002Y-144544532D01*
X168749998Y-144544532D01*
X168523313Y-144564364D01*
X168523302Y-144564366D01*
X168303511Y-144623258D01*
X168303502Y-144623261D01*
X168097267Y-144719431D01*
X168097265Y-144719432D01*
X167910858Y-144849954D01*
X167749954Y-145010858D01*
X167619432Y-145197265D01*
X167619431Y-145197267D01*
X167523261Y-145403502D01*
X167523258Y-145403511D01*
X167464366Y-145623302D01*
X167464364Y-145623313D01*
X167444532Y-145849998D01*
X167444532Y-145850001D01*
X163555468Y-145850001D01*
X163555468Y-145850000D01*
X163535635Y-145623308D01*
X163476739Y-145403504D01*
X163380568Y-145197266D01*
X163250047Y-145010861D01*
X163250045Y-145010858D01*
X163089141Y-144849954D01*
X162902734Y-144719432D01*
X162902732Y-144719431D01*
X162696497Y-144623261D01*
X162696488Y-144623258D01*
X162476697Y-144564366D01*
X162476693Y-144564365D01*
X162476692Y-144564365D01*
X162476691Y-144564364D01*
X162476686Y-144564364D01*
X162250002Y-144544532D01*
X162249998Y-144544532D01*
X162023313Y-144564364D01*
X162023302Y-144564366D01*
X161803511Y-144623258D01*
X161803502Y-144623261D01*
X161597267Y-144719431D01*
X161597265Y-144719432D01*
X161410858Y-144849954D01*
X161249954Y-145010858D01*
X161119432Y-145197265D01*
X161119431Y-145197267D01*
X161023261Y-145403502D01*
X161023258Y-145403511D01*
X160964366Y-145623302D01*
X160964364Y-145623313D01*
X160944532Y-145849998D01*
X160944532Y-145850001D01*
X160005468Y-145850001D01*
X160005468Y-145850000D01*
X159985635Y-145623308D01*
X159926739Y-145403504D01*
X159830568Y-145197266D01*
X159700047Y-145010861D01*
X159700045Y-145010858D01*
X159539141Y-144849954D01*
X159352734Y-144719432D01*
X159352732Y-144719431D01*
X159146497Y-144623261D01*
X159146488Y-144623258D01*
X158926697Y-144564366D01*
X158926693Y-144564365D01*
X158926692Y-144564365D01*
X158926691Y-144564364D01*
X158926686Y-144564364D01*
X158700002Y-144544532D01*
X158699998Y-144544532D01*
X158473313Y-144564364D01*
X158473302Y-144564366D01*
X158253511Y-144623258D01*
X158253502Y-144623261D01*
X158047267Y-144719431D01*
X158047265Y-144719432D01*
X157860858Y-144849954D01*
X157699954Y-145010858D01*
X157569432Y-145197265D01*
X157569431Y-145197267D01*
X157473261Y-145403502D01*
X157473258Y-145403511D01*
X157414366Y-145623302D01*
X157414364Y-145623313D01*
X157394532Y-145849998D01*
X157394532Y-145850001D01*
X153505468Y-145850001D01*
X153505468Y-145850000D01*
X153485635Y-145623308D01*
X153426739Y-145403504D01*
X153330568Y-145197266D01*
X153200047Y-145010861D01*
X153200045Y-145010858D01*
X153039141Y-144849954D01*
X152852734Y-144719432D01*
X152852732Y-144719431D01*
X152646497Y-144623261D01*
X152646488Y-144623258D01*
X152426697Y-144564366D01*
X152426693Y-144564365D01*
X152426692Y-144564365D01*
X152426691Y-144564364D01*
X152426686Y-144564364D01*
X152200002Y-144544532D01*
X152199998Y-144544532D01*
X151973313Y-144564364D01*
X151973302Y-144564366D01*
X151753511Y-144623258D01*
X151753502Y-144623261D01*
X151547267Y-144719431D01*
X151547265Y-144719432D01*
X151360858Y-144849954D01*
X151199954Y-145010858D01*
X151069432Y-145197265D01*
X151069431Y-145197267D01*
X150973261Y-145403502D01*
X150973258Y-145403511D01*
X150914366Y-145623302D01*
X150914364Y-145623313D01*
X150894532Y-145849998D01*
X150894532Y-145850001D01*
X147639430Y-145850001D01*
X147698950Y-145770493D01*
X147698954Y-145770486D01*
X147749196Y-145635779D01*
X147749198Y-145635772D01*
X147755599Y-145576244D01*
X147755600Y-145576227D01*
X147755600Y-144928400D01*
X147018947Y-144928400D01*
X146951908Y-144908715D01*
X146906153Y-144855911D01*
X146896209Y-144786753D01*
X146899969Y-144769467D01*
X146905600Y-144750288D01*
X146905600Y-144606511D01*
X146899969Y-144587333D01*
X146899970Y-144517464D01*
X146937745Y-144458686D01*
X147001301Y-144429662D01*
X147018947Y-144428400D01*
X147755600Y-144428400D01*
X147755600Y-143780572D01*
X147755599Y-143780555D01*
X147749198Y-143721027D01*
X147749196Y-143721020D01*
X147698954Y-143586313D01*
X147698950Y-143586306D01*
X147612790Y-143471212D01*
X147612787Y-143471209D01*
X147497693Y-143385049D01*
X147497686Y-143385045D01*
X147362979Y-143334803D01*
X147362972Y-143334801D01*
X147303444Y-143328400D01*
X147104966Y-143328400D01*
X147037927Y-143308715D01*
X146992172Y-143255911D01*
X146982228Y-143186753D01*
X147011253Y-143123197D01*
X147039689Y-143098973D01*
X147060049Y-143086366D01*
X147101902Y-143060452D01*
X147259472Y-142916807D01*
X147387966Y-142746655D01*
X147387967Y-142746653D01*
X147483003Y-142555794D01*
X147483003Y-142555793D01*
X147483005Y-142555789D01*
X147541356Y-142350710D01*
X147561029Y-142138400D01*
X147541356Y-141926090D01*
X147483005Y-141721011D01*
X147483003Y-141721006D01*
X147483003Y-141721005D01*
X147387967Y-141530146D01*
X147259472Y-141359993D01*
X147248511Y-141350001D01*
X150894532Y-141350001D01*
X150914364Y-141576686D01*
X150914366Y-141576697D01*
X150973258Y-141796488D01*
X150973261Y-141796497D01*
X151069431Y-142002732D01*
X151069432Y-142002734D01*
X151199954Y-142189141D01*
X151360858Y-142350045D01*
X151390207Y-142370595D01*
X151547266Y-142480568D01*
X151753504Y-142576739D01*
X151973308Y-142635635D01*
X152131866Y-142649507D01*
X152199998Y-142655468D01*
X152200000Y-142655468D01*
X152200002Y-142655468D01*
X152268134Y-142649507D01*
X152426692Y-142635635D01*
X152646496Y-142576739D01*
X152852734Y-142480568D01*
X153039139Y-142350047D01*
X153200047Y-142189139D01*
X153330568Y-142002734D01*
X153426739Y-141796496D01*
X153485635Y-141576692D01*
X153505468Y-141350001D01*
X157394532Y-141350001D01*
X157414364Y-141576686D01*
X157414366Y-141576697D01*
X157473258Y-141796488D01*
X157473261Y-141796497D01*
X157569431Y-142002732D01*
X157569432Y-142002734D01*
X157699954Y-142189141D01*
X157860858Y-142350045D01*
X157890207Y-142370595D01*
X158047266Y-142480568D01*
X158253504Y-142576739D01*
X158473308Y-142635635D01*
X158631866Y-142649507D01*
X158699998Y-142655468D01*
X158700000Y-142655468D01*
X158700002Y-142655468D01*
X158768134Y-142649507D01*
X158926692Y-142635635D01*
X159146496Y-142576739D01*
X159352734Y-142480568D01*
X159539139Y-142350047D01*
X159700047Y-142189139D01*
X159830568Y-142002734D01*
X159926739Y-141796496D01*
X159985635Y-141576692D01*
X160005468Y-141350001D01*
X160944532Y-141350001D01*
X160964364Y-141576686D01*
X160964366Y-141576697D01*
X161023258Y-141796488D01*
X161023261Y-141796497D01*
X161119431Y-142002732D01*
X161119432Y-142002734D01*
X161249954Y-142189141D01*
X161410858Y-142350045D01*
X161440207Y-142370595D01*
X161597266Y-142480568D01*
X161803504Y-142576739D01*
X162023308Y-142635635D01*
X162181866Y-142649507D01*
X162249998Y-142655468D01*
X162250000Y-142655468D01*
X162250002Y-142655468D01*
X162318134Y-142649507D01*
X162476692Y-142635635D01*
X162696496Y-142576739D01*
X162902734Y-142480568D01*
X163089139Y-142350047D01*
X163250047Y-142189139D01*
X163380568Y-142002734D01*
X163476739Y-141796496D01*
X163535635Y-141576692D01*
X163555468Y-141350001D01*
X167444532Y-141350001D01*
X167464364Y-141576686D01*
X167464366Y-141576697D01*
X167523258Y-141796488D01*
X167523261Y-141796497D01*
X167619431Y-142002732D01*
X167619432Y-142002734D01*
X167749954Y-142189141D01*
X167910858Y-142350045D01*
X167940207Y-142370595D01*
X168097266Y-142480568D01*
X168303504Y-142576739D01*
X168523308Y-142635635D01*
X168681866Y-142649507D01*
X168749998Y-142655468D01*
X168750000Y-142655468D01*
X168750002Y-142655468D01*
X168818134Y-142649507D01*
X168976692Y-142635635D01*
X169196496Y-142576739D01*
X169402734Y-142480568D01*
X169589139Y-142350047D01*
X169750047Y-142189139D01*
X169880568Y-142002734D01*
X169976739Y-141796496D01*
X170035635Y-141576692D01*
X170055468Y-141350000D01*
X170050160Y-141289335D01*
X170049249Y-141278920D01*
X170035635Y-141123308D01*
X169976739Y-140903504D01*
X169880568Y-140697266D01*
X169750047Y-140510861D01*
X169750045Y-140510858D01*
X169589141Y-140349954D01*
X169402734Y-140219432D01*
X169402732Y-140219431D01*
X169196497Y-140123261D01*
X169196488Y-140123258D01*
X168976697Y-140064366D01*
X168976693Y-140064365D01*
X168976692Y-140064365D01*
X168976691Y-140064364D01*
X168976686Y-140064364D01*
X168750002Y-140044532D01*
X168749998Y-140044532D01*
X168523313Y-140064364D01*
X168523302Y-140064366D01*
X168303511Y-140123258D01*
X168303502Y-140123261D01*
X168097267Y-140219431D01*
X168097265Y-140219432D01*
X167910858Y-140349954D01*
X167749954Y-140510858D01*
X167619432Y-140697265D01*
X167619431Y-140697267D01*
X167523261Y-140903502D01*
X167523258Y-140903511D01*
X167464366Y-141123302D01*
X167464364Y-141123313D01*
X167444532Y-141349998D01*
X167444532Y-141350001D01*
X163555468Y-141350001D01*
X163555468Y-141350000D01*
X163550160Y-141289335D01*
X163549249Y-141278920D01*
X163535635Y-141123308D01*
X163476739Y-140903504D01*
X163380568Y-140697266D01*
X163250047Y-140510861D01*
X163250045Y-140510858D01*
X163089141Y-140349954D01*
X162902734Y-140219432D01*
X162902732Y-140219431D01*
X162696497Y-140123261D01*
X162696488Y-140123258D01*
X162476697Y-140064366D01*
X162476693Y-140064365D01*
X162476692Y-140064365D01*
X162476691Y-140064364D01*
X162476686Y-140064364D01*
X162250002Y-140044532D01*
X162249998Y-140044532D01*
X162023313Y-140064364D01*
X162023302Y-140064366D01*
X161803511Y-140123258D01*
X161803502Y-140123261D01*
X161597267Y-140219431D01*
X161597265Y-140219432D01*
X161410858Y-140349954D01*
X161249954Y-140510858D01*
X161119432Y-140697265D01*
X161119431Y-140697267D01*
X161023261Y-140903502D01*
X161023258Y-140903511D01*
X160964366Y-141123302D01*
X160964364Y-141123313D01*
X160944532Y-141349998D01*
X160944532Y-141350001D01*
X160005468Y-141350001D01*
X160005468Y-141350000D01*
X160000160Y-141289335D01*
X159999249Y-141278920D01*
X159985635Y-141123308D01*
X159926739Y-140903504D01*
X159830568Y-140697266D01*
X159700047Y-140510861D01*
X159700045Y-140510858D01*
X159539141Y-140349954D01*
X159352734Y-140219432D01*
X159352732Y-140219431D01*
X159146497Y-140123261D01*
X159146488Y-140123258D01*
X158926697Y-140064366D01*
X158926693Y-140064365D01*
X158926692Y-140064365D01*
X158926691Y-140064364D01*
X158926686Y-140064364D01*
X158700002Y-140044532D01*
X158699998Y-140044532D01*
X158473313Y-140064364D01*
X158473302Y-140064366D01*
X158253511Y-140123258D01*
X158253502Y-140123261D01*
X158047267Y-140219431D01*
X158047265Y-140219432D01*
X157860858Y-140349954D01*
X157699954Y-140510858D01*
X157569432Y-140697265D01*
X157569431Y-140697267D01*
X157473261Y-140903502D01*
X157473258Y-140903511D01*
X157414366Y-141123302D01*
X157414364Y-141123313D01*
X157394532Y-141349998D01*
X157394532Y-141350001D01*
X153505468Y-141350001D01*
X153505468Y-141350000D01*
X153500160Y-141289335D01*
X153499249Y-141278920D01*
X153485635Y-141123308D01*
X153426739Y-140903504D01*
X153330568Y-140697266D01*
X153200047Y-140510861D01*
X153200045Y-140510858D01*
X153039141Y-140349954D01*
X152852734Y-140219432D01*
X152852732Y-140219431D01*
X152646497Y-140123261D01*
X152646488Y-140123258D01*
X152426697Y-140064366D01*
X152426693Y-140064365D01*
X152426692Y-140064365D01*
X152426691Y-140064364D01*
X152426686Y-140064364D01*
X152200002Y-140044532D01*
X152199998Y-140044532D01*
X151973313Y-140064364D01*
X151973302Y-140064366D01*
X151753511Y-140123258D01*
X151753502Y-140123261D01*
X151547267Y-140219431D01*
X151547265Y-140219432D01*
X151360858Y-140349954D01*
X151199954Y-140510858D01*
X151069432Y-140697265D01*
X151069431Y-140697267D01*
X150973261Y-140903502D01*
X150973258Y-140903511D01*
X150914366Y-141123302D01*
X150914364Y-141123313D01*
X150894532Y-141349998D01*
X150894532Y-141350001D01*
X147248511Y-141350001D01*
X147181960Y-141289331D01*
X147101902Y-141216348D01*
X146920619Y-141104102D01*
X146920617Y-141104101D01*
X146775267Y-141047793D01*
X146721798Y-141027079D01*
X146512210Y-140987900D01*
X146298990Y-140987900D01*
X146089402Y-141027079D01*
X146089399Y-141027079D01*
X146089399Y-141027080D01*
X145890582Y-141104101D01*
X145890580Y-141104102D01*
X145709299Y-141216347D01*
X145551727Y-141359993D01*
X145423232Y-141530146D01*
X145328196Y-141721005D01*
X145328196Y-141721007D01*
X145269844Y-141926089D01*
X145255604Y-142079772D01*
X145250171Y-142138400D01*
X145269844Y-142350710D01*
X145328006Y-142555126D01*
X145328196Y-142555792D01*
X145328196Y-142555794D01*
X145423232Y-142746653D01*
X145551727Y-142916806D01*
X145551728Y-142916807D01*
X145709298Y-143060452D01*
X145709300Y-143060453D01*
X145709301Y-143060454D01*
X145771511Y-143098973D01*
X145818147Y-143151001D01*
X145829251Y-143219982D01*
X145801298Y-143284017D01*
X145743163Y-143322773D01*
X145706234Y-143328400D01*
X145507755Y-143328400D01*
X145448227Y-143334801D01*
X145448220Y-143334803D01*
X145313513Y-143385045D01*
X145313506Y-143385049D01*
X145198412Y-143471209D01*
X145198409Y-143471212D01*
X145112249Y-143586306D01*
X145112245Y-143586313D01*
X145062003Y-143721020D01*
X145062001Y-143721027D01*
X145055600Y-143780555D01*
X145055600Y-144428400D01*
X145792253Y-144428400D01*
X145859292Y-144448085D01*
X145905047Y-144500889D01*
X145914991Y-144570047D01*
X145911231Y-144587333D01*
X145905600Y-144606511D01*
X145905600Y-144750288D01*
X145911231Y-144769467D01*
X145911230Y-144839336D01*
X145873455Y-144898114D01*
X145809899Y-144927138D01*
X145792253Y-144928400D01*
X145055600Y-144928400D01*
X145055600Y-145576244D01*
X142173836Y-145576244D01*
X142296000Y-145401778D01*
X142395829Y-145187692D01*
X142395832Y-145187686D01*
X142453036Y-144974200D01*
X141735747Y-144974200D01*
X141668708Y-144954515D01*
X141622953Y-144901711D01*
X141613009Y-144832553D01*
X141616769Y-144815267D01*
X141622400Y-144796088D01*
X141622400Y-144652311D01*
X141616769Y-144633133D01*
X141616770Y-144563264D01*
X141654545Y-144504486D01*
X141718101Y-144475462D01*
X141735747Y-144474200D01*
X142453036Y-144474200D01*
X142453035Y-144474199D01*
X142395832Y-144260713D01*
X142395829Y-144260707D01*
X142296000Y-144046622D01*
X142295999Y-144046620D01*
X142160513Y-143853126D01*
X142160508Y-143853120D01*
X141993482Y-143686094D01*
X141813794Y-143560274D01*
X141770169Y-143505696D01*
X141762977Y-143436198D01*
X141794499Y-143373843D01*
X141854729Y-143338430D01*
X141884917Y-143334699D01*
X142017264Y-143334699D01*
X142017279Y-143334697D01*
X142017282Y-143334697D01*
X142042387Y-143331786D01*
X142042388Y-143331785D01*
X142042391Y-143331785D01*
X142145165Y-143286406D01*
X142224606Y-143206965D01*
X142269985Y-143104191D01*
X142272900Y-143079065D01*
X142272899Y-141289336D01*
X142271691Y-141278920D01*
X142269986Y-141264212D01*
X142269985Y-141264210D01*
X142269985Y-141264209D01*
X142224606Y-141161435D01*
X142145165Y-141081994D01*
X142145164Y-141081993D01*
X142042392Y-141036615D01*
X142017265Y-141033700D01*
X140227543Y-141033700D01*
X140227517Y-141033702D01*
X140202412Y-141036613D01*
X140202408Y-141036615D01*
X140099635Y-141081993D01*
X140020194Y-141161434D01*
X139974815Y-141264206D01*
X139974815Y-141264208D01*
X139971900Y-141289331D01*
X139971900Y-143079056D01*
X139971902Y-143079082D01*
X139974813Y-143104187D01*
X139974815Y-143104191D01*
X140020193Y-143206964D01*
X140020194Y-143206965D01*
X140099635Y-143286406D01*
X140202409Y-143331785D01*
X140227535Y-143334700D01*
X140359883Y-143334699D01*
X140426920Y-143354383D01*
X140472675Y-143407187D01*
X140482619Y-143476345D01*
X140453595Y-143539901D01*
X140431005Y-143560274D01*
X140251322Y-143686090D01*
X140251320Y-143686091D01*
X140084291Y-143853120D01*
X140084286Y-143853126D01*
X139948800Y-144046620D01*
X139948799Y-144046622D01*
X139848970Y-144260707D01*
X139848967Y-144260713D01*
X139791764Y-144474199D01*
X139791764Y-144474200D01*
X140509053Y-144474200D01*
X140576092Y-144493885D01*
X140621847Y-144546689D01*
X140631791Y-144615847D01*
X140628031Y-144633133D01*
X140622400Y-144652311D01*
X140622400Y-144796088D01*
X140628031Y-144815267D01*
X140628030Y-144885136D01*
X140590255Y-144943914D01*
X140526699Y-144972938D01*
X140509053Y-144974200D01*
X139791764Y-144974200D01*
X122103936Y-144974200D01*
X122085859Y-144652307D01*
X122027527Y-144308987D01*
X121931121Y-143974356D01*
X121797855Y-143652624D01*
X121629405Y-143347836D01*
X121427888Y-143063824D01*
X121195839Y-142804161D01*
X120936176Y-142572112D01*
X120652164Y-142370595D01*
X120347376Y-142202145D01*
X120325911Y-142193254D01*
X120193482Y-142138400D01*
X120025644Y-142068879D01*
X119765568Y-141993952D01*
X119691017Y-141972474D01*
X119691009Y-141972472D01*
X119347700Y-141914142D01*
X119347688Y-141914140D01*
X119025181Y-141896029D01*
X119000000Y-141894615D01*
X118999999Y-141894615D01*
X118652311Y-141914140D01*
X118652299Y-141914142D01*
X118308990Y-141972472D01*
X118308982Y-141972474D01*
X118008879Y-142058933D01*
X117974356Y-142068879D01*
X117970851Y-142070331D01*
X117652625Y-142202144D01*
X117347835Y-142370595D01*
X117306393Y-142400000D01*
X117063824Y-142572112D01*
X116804161Y-142804161D01*
X116572112Y-143063824D01*
X116543473Y-143104187D01*
X116370595Y-143347835D01*
X116202144Y-143652625D01*
X116068878Y-143974359D01*
X115972474Y-144308982D01*
X115972472Y-144308990D01*
X115914142Y-144652299D01*
X115914140Y-144652311D01*
X115894615Y-145000000D01*
X94280500Y-145000000D01*
X94280500Y-143044856D01*
X103609500Y-143044856D01*
X103609502Y-143044882D01*
X103612413Y-143069987D01*
X103612415Y-143069991D01*
X103657793Y-143172764D01*
X103657794Y-143172765D01*
X103737235Y-143252206D01*
X103840009Y-143297585D01*
X103865135Y-143300500D01*
X105654864Y-143300499D01*
X105654879Y-143300497D01*
X105654882Y-143300497D01*
X105679987Y-143297586D01*
X105679988Y-143297585D01*
X105679991Y-143297585D01*
X105782765Y-143252206D01*
X105862206Y-143172765D01*
X105907585Y-143069991D01*
X105910500Y-143044865D01*
X105910499Y-142306046D01*
X105930183Y-142239009D01*
X105982987Y-142193254D01*
X106052146Y-142183310D01*
X106115702Y-142212335D01*
X106153476Y-142271113D01*
X106157970Y-142294606D01*
X106163108Y-142350047D01*
X106164244Y-142362310D01*
X106219294Y-142555789D01*
X106222596Y-142567392D01*
X106222596Y-142567394D01*
X106317632Y-142758253D01*
X106437367Y-142916806D01*
X106446128Y-142928407D01*
X106603698Y-143072052D01*
X106784981Y-143184298D01*
X106983802Y-143261321D01*
X107193390Y-143300500D01*
X107193392Y-143300500D01*
X107406608Y-143300500D01*
X107406610Y-143300500D01*
X107616198Y-143261321D01*
X107815019Y-143184298D01*
X107996302Y-143072052D01*
X108153872Y-142928407D01*
X108282366Y-142758255D01*
X108288143Y-142746653D01*
X108377403Y-142567394D01*
X108377403Y-142567393D01*
X108377405Y-142567389D01*
X108435756Y-142362310D01*
X108446529Y-142246047D01*
X108472315Y-142181111D01*
X108514622Y-142150804D01*
X108623130Y-142150804D01*
X108659503Y-142171668D01*
X108691693Y-142233681D01*
X108693470Y-142246047D01*
X108704244Y-142362310D01*
X108759294Y-142555789D01*
X108762596Y-142567392D01*
X108762596Y-142567394D01*
X108857632Y-142758253D01*
X108977367Y-142916806D01*
X108986128Y-142928407D01*
X109143698Y-143072052D01*
X109324981Y-143184298D01*
X109523802Y-143261321D01*
X109733390Y-143300500D01*
X109733392Y-143300500D01*
X109946608Y-143300500D01*
X109946610Y-143300500D01*
X110156198Y-143261321D01*
X110355019Y-143184298D01*
X110536302Y-143072052D01*
X110693872Y-142928407D01*
X110822366Y-142758255D01*
X110889325Y-142623781D01*
X110936825Y-142572548D01*
X111004488Y-142555126D01*
X111070828Y-142577051D01*
X111112705Y-142626651D01*
X111206399Y-142827578D01*
X111341894Y-143021082D01*
X111508917Y-143188105D01*
X111702421Y-143323600D01*
X111916507Y-143423429D01*
X111916516Y-143423433D01*
X112130000Y-143480634D01*
X112130000Y-142762301D01*
X112149685Y-142695262D01*
X112202489Y-142649507D01*
X112271647Y-142639563D01*
X112344237Y-142650000D01*
X112344238Y-142650000D01*
X112415762Y-142650000D01*
X112415763Y-142650000D01*
X112488352Y-142639563D01*
X112557510Y-142649507D01*
X112610314Y-142695261D01*
X112629999Y-142762301D01*
X112629999Y-143480634D01*
X112843483Y-143423433D01*
X112843492Y-143423429D01*
X113057578Y-143323600D01*
X113251082Y-143188105D01*
X113418105Y-143021082D01*
X113553600Y-142827578D01*
X113653429Y-142613492D01*
X113653432Y-142613486D01*
X113710636Y-142400000D01*
X112993347Y-142400000D01*
X112926308Y-142380315D01*
X112880553Y-142327511D01*
X112870609Y-142258353D01*
X112874369Y-142241067D01*
X112880000Y-142221888D01*
X112880000Y-142078111D01*
X112874369Y-142058933D01*
X112874370Y-141989064D01*
X112912145Y-141930286D01*
X112975701Y-141901262D01*
X112993347Y-141900000D01*
X113710636Y-141900000D01*
X113710635Y-141899999D01*
X113653432Y-141686513D01*
X113653429Y-141686507D01*
X113553600Y-141472422D01*
X113553599Y-141472420D01*
X113418113Y-141278926D01*
X113418108Y-141278920D01*
X113251082Y-141111894D01*
X113057578Y-140976399D01*
X112843492Y-140876570D01*
X112843486Y-140876567D01*
X112630000Y-140819364D01*
X112629999Y-140819364D01*
X112629999Y-141537698D01*
X112610314Y-141604738D01*
X112557510Y-141650492D01*
X112488353Y-141660436D01*
X112415764Y-141650000D01*
X112415763Y-141650000D01*
X112344237Y-141650000D01*
X112344233Y-141650000D01*
X112271645Y-141660436D01*
X112202487Y-141650492D01*
X112149684Y-141604736D01*
X112130000Y-141537698D01*
X112130000Y-140819364D01*
X112129999Y-140819364D01*
X111916513Y-140876567D01*
X111916507Y-140876570D01*
X111702422Y-140976399D01*
X111702420Y-140976400D01*
X111508926Y-141111886D01*
X111508920Y-141111891D01*
X111341891Y-141278920D01*
X111341886Y-141278926D01*
X111206400Y-141472420D01*
X111206399Y-141472422D01*
X111112705Y-141673348D01*
X111066532Y-141725787D01*
X110999339Y-141744939D01*
X110932457Y-141724723D01*
X110889324Y-141676216D01*
X110822366Y-141541745D01*
X110693872Y-141371593D01*
X110536302Y-141227948D01*
X110355019Y-141115702D01*
X110355017Y-141115701D01*
X110255608Y-141077190D01*
X110156198Y-141038679D01*
X109946610Y-140999500D01*
X109733390Y-140999500D01*
X109523802Y-141038679D01*
X109523799Y-141038679D01*
X109523799Y-141038680D01*
X109324982Y-141115701D01*
X109324980Y-141115702D01*
X109143699Y-141227947D01*
X108986127Y-141371593D01*
X108857632Y-141541746D01*
X108762596Y-141732605D01*
X108762596Y-141732607D01*
X108704244Y-141937689D01*
X108693471Y-142053951D01*
X108667685Y-142118888D01*
X108623130Y-142150804D01*
X108514622Y-142150804D01*
X108516869Y-142149194D01*
X108480497Y-142128331D01*
X108448307Y-142066318D01*
X108446529Y-142053951D01*
X108443175Y-142017759D01*
X108435756Y-141937690D01*
X108377405Y-141732611D01*
X108377403Y-141732606D01*
X108377403Y-141732605D01*
X108282367Y-141541746D01*
X108153872Y-141371593D01*
X108130186Y-141350000D01*
X107996302Y-141227948D01*
X107815019Y-141115702D01*
X107815017Y-141115701D01*
X107715608Y-141077190D01*
X107616198Y-141038679D01*
X107406610Y-140999500D01*
X107193390Y-140999500D01*
X106983802Y-141038679D01*
X106983799Y-141038679D01*
X106983799Y-141038680D01*
X106784982Y-141115701D01*
X106784980Y-141115702D01*
X106603699Y-141227947D01*
X106446127Y-141371593D01*
X106317632Y-141541746D01*
X106222596Y-141732605D01*
X106222596Y-141732607D01*
X106164244Y-141937689D01*
X106157970Y-142005394D01*
X106132183Y-142070331D01*
X106075383Y-142111018D01*
X106005602Y-142114538D01*
X105944995Y-142079772D01*
X105912806Y-142017759D01*
X105910499Y-141993952D01*
X105910499Y-141255143D01*
X105910499Y-141255136D01*
X105910497Y-141255117D01*
X105907586Y-141230012D01*
X105907585Y-141230010D01*
X105907585Y-141230009D01*
X105862206Y-141127235D01*
X105782765Y-141047794D01*
X105762124Y-141038680D01*
X105679992Y-141002415D01*
X105654865Y-140999500D01*
X103865143Y-140999500D01*
X103865117Y-140999502D01*
X103840012Y-141002413D01*
X103840008Y-141002415D01*
X103737235Y-141047793D01*
X103657794Y-141127234D01*
X103612415Y-141230006D01*
X103612415Y-141230008D01*
X103609500Y-141255131D01*
X103609500Y-143044856D01*
X94280500Y-143044856D01*
X94280500Y-139039600D01*
X156875522Y-139039600D01*
X156894562Y-139196418D01*
X156950579Y-139344122D01*
X156950580Y-139344123D01*
X157040317Y-139474130D01*
X157158560Y-139578883D01*
X157158562Y-139578884D01*
X157298434Y-139652296D01*
X157451814Y-139690100D01*
X157451815Y-139690100D01*
X157609785Y-139690100D01*
X157763165Y-139652296D01*
X157763164Y-139652295D01*
X157903040Y-139578883D01*
X157968056Y-139521283D01*
X158031290Y-139491563D01*
X158050283Y-139490100D01*
X165342517Y-139490100D01*
X165409556Y-139509785D01*
X165424741Y-139521282D01*
X165489760Y-139578883D01*
X165489762Y-139578884D01*
X165629634Y-139652296D01*
X165783014Y-139690100D01*
X165783015Y-139690100D01*
X165940985Y-139690100D01*
X166094365Y-139652296D01*
X166094365Y-139652295D01*
X166234240Y-139578883D01*
X166352483Y-139474130D01*
X166442220Y-139344123D01*
X166498237Y-139196418D01*
X166517278Y-139039600D01*
X166498237Y-138882782D01*
X166442220Y-138735077D01*
X166352483Y-138605070D01*
X166234240Y-138500317D01*
X166234238Y-138500316D01*
X166234237Y-138500315D01*
X166094365Y-138426903D01*
X165940986Y-138389100D01*
X165940985Y-138389100D01*
X165783015Y-138389100D01*
X165783014Y-138389100D01*
X165629634Y-138426903D01*
X165489762Y-138500315D01*
X165424744Y-138557916D01*
X165361510Y-138587637D01*
X165342517Y-138589100D01*
X158050283Y-138589100D01*
X157983244Y-138569415D01*
X157968056Y-138557916D01*
X157903040Y-138500317D01*
X157903038Y-138500316D01*
X157903037Y-138500315D01*
X157763165Y-138426903D01*
X157609786Y-138389100D01*
X157609785Y-138389100D01*
X157451815Y-138389100D01*
X157451814Y-138389100D01*
X157298434Y-138426903D01*
X157158562Y-138500315D01*
X157040316Y-138605071D01*
X156950581Y-138735075D01*
X156950580Y-138735076D01*
X156894562Y-138882781D01*
X156875522Y-139039599D01*
X156875522Y-139039600D01*
X94280500Y-139039600D01*
X94280500Y-135031656D01*
X102417500Y-135031656D01*
X102417502Y-135031682D01*
X102420413Y-135056787D01*
X102420415Y-135056791D01*
X102465793Y-135159564D01*
X102465794Y-135159565D01*
X102545235Y-135239006D01*
X102648009Y-135284385D01*
X102673135Y-135287300D01*
X104462864Y-135287299D01*
X104462879Y-135287297D01*
X104462882Y-135287297D01*
X104487987Y-135284386D01*
X104487988Y-135284385D01*
X104487991Y-135284385D01*
X104590765Y-135239006D01*
X104670206Y-135159565D01*
X104715585Y-135056791D01*
X104718500Y-135031665D01*
X104718499Y-134292846D01*
X104738183Y-134225809D01*
X104790987Y-134180054D01*
X104860146Y-134170110D01*
X104923702Y-134199135D01*
X104961476Y-134257913D01*
X104965970Y-134281406D01*
X104972244Y-134349110D01*
X105030596Y-134554192D01*
X105030596Y-134554194D01*
X105125632Y-134745053D01*
X105201073Y-134844952D01*
X105254128Y-134915207D01*
X105411698Y-135058852D01*
X105592981Y-135171098D01*
X105791802Y-135248121D01*
X106001390Y-135287300D01*
X106001392Y-135287300D01*
X106214608Y-135287300D01*
X106214610Y-135287300D01*
X106424198Y-135248121D01*
X106623019Y-135171098D01*
X106804302Y-135058852D01*
X106961872Y-134915207D01*
X107090366Y-134745055D01*
X107090367Y-134745053D01*
X107185403Y-134554194D01*
X107185403Y-134554193D01*
X107185405Y-134554189D01*
X107243756Y-134349110D01*
X107254529Y-134232847D01*
X107280315Y-134167911D01*
X107322622Y-134137604D01*
X107431130Y-134137604D01*
X107467503Y-134158468D01*
X107499693Y-134220481D01*
X107501471Y-134232848D01*
X107512244Y-134349110D01*
X107570596Y-134554192D01*
X107570596Y-134554194D01*
X107665632Y-134745053D01*
X107741073Y-134844952D01*
X107794128Y-134915207D01*
X107951698Y-135058852D01*
X108132981Y-135171098D01*
X108331802Y-135248121D01*
X108541390Y-135287300D01*
X108541392Y-135287300D01*
X108754608Y-135287300D01*
X108754610Y-135287300D01*
X108964198Y-135248121D01*
X109163019Y-135171098D01*
X109344302Y-135058852D01*
X109501872Y-134915207D01*
X109630366Y-134745055D01*
X109697325Y-134610581D01*
X109744825Y-134559348D01*
X109812488Y-134541926D01*
X109878828Y-134563851D01*
X109920705Y-134613451D01*
X110014399Y-134814378D01*
X110149894Y-135007882D01*
X110316917Y-135174905D01*
X110510421Y-135310400D01*
X110724507Y-135410229D01*
X110724516Y-135410233D01*
X110938000Y-135467434D01*
X110938000Y-134749101D01*
X110957685Y-134682062D01*
X111010489Y-134636307D01*
X111079647Y-134626363D01*
X111152237Y-134636800D01*
X111152238Y-134636800D01*
X111223762Y-134636800D01*
X111223763Y-134636800D01*
X111296353Y-134626363D01*
X111365512Y-134636307D01*
X111418315Y-134682062D01*
X111438000Y-134749101D01*
X111438000Y-135467433D01*
X111651483Y-135410233D01*
X111651492Y-135410229D01*
X111865578Y-135310400D01*
X112059082Y-135174905D01*
X112226105Y-135007882D01*
X112361600Y-134814378D01*
X112455294Y-134613451D01*
X112501466Y-134561012D01*
X112568660Y-134541860D01*
X112635541Y-134562076D01*
X112678676Y-134610585D01*
X112745632Y-134745053D01*
X112821073Y-134844952D01*
X112874128Y-134915207D01*
X113031698Y-135058852D01*
X113212981Y-135171098D01*
X113411802Y-135248121D01*
X113621390Y-135287300D01*
X113621392Y-135287300D01*
X113834608Y-135287300D01*
X113834610Y-135287300D01*
X114044198Y-135248121D01*
X114243019Y-135171098D01*
X114424302Y-135058852D01*
X114581872Y-134915207D01*
X114710366Y-134745055D01*
X114710367Y-134745053D01*
X114805403Y-134554194D01*
X114805403Y-134554193D01*
X114805405Y-134554189D01*
X114863756Y-134349110D01*
X114883429Y-134136800D01*
X114863756Y-133924490D01*
X114805405Y-133719411D01*
X114805403Y-133719406D01*
X114805403Y-133719405D01*
X114710367Y-133528546D01*
X114581872Y-133358393D01*
X114548437Y-133327913D01*
X114424302Y-133214748D01*
X114243019Y-133102502D01*
X114243017Y-133102501D01*
X114121121Y-133055279D01*
X114044198Y-133025479D01*
X113834610Y-132986300D01*
X113621390Y-132986300D01*
X113411802Y-133025479D01*
X113411799Y-133025479D01*
X113411799Y-133025480D01*
X113212982Y-133102501D01*
X113212980Y-133102502D01*
X113031699Y-133214747D01*
X112874127Y-133358393D01*
X112745634Y-133528544D01*
X112678676Y-133663015D01*
X112631173Y-133714252D01*
X112563510Y-133731673D01*
X112497170Y-133709747D01*
X112455294Y-133660148D01*
X112361600Y-133459222D01*
X112361599Y-133459220D01*
X112226113Y-133265726D01*
X112226108Y-133265720D01*
X112059082Y-133098694D01*
X111865578Y-132963199D01*
X111651492Y-132863370D01*
X111651486Y-132863367D01*
X111438000Y-132806164D01*
X111438000Y-133524498D01*
X111418315Y-133591537D01*
X111365511Y-133637292D01*
X111296355Y-133647236D01*
X111223766Y-133636800D01*
X111223763Y-133636800D01*
X111152237Y-133636800D01*
X111152233Y-133636800D01*
X111079645Y-133647236D01*
X111010487Y-133637292D01*
X110957684Y-133591536D01*
X110938000Y-133524498D01*
X110938000Y-132806164D01*
X110937999Y-132806164D01*
X110724513Y-132863367D01*
X110724507Y-132863370D01*
X110510422Y-132963199D01*
X110510420Y-132963200D01*
X110316926Y-133098686D01*
X110316920Y-133098691D01*
X110149891Y-133265720D01*
X110149886Y-133265726D01*
X110014400Y-133459220D01*
X110014399Y-133459222D01*
X109920705Y-133660148D01*
X109874532Y-133712587D01*
X109807339Y-133731739D01*
X109740457Y-133711523D01*
X109697323Y-133663015D01*
X109630366Y-133528545D01*
X109627777Y-133525117D01*
X109501872Y-133358393D01*
X109468437Y-133327913D01*
X109344302Y-133214748D01*
X109163019Y-133102502D01*
X109163017Y-133102501D01*
X109041121Y-133055279D01*
X108964198Y-133025479D01*
X108754610Y-132986300D01*
X108541390Y-132986300D01*
X108331802Y-133025479D01*
X108331799Y-133025479D01*
X108331799Y-133025480D01*
X108132982Y-133102501D01*
X108132980Y-133102502D01*
X107951699Y-133214747D01*
X107794127Y-133358393D01*
X107665632Y-133528546D01*
X107570596Y-133719405D01*
X107570596Y-133719407D01*
X107512244Y-133924489D01*
X107501471Y-134040751D01*
X107475685Y-134105688D01*
X107431130Y-134137604D01*
X107322622Y-134137604D01*
X107324869Y-134135994D01*
X107288497Y-134115131D01*
X107256307Y-134053118D01*
X107254529Y-134040751D01*
X107250294Y-133995048D01*
X107243756Y-133924490D01*
X107185405Y-133719411D01*
X107185403Y-133719406D01*
X107185403Y-133719405D01*
X107090367Y-133528546D01*
X106961872Y-133358393D01*
X106928437Y-133327913D01*
X106804302Y-133214748D01*
X106623019Y-133102502D01*
X106623017Y-133102501D01*
X106501121Y-133055279D01*
X106424198Y-133025479D01*
X106214610Y-132986300D01*
X106001390Y-132986300D01*
X105791802Y-133025479D01*
X105791799Y-133025479D01*
X105791799Y-133025480D01*
X105592982Y-133102501D01*
X105592980Y-133102502D01*
X105411699Y-133214747D01*
X105254127Y-133358393D01*
X105125632Y-133528546D01*
X105030596Y-133719405D01*
X105030596Y-133719407D01*
X104972244Y-133924489D01*
X104965970Y-133992194D01*
X104940183Y-134057131D01*
X104883383Y-134097818D01*
X104813602Y-134101338D01*
X104752995Y-134066572D01*
X104720806Y-134004559D01*
X104718499Y-133980752D01*
X104718499Y-133241943D01*
X104718499Y-133241936D01*
X104718497Y-133241917D01*
X104715586Y-133216812D01*
X104715585Y-133216810D01*
X104715585Y-133216809D01*
X104670206Y-133114035D01*
X104590765Y-133034594D01*
X104570124Y-133025480D01*
X104487992Y-132989215D01*
X104462865Y-132986300D01*
X102673143Y-132986300D01*
X102673117Y-132986302D01*
X102648012Y-132989213D01*
X102648008Y-132989215D01*
X102545235Y-133034593D01*
X102465794Y-133114034D01*
X102420415Y-133216806D01*
X102420415Y-133216808D01*
X102417500Y-133241931D01*
X102417500Y-135031656D01*
X94280500Y-135031656D01*
X94280500Y-121970000D01*
X151729364Y-121970000D01*
X151786567Y-122183486D01*
X151786570Y-122183492D01*
X151886399Y-122397578D01*
X152021894Y-122591082D01*
X152188917Y-122758105D01*
X152382421Y-122893600D01*
X152581573Y-122986466D01*
X152634012Y-123032638D01*
X152653164Y-123099832D01*
X152632948Y-123166713D01*
X152579783Y-123212048D01*
X152573968Y-123214472D01*
X152566771Y-123217260D01*
X152544982Y-123225701D01*
X152544980Y-123225702D01*
X152363699Y-123337947D01*
X152206127Y-123481593D01*
X152077632Y-123651746D01*
X151982596Y-123842605D01*
X151982596Y-123842607D01*
X151924244Y-124047689D01*
X151904571Y-124259999D01*
X151904571Y-124260000D01*
X151924244Y-124472310D01*
X151982596Y-124677392D01*
X151982596Y-124677394D01*
X152077632Y-124868253D01*
X152077634Y-124868255D01*
X152206128Y-125038407D01*
X152363698Y-125182052D01*
X152544981Y-125294298D01*
X152743802Y-125371321D01*
X152940613Y-125408111D01*
X153002893Y-125439779D01*
X153038166Y-125500092D01*
X153035232Y-125569900D01*
X152995023Y-125627040D01*
X152940613Y-125651888D01*
X152743802Y-125688679D01*
X152743799Y-125688679D01*
X152743799Y-125688680D01*
X152544982Y-125765701D01*
X152544980Y-125765702D01*
X152363699Y-125877947D01*
X152206127Y-126021593D01*
X152077632Y-126191746D01*
X151982596Y-126382605D01*
X151982596Y-126382607D01*
X151924244Y-126587689D01*
X151904571Y-126799999D01*
X151904571Y-126800000D01*
X151924244Y-127012310D01*
X151982596Y-127217392D01*
X151982596Y-127217394D01*
X152077632Y-127408253D01*
X152077634Y-127408255D01*
X152206128Y-127578407D01*
X152363698Y-127722052D01*
X152544981Y-127834298D01*
X152743802Y-127911321D01*
X152940613Y-127948111D01*
X153002893Y-127979779D01*
X153038166Y-128040092D01*
X153035232Y-128109900D01*
X152995023Y-128167040D01*
X152940613Y-128191888D01*
X152743802Y-128228679D01*
X152743799Y-128228679D01*
X152743799Y-128228680D01*
X152544982Y-128305701D01*
X152544980Y-128305702D01*
X152363699Y-128417947D01*
X152206127Y-128561593D01*
X152077632Y-128731746D01*
X151982596Y-128922605D01*
X151982596Y-128922607D01*
X151924244Y-129127689D01*
X151904571Y-129339999D01*
X151904571Y-129340000D01*
X151924244Y-129552310D01*
X151982596Y-129757392D01*
X151982596Y-129757394D01*
X152077632Y-129948253D01*
X152077634Y-129948255D01*
X152206128Y-130118407D01*
X152363698Y-130262052D01*
X152544981Y-130374298D01*
X152743802Y-130451321D01*
X152940613Y-130488111D01*
X153002893Y-130519779D01*
X153038166Y-130580092D01*
X153035232Y-130649900D01*
X152995023Y-130707040D01*
X152940613Y-130731888D01*
X152743802Y-130768679D01*
X152743799Y-130768679D01*
X152743799Y-130768680D01*
X152544982Y-130845701D01*
X152544980Y-130845702D01*
X152363699Y-130957947D01*
X152206127Y-131101593D01*
X152077632Y-131271746D01*
X151982596Y-131462605D01*
X151982596Y-131462607D01*
X151924244Y-131667689D01*
X151904571Y-131879999D01*
X151904571Y-131880000D01*
X151924244Y-132092310D01*
X151982596Y-132297392D01*
X151982596Y-132297394D01*
X152077632Y-132488253D01*
X152206127Y-132658406D01*
X152206128Y-132658407D01*
X152363698Y-132802052D01*
X152544981Y-132914298D01*
X152743802Y-132991321D01*
X152916544Y-133023612D01*
X152978823Y-133055279D01*
X153014096Y-133115591D01*
X153011162Y-133185400D01*
X152970953Y-133242540D01*
X152906235Y-133268871D01*
X152893757Y-133269500D01*
X152165143Y-133269500D01*
X152165117Y-133269502D01*
X152140012Y-133272413D01*
X152140008Y-133272415D01*
X152037235Y-133317793D01*
X151957794Y-133397234D01*
X151912415Y-133500006D01*
X151912415Y-133500008D01*
X151909500Y-133525131D01*
X151909500Y-135314856D01*
X151909502Y-135314882D01*
X151912413Y-135339987D01*
X151912415Y-135339991D01*
X151957793Y-135442764D01*
X151957794Y-135442765D01*
X152037235Y-135522206D01*
X152140009Y-135567585D01*
X152165135Y-135570500D01*
X153954864Y-135570499D01*
X153954879Y-135570497D01*
X153954882Y-135570497D01*
X153979987Y-135567586D01*
X153979988Y-135567585D01*
X153979991Y-135567585D01*
X154082765Y-135522206D01*
X154162206Y-135442765D01*
X154207585Y-135339991D01*
X154210154Y-135317844D01*
X166950000Y-135317844D01*
X166956401Y-135377372D01*
X166956403Y-135377379D01*
X167006645Y-135512086D01*
X167006649Y-135512093D01*
X167092809Y-135627187D01*
X167092812Y-135627190D01*
X167207906Y-135713350D01*
X167207913Y-135713354D01*
X167342620Y-135763596D01*
X167342627Y-135763598D01*
X167402155Y-135769999D01*
X167402172Y-135770000D01*
X168050000Y-135770000D01*
X168050000Y-135032301D01*
X168069685Y-134965262D01*
X168122489Y-134919507D01*
X168191647Y-134909563D01*
X168264237Y-134920000D01*
X168264238Y-134920000D01*
X168335762Y-134920000D01*
X168335763Y-134920000D01*
X168408353Y-134909563D01*
X168477512Y-134919507D01*
X168530315Y-134965262D01*
X168550000Y-135032301D01*
X168549999Y-135769999D01*
X168550000Y-135770000D01*
X169197828Y-135770000D01*
X169197844Y-135769999D01*
X169257372Y-135763598D01*
X169257379Y-135763596D01*
X169392086Y-135713354D01*
X169392093Y-135713350D01*
X169507187Y-135627190D01*
X169507190Y-135627187D01*
X169593350Y-135512093D01*
X169593354Y-135512086D01*
X169643596Y-135377379D01*
X169643598Y-135377372D01*
X169649999Y-135317844D01*
X169650000Y-135317827D01*
X169650000Y-134670000D01*
X168913347Y-134670000D01*
X168846308Y-134650315D01*
X168800553Y-134597511D01*
X168790609Y-134528353D01*
X168794369Y-134511067D01*
X168800000Y-134491888D01*
X168800000Y-134348111D01*
X168794369Y-134328933D01*
X168794370Y-134259064D01*
X168832145Y-134200286D01*
X168895701Y-134171262D01*
X168913347Y-134170000D01*
X169650000Y-134170000D01*
X169650000Y-133522172D01*
X169649999Y-133522155D01*
X169643598Y-133462627D01*
X169643596Y-133462620D01*
X169593354Y-133327913D01*
X169593350Y-133327906D01*
X169507190Y-133212812D01*
X169507187Y-133212809D01*
X169392093Y-133126649D01*
X169392086Y-133126645D01*
X169257379Y-133076403D01*
X169257372Y-133076401D01*
X169197844Y-133070000D01*
X168999366Y-133070000D01*
X168932327Y-133050315D01*
X168886572Y-132997511D01*
X168876628Y-132928353D01*
X168905653Y-132864797D01*
X168934089Y-132840573D01*
X168954449Y-132827966D01*
X168996302Y-132802052D01*
X169153872Y-132658407D01*
X169282366Y-132488255D01*
X169318303Y-132416083D01*
X169377403Y-132297394D01*
X169377403Y-132297393D01*
X169377405Y-132297389D01*
X169435756Y-132092310D01*
X169455429Y-131880000D01*
X169455132Y-131876800D01*
X169440601Y-131719981D01*
X169435756Y-131667690D01*
X169377405Y-131462611D01*
X169377403Y-131462606D01*
X169377403Y-131462605D01*
X169282367Y-131271746D01*
X169153872Y-131101593D01*
X168996302Y-130957948D01*
X168815019Y-130845702D01*
X168815017Y-130845701D01*
X168715608Y-130807190D01*
X168616198Y-130768679D01*
X168419385Y-130731888D01*
X168357106Y-130700221D01*
X168321833Y-130639908D01*
X168324767Y-130570100D01*
X168364976Y-130512960D01*
X168419384Y-130488111D01*
X168616198Y-130451321D01*
X168815019Y-130374298D01*
X168996302Y-130262052D01*
X169153872Y-130118407D01*
X169282366Y-129948255D01*
X169377405Y-129757389D01*
X169435756Y-129552310D01*
X169455429Y-129340000D01*
X169435756Y-129127690D01*
X169377405Y-128922611D01*
X169377403Y-128922606D01*
X169377403Y-128922605D01*
X169282367Y-128731746D01*
X169153872Y-128561593D01*
X168996302Y-128417948D01*
X168815019Y-128305702D01*
X168815017Y-128305701D01*
X168715608Y-128267190D01*
X168616198Y-128228679D01*
X168419385Y-128191888D01*
X168357106Y-128160221D01*
X168321833Y-128099908D01*
X168324767Y-128030100D01*
X168364976Y-127972960D01*
X168419384Y-127948111D01*
X168616198Y-127911321D01*
X168815019Y-127834298D01*
X168996302Y-127722052D01*
X169153872Y-127578407D01*
X169282366Y-127408255D01*
X169377405Y-127217389D01*
X169435756Y-127012310D01*
X169455429Y-126800000D01*
X169435756Y-126587690D01*
X169377405Y-126382611D01*
X169377403Y-126382606D01*
X169377403Y-126382605D01*
X169282367Y-126191746D01*
X169153872Y-126021593D01*
X168996302Y-125877948D01*
X168815019Y-125765702D01*
X168815017Y-125765701D01*
X168715608Y-125727190D01*
X168616198Y-125688679D01*
X168419385Y-125651888D01*
X168357106Y-125620221D01*
X168321833Y-125559908D01*
X168324767Y-125490100D01*
X168364976Y-125432960D01*
X168419384Y-125408111D01*
X168616198Y-125371321D01*
X168815019Y-125294298D01*
X168996302Y-125182052D01*
X169153872Y-125038407D01*
X169282366Y-124868255D01*
X169377405Y-124677389D01*
X169435756Y-124472310D01*
X169455429Y-124260000D01*
X169435756Y-124047690D01*
X169377405Y-123842611D01*
X169377403Y-123842606D01*
X169377403Y-123842605D01*
X169282367Y-123651746D01*
X169153872Y-123481593D01*
X169117481Y-123448418D01*
X168996302Y-123337948D01*
X168815019Y-123225702D01*
X168815017Y-123225701D01*
X168715608Y-123187190D01*
X168616198Y-123148679D01*
X168419385Y-123111888D01*
X168357106Y-123080221D01*
X168321833Y-123019908D01*
X168324767Y-122950100D01*
X168364976Y-122892960D01*
X168419384Y-122868111D01*
X168616198Y-122831321D01*
X168815019Y-122754298D01*
X168996302Y-122642052D01*
X169153872Y-122498407D01*
X169282366Y-122328255D01*
X169336270Y-122220000D01*
X169377403Y-122137394D01*
X169377403Y-122137393D01*
X169377405Y-122137389D01*
X169435756Y-121932310D01*
X169455429Y-121720000D01*
X169435756Y-121507690D01*
X169377405Y-121302611D01*
X169377403Y-121302606D01*
X169377403Y-121302605D01*
X169282367Y-121111746D01*
X169153872Y-120941593D01*
X168996302Y-120797948D01*
X168815019Y-120685702D01*
X168815017Y-120685701D01*
X168715608Y-120647190D01*
X168616198Y-120608679D01*
X168419385Y-120571888D01*
X168357106Y-120540221D01*
X168321833Y-120479908D01*
X168324767Y-120410100D01*
X168364976Y-120352960D01*
X168419384Y-120328111D01*
X168616198Y-120291321D01*
X168815019Y-120214298D01*
X168996302Y-120102052D01*
X169153872Y-119958407D01*
X169282366Y-119788255D01*
X169377405Y-119597389D01*
X169435756Y-119392310D01*
X169455429Y-119180000D01*
X169435756Y-118967690D01*
X169377405Y-118762611D01*
X169377403Y-118762606D01*
X169377403Y-118762605D01*
X169282367Y-118571746D01*
X169153872Y-118401593D01*
X168996302Y-118257948D01*
X168815019Y-118145702D01*
X168815017Y-118145701D01*
X168715608Y-118107190D01*
X168616198Y-118068679D01*
X168419385Y-118031888D01*
X168357106Y-118000221D01*
X168321833Y-117939908D01*
X168324767Y-117870100D01*
X168364976Y-117812960D01*
X168419384Y-117788111D01*
X168616198Y-117751321D01*
X168815019Y-117674298D01*
X168996302Y-117562052D01*
X169153872Y-117418407D01*
X169282366Y-117248255D01*
X169377405Y-117057389D01*
X169435756Y-116852310D01*
X169455429Y-116640000D01*
X169435756Y-116427690D01*
X169377405Y-116222611D01*
X169377403Y-116222606D01*
X169377403Y-116222605D01*
X169282367Y-116031746D01*
X169153872Y-115861593D01*
X169125641Y-115835857D01*
X168996302Y-115717948D01*
X168815019Y-115605702D01*
X168815017Y-115605701D01*
X168665697Y-115547855D01*
X168616198Y-115528679D01*
X168419385Y-115491888D01*
X168357106Y-115460221D01*
X168321833Y-115399908D01*
X168324767Y-115330100D01*
X168364976Y-115272960D01*
X168419384Y-115248111D01*
X168616198Y-115211321D01*
X168815019Y-115134298D01*
X168996302Y-115022052D01*
X169153872Y-114878407D01*
X169282366Y-114708255D01*
X169377405Y-114517389D01*
X169435756Y-114312310D01*
X169455429Y-114100000D01*
X169435756Y-113887690D01*
X169377405Y-113682611D01*
X169377403Y-113682606D01*
X169377403Y-113682605D01*
X169282367Y-113491746D01*
X169153872Y-113321593D01*
X168996302Y-113177948D01*
X168815019Y-113065702D01*
X168815017Y-113065701D01*
X168715608Y-113027190D01*
X168616198Y-112988679D01*
X168419385Y-112951888D01*
X168357106Y-112920221D01*
X168321833Y-112859908D01*
X168324767Y-112790100D01*
X168364976Y-112732960D01*
X168419384Y-112708111D01*
X168616198Y-112671321D01*
X168815019Y-112594298D01*
X168996302Y-112482052D01*
X169153872Y-112338407D01*
X169282366Y-112168255D01*
X169336773Y-112058990D01*
X169377403Y-111977394D01*
X169377403Y-111977393D01*
X169377405Y-111977389D01*
X169435756Y-111772310D01*
X169455429Y-111560000D01*
X169435756Y-111347690D01*
X169377405Y-111142611D01*
X169377403Y-111142606D01*
X169377403Y-111142605D01*
X169282367Y-110951746D01*
X169153872Y-110781593D01*
X168996302Y-110637948D01*
X168815019Y-110525702D01*
X168815017Y-110525701D01*
X168715608Y-110487190D01*
X168616198Y-110448679D01*
X168406610Y-110409500D01*
X168193390Y-110409500D01*
X167983802Y-110448679D01*
X167983799Y-110448679D01*
X167983799Y-110448680D01*
X167784982Y-110525701D01*
X167784980Y-110525702D01*
X167603699Y-110637947D01*
X167446127Y-110781593D01*
X167317632Y-110951746D01*
X167222596Y-111142605D01*
X167222596Y-111142607D01*
X167164244Y-111347689D01*
X167144571Y-111559999D01*
X167144571Y-111560000D01*
X167164244Y-111772310D01*
X167222596Y-111977392D01*
X167222596Y-111977394D01*
X167317632Y-112168253D01*
X167317634Y-112168255D01*
X167446128Y-112338407D01*
X167603698Y-112482052D01*
X167784981Y-112594298D01*
X167983802Y-112671321D01*
X168180613Y-112708111D01*
X168242893Y-112739779D01*
X168278166Y-112800092D01*
X168275232Y-112869900D01*
X168235023Y-112927040D01*
X168180613Y-112951888D01*
X167983802Y-112988679D01*
X167983799Y-112988679D01*
X167983799Y-112988680D01*
X167784982Y-113065701D01*
X167784980Y-113065702D01*
X167603699Y-113177947D01*
X167446127Y-113321593D01*
X167317632Y-113491746D01*
X167222596Y-113682605D01*
X167222596Y-113682607D01*
X167164244Y-113887689D01*
X167144571Y-114099999D01*
X167144571Y-114100000D01*
X167164244Y-114312310D01*
X167222596Y-114517392D01*
X167222596Y-114517394D01*
X167317632Y-114708253D01*
X167317634Y-114708255D01*
X167446128Y-114878407D01*
X167603698Y-115022052D01*
X167784981Y-115134298D01*
X167983802Y-115211321D01*
X168180613Y-115248111D01*
X168242893Y-115279779D01*
X168278166Y-115340092D01*
X168275232Y-115409900D01*
X168235023Y-115467040D01*
X168180613Y-115491888D01*
X167983802Y-115528679D01*
X167983799Y-115528679D01*
X167983799Y-115528680D01*
X167784982Y-115605701D01*
X167784980Y-115605702D01*
X167603699Y-115717947D01*
X167446127Y-115861593D01*
X167317632Y-116031746D01*
X167222596Y-116222605D01*
X167222596Y-116222607D01*
X167164244Y-116427689D01*
X167144571Y-116639999D01*
X167144571Y-116640000D01*
X167164244Y-116852310D01*
X167222596Y-117057392D01*
X167222596Y-117057394D01*
X167317632Y-117248253D01*
X167317634Y-117248255D01*
X167446128Y-117418407D01*
X167603698Y-117562052D01*
X167784981Y-117674298D01*
X167983802Y-117751321D01*
X168180613Y-117788111D01*
X168242893Y-117819779D01*
X168278166Y-117880092D01*
X168275232Y-117949900D01*
X168235023Y-118007040D01*
X168180613Y-118031888D01*
X167983802Y-118068679D01*
X167983799Y-118068679D01*
X167983799Y-118068680D01*
X167784982Y-118145701D01*
X167784980Y-118145702D01*
X167603699Y-118257947D01*
X167446127Y-118401593D01*
X167317632Y-118571746D01*
X167222596Y-118762605D01*
X167222596Y-118762607D01*
X167164244Y-118967689D01*
X167144571Y-119179999D01*
X167144571Y-119180000D01*
X167164244Y-119392310D01*
X167222596Y-119597392D01*
X167222596Y-119597394D01*
X167317632Y-119788253D01*
X167317634Y-119788255D01*
X167446128Y-119958407D01*
X167603698Y-120102052D01*
X167784981Y-120214298D01*
X167983802Y-120291321D01*
X168180613Y-120328111D01*
X168242893Y-120359779D01*
X168278166Y-120420092D01*
X168275232Y-120489900D01*
X168235023Y-120547040D01*
X168180613Y-120571888D01*
X167983802Y-120608679D01*
X167983799Y-120608679D01*
X167983799Y-120608680D01*
X167784982Y-120685701D01*
X167784980Y-120685702D01*
X167603699Y-120797947D01*
X167446127Y-120941593D01*
X167317632Y-121111746D01*
X167222596Y-121302605D01*
X167222596Y-121302607D01*
X167164244Y-121507689D01*
X167144571Y-121719999D01*
X167144571Y-121720000D01*
X167164244Y-121932310D01*
X167222596Y-122137392D01*
X167222596Y-122137394D01*
X167317632Y-122328253D01*
X167446127Y-122498406D01*
X167446128Y-122498407D01*
X167603698Y-122642052D01*
X167784981Y-122754298D01*
X167983802Y-122831321D01*
X168180613Y-122868111D01*
X168242893Y-122899779D01*
X168278166Y-122960092D01*
X168275232Y-123029900D01*
X168235023Y-123087040D01*
X168180613Y-123111888D01*
X167983802Y-123148679D01*
X167983799Y-123148679D01*
X167983799Y-123148680D01*
X167784982Y-123225701D01*
X167784980Y-123225702D01*
X167603699Y-123337947D01*
X167446127Y-123481593D01*
X167317632Y-123651746D01*
X167222596Y-123842605D01*
X167222596Y-123842607D01*
X167164244Y-124047689D01*
X167144571Y-124259999D01*
X167144571Y-124260000D01*
X167164244Y-124472310D01*
X167222596Y-124677392D01*
X167222596Y-124677394D01*
X167317632Y-124868253D01*
X167317634Y-124868255D01*
X167446128Y-125038407D01*
X167603698Y-125182052D01*
X167784981Y-125294298D01*
X167983802Y-125371321D01*
X168180613Y-125408111D01*
X168242893Y-125439779D01*
X168278166Y-125500092D01*
X168275232Y-125569900D01*
X168235023Y-125627040D01*
X168180613Y-125651888D01*
X167983802Y-125688679D01*
X167983799Y-125688679D01*
X167983799Y-125688680D01*
X167784982Y-125765701D01*
X167784980Y-125765702D01*
X167603699Y-125877947D01*
X167446127Y-126021593D01*
X167317632Y-126191746D01*
X167222596Y-126382605D01*
X167222596Y-126382607D01*
X167164244Y-126587689D01*
X167144571Y-126799999D01*
X167144571Y-126800000D01*
X167164244Y-127012310D01*
X167222596Y-127217392D01*
X167222596Y-127217394D01*
X167317632Y-127408253D01*
X167317634Y-127408255D01*
X167446128Y-127578407D01*
X167603698Y-127722052D01*
X167784981Y-127834298D01*
X167983802Y-127911321D01*
X168180613Y-127948111D01*
X168242893Y-127979779D01*
X168278166Y-128040092D01*
X168275232Y-128109900D01*
X168235023Y-128167040D01*
X168180613Y-128191888D01*
X167983802Y-128228679D01*
X167983799Y-128228679D01*
X167983799Y-128228680D01*
X167784982Y-128305701D01*
X167784980Y-128305702D01*
X167603699Y-128417947D01*
X167446127Y-128561593D01*
X167317632Y-128731746D01*
X167222596Y-128922605D01*
X167222596Y-128922607D01*
X167164244Y-129127689D01*
X167144571Y-129339999D01*
X167144571Y-129340000D01*
X167164244Y-129552310D01*
X167222596Y-129757392D01*
X167222596Y-129757394D01*
X167317632Y-129948253D01*
X167317634Y-129948255D01*
X167446128Y-130118407D01*
X167603698Y-130262052D01*
X167784981Y-130374298D01*
X167983802Y-130451321D01*
X168180613Y-130488111D01*
X168242893Y-130519779D01*
X168278166Y-130580092D01*
X168275232Y-130649900D01*
X168235023Y-130707040D01*
X168180613Y-130731888D01*
X167983802Y-130768679D01*
X167983799Y-130768679D01*
X167983799Y-130768680D01*
X167784982Y-130845701D01*
X167784980Y-130845702D01*
X167603699Y-130957947D01*
X167446127Y-131101593D01*
X167317632Y-131271746D01*
X167222596Y-131462605D01*
X167222596Y-131462607D01*
X167164244Y-131667689D01*
X167144571Y-131879999D01*
X167144571Y-131880000D01*
X167164244Y-132092310D01*
X167222596Y-132297392D01*
X167222596Y-132297394D01*
X167317632Y-132488253D01*
X167446127Y-132658406D01*
X167446128Y-132658407D01*
X167603698Y-132802052D01*
X167603700Y-132802053D01*
X167603701Y-132802054D01*
X167665911Y-132840573D01*
X167712547Y-132892601D01*
X167723651Y-132961582D01*
X167695698Y-133025617D01*
X167637563Y-133064373D01*
X167600634Y-133070000D01*
X167402155Y-133070000D01*
X167342627Y-133076401D01*
X167342620Y-133076403D01*
X167207913Y-133126645D01*
X167207906Y-133126649D01*
X167092812Y-133212809D01*
X167092809Y-133212812D01*
X167006649Y-133327906D01*
X167006645Y-133327913D01*
X166956403Y-133462620D01*
X166956401Y-133462627D01*
X166950000Y-133522155D01*
X166950000Y-134170000D01*
X167686653Y-134170000D01*
X167753692Y-134189685D01*
X167799447Y-134242489D01*
X167809391Y-134311647D01*
X167805631Y-134328933D01*
X167800000Y-134348111D01*
X167800000Y-134491888D01*
X167805631Y-134511067D01*
X167805630Y-134580936D01*
X167767855Y-134639714D01*
X167704299Y-134668738D01*
X167686653Y-134670000D01*
X166950000Y-134670000D01*
X166950000Y-135317844D01*
X154210154Y-135317844D01*
X154210500Y-135314865D01*
X154210499Y-133525136D01*
X154210425Y-133524498D01*
X154207586Y-133500012D01*
X154207585Y-133500010D01*
X154207585Y-133500009D01*
X154162206Y-133397235D01*
X154082765Y-133317794D01*
X154082765Y-133317793D01*
X153979992Y-133272415D01*
X153954868Y-133269500D01*
X153226243Y-133269500D01*
X153159204Y-133249815D01*
X153113449Y-133197011D01*
X153103505Y-133127853D01*
X153132530Y-133064297D01*
X153191308Y-133026523D01*
X153203441Y-133023614D01*
X153376198Y-132991321D01*
X153575019Y-132914298D01*
X153756302Y-132802052D01*
X153913872Y-132658407D01*
X154042366Y-132488255D01*
X154078303Y-132416083D01*
X154137403Y-132297394D01*
X154137403Y-132297393D01*
X154137405Y-132297389D01*
X154195756Y-132092310D01*
X154215429Y-131880000D01*
X154215132Y-131876800D01*
X155808722Y-131876800D01*
X155827762Y-132033618D01*
X155883780Y-132181323D01*
X155973517Y-132311330D01*
X156091760Y-132416083D01*
X156091762Y-132416084D01*
X156231634Y-132489496D01*
X156385014Y-132527300D01*
X156385015Y-132527300D01*
X156542985Y-132527300D01*
X156696365Y-132489496D01*
X156698733Y-132488253D01*
X156836240Y-132416083D01*
X156954483Y-132311330D01*
X157044220Y-132181323D01*
X157100237Y-132033618D01*
X157119278Y-131876800D01*
X157100237Y-131719982D01*
X157073696Y-131650000D01*
X158044722Y-131650000D01*
X158063762Y-131806818D01*
X158091517Y-131880000D01*
X158119780Y-131954523D01*
X158209517Y-132084530D01*
X158327760Y-132189283D01*
X158327762Y-132189284D01*
X158467634Y-132262696D01*
X158621014Y-132300500D01*
X158621015Y-132300500D01*
X158778985Y-132300500D01*
X158932365Y-132262696D01*
X158932364Y-132262696D01*
X159072240Y-132189283D01*
X159190483Y-132084530D01*
X159280220Y-131954523D01*
X159336237Y-131806818D01*
X159355278Y-131650000D01*
X159336237Y-131493182D01*
X159335250Y-131490580D01*
X159314992Y-131437163D01*
X159280220Y-131345477D01*
X159190483Y-131215470D01*
X159190479Y-131215466D01*
X159185509Y-131209856D01*
X159186953Y-131208576D01*
X159155145Y-131157860D01*
X159150500Y-131124240D01*
X159150500Y-121375759D01*
X159170185Y-121308720D01*
X159185846Y-121290444D01*
X159185509Y-121290145D01*
X159190481Y-121284532D01*
X159190481Y-121284531D01*
X159190483Y-121284530D01*
X159280220Y-121154523D01*
X159336237Y-121006818D01*
X159355278Y-120850000D01*
X159336237Y-120693182D01*
X159333400Y-120685702D01*
X159314992Y-120637164D01*
X159280220Y-120545477D01*
X159190483Y-120415470D01*
X159072240Y-120310717D01*
X159072238Y-120310716D01*
X159072237Y-120310715D01*
X158932365Y-120237303D01*
X158778986Y-120199500D01*
X158778985Y-120199500D01*
X158621015Y-120199500D01*
X158621014Y-120199500D01*
X158467634Y-120237303D01*
X158327762Y-120310715D01*
X158209516Y-120415471D01*
X158119781Y-120545475D01*
X158119780Y-120545476D01*
X158063762Y-120693181D01*
X158044722Y-120849999D01*
X158044722Y-120850000D01*
X158063762Y-121006818D01*
X158119780Y-121154523D01*
X158119781Y-121154524D01*
X158209518Y-121284532D01*
X158214491Y-121290145D01*
X158213044Y-121291426D01*
X158244850Y-121342120D01*
X158249500Y-121375759D01*
X158249500Y-131124240D01*
X158229815Y-131191279D01*
X158214153Y-131209556D01*
X158214491Y-131209856D01*
X158209515Y-131215472D01*
X158119781Y-131345475D01*
X158119780Y-131345476D01*
X158063762Y-131493181D01*
X158044722Y-131649999D01*
X158044722Y-131650000D01*
X157073696Y-131650000D01*
X157044220Y-131572277D01*
X157036448Y-131561017D01*
X157014567Y-131494662D01*
X157014500Y-131490580D01*
X157014500Y-123751416D01*
X157034185Y-123684377D01*
X157036450Y-123680976D01*
X157095019Y-123596124D01*
X157095020Y-123596123D01*
X157151037Y-123448418D01*
X157170078Y-123291600D01*
X157162077Y-123225701D01*
X157151037Y-123134781D01*
X157129792Y-123078764D01*
X157095020Y-122987077D01*
X157005283Y-122857070D01*
X156887040Y-122752317D01*
X156887038Y-122752316D01*
X156887037Y-122752315D01*
X156747165Y-122678903D01*
X156593786Y-122641100D01*
X156593785Y-122641100D01*
X156435815Y-122641100D01*
X156435814Y-122641100D01*
X156282434Y-122678903D01*
X156142562Y-122752315D01*
X156024316Y-122857071D01*
X155934581Y-122987075D01*
X155934580Y-122987076D01*
X155878562Y-123134781D01*
X155859522Y-123291599D01*
X155859522Y-123291600D01*
X155878562Y-123448418D01*
X155905442Y-123519292D01*
X155913500Y-123563263D01*
X155913500Y-131490580D01*
X155893815Y-131557619D01*
X155891552Y-131561017D01*
X155883780Y-131572276D01*
X155827762Y-131719981D01*
X155808722Y-131876799D01*
X155808722Y-131876800D01*
X154215132Y-131876800D01*
X154200601Y-131719981D01*
X154195756Y-131667690D01*
X154137405Y-131462611D01*
X154137403Y-131462606D01*
X154137403Y-131462605D01*
X154042367Y-131271746D01*
X153913872Y-131101593D01*
X153756302Y-130957948D01*
X153575019Y-130845702D01*
X153575017Y-130845701D01*
X153475608Y-130807190D01*
X153376198Y-130768679D01*
X153179385Y-130731888D01*
X153117106Y-130700221D01*
X153081833Y-130639908D01*
X153084767Y-130570100D01*
X153124976Y-130512960D01*
X153179384Y-130488111D01*
X153376198Y-130451321D01*
X153575019Y-130374298D01*
X153756302Y-130262052D01*
X153913872Y-130118407D01*
X154042366Y-129948255D01*
X154137405Y-129757389D01*
X154195756Y-129552310D01*
X154215429Y-129340000D01*
X154195756Y-129127690D01*
X154137405Y-128922611D01*
X154137403Y-128922606D01*
X154137403Y-128922605D01*
X154042367Y-128731746D01*
X153913872Y-128561593D01*
X153756302Y-128417948D01*
X153575019Y-128305702D01*
X153575017Y-128305701D01*
X153475608Y-128267190D01*
X153376198Y-128228679D01*
X153179385Y-128191888D01*
X153117106Y-128160221D01*
X153081833Y-128099908D01*
X153084767Y-128030100D01*
X153124976Y-127972960D01*
X153179384Y-127948111D01*
X153376198Y-127911321D01*
X153575019Y-127834298D01*
X153756302Y-127722052D01*
X153913872Y-127578407D01*
X154042366Y-127408255D01*
X154137405Y-127217389D01*
X154195756Y-127012310D01*
X154215429Y-126800000D01*
X154195756Y-126587690D01*
X154137405Y-126382611D01*
X154137403Y-126382606D01*
X154137403Y-126382605D01*
X154042367Y-126191746D01*
X153913872Y-126021593D01*
X153756302Y-125877948D01*
X153575019Y-125765702D01*
X153575017Y-125765701D01*
X153475608Y-125727190D01*
X153376198Y-125688679D01*
X153179385Y-125651888D01*
X153117106Y-125620221D01*
X153081833Y-125559908D01*
X153084767Y-125490100D01*
X153124976Y-125432960D01*
X153179384Y-125408111D01*
X153376198Y-125371321D01*
X153575019Y-125294298D01*
X153756302Y-125182052D01*
X153913872Y-125038407D01*
X154042366Y-124868255D01*
X154137405Y-124677389D01*
X154195756Y-124472310D01*
X154215429Y-124260000D01*
X154195756Y-124047690D01*
X154137405Y-123842611D01*
X154137403Y-123842606D01*
X154137403Y-123842605D01*
X154042367Y-123651746D01*
X153913872Y-123481593D01*
X153877481Y-123448418D01*
X153756302Y-123337948D01*
X153575019Y-123225702D01*
X153575014Y-123225700D01*
X153568129Y-123223032D01*
X153546037Y-123214474D01*
X153490636Y-123171903D01*
X153467045Y-123106136D01*
X153482756Y-123038056D01*
X153532779Y-122989276D01*
X153538426Y-122986466D01*
X153737578Y-122893599D01*
X153931082Y-122758105D01*
X154098105Y-122591082D01*
X154233600Y-122397578D01*
X154333429Y-122183492D01*
X154333432Y-122183486D01*
X154390636Y-121970000D01*
X153673347Y-121970000D01*
X153606308Y-121950315D01*
X153560553Y-121897511D01*
X153550609Y-121828353D01*
X153554369Y-121811067D01*
X153560000Y-121791888D01*
X153560000Y-121648111D01*
X153554369Y-121628933D01*
X153554370Y-121559064D01*
X153592145Y-121500286D01*
X153655701Y-121471262D01*
X153673347Y-121470000D01*
X154390636Y-121470000D01*
X154390635Y-121469999D01*
X154333432Y-121256513D01*
X154333429Y-121256507D01*
X154233600Y-121042422D01*
X154233599Y-121042420D01*
X154098113Y-120848926D01*
X154098108Y-120848920D01*
X153931082Y-120681894D01*
X153737578Y-120546399D01*
X153538426Y-120453533D01*
X153485987Y-120407360D01*
X153466835Y-120340167D01*
X153487051Y-120273286D01*
X153540216Y-120227951D01*
X153546005Y-120225537D01*
X153575019Y-120214298D01*
X153756302Y-120102052D01*
X153913872Y-119958407D01*
X154042366Y-119788255D01*
X154137405Y-119597389D01*
X154195756Y-119392310D01*
X154215429Y-119180000D01*
X154195756Y-118967690D01*
X154137405Y-118762611D01*
X154137403Y-118762606D01*
X154137403Y-118762605D01*
X154042367Y-118571746D01*
X153913872Y-118401593D01*
X153756302Y-118257948D01*
X153575019Y-118145702D01*
X153575017Y-118145701D01*
X153475608Y-118107190D01*
X153376198Y-118068679D01*
X153179385Y-118031888D01*
X153117106Y-118000221D01*
X153081833Y-117939908D01*
X153084767Y-117870100D01*
X153124976Y-117812960D01*
X153179384Y-117788111D01*
X153376198Y-117751321D01*
X153575019Y-117674298D01*
X153756302Y-117562052D01*
X153913872Y-117418407D01*
X154042366Y-117248255D01*
X154137405Y-117057389D01*
X154195756Y-116852310D01*
X154215429Y-116640000D01*
X154195756Y-116427690D01*
X154137405Y-116222611D01*
X154137403Y-116222606D01*
X154137403Y-116222605D01*
X154042367Y-116031746D01*
X153913872Y-115861593D01*
X153885641Y-115835857D01*
X153756302Y-115717948D01*
X153575019Y-115605702D01*
X153575017Y-115605701D01*
X153425697Y-115547855D01*
X153376198Y-115528679D01*
X153179385Y-115491888D01*
X153117106Y-115460221D01*
X153081833Y-115399908D01*
X153084767Y-115330100D01*
X153124976Y-115272960D01*
X153179384Y-115248111D01*
X153376198Y-115211321D01*
X153575019Y-115134298D01*
X153756302Y-115022052D01*
X153913872Y-114878407D01*
X154042366Y-114708255D01*
X154137405Y-114517389D01*
X154195756Y-114312310D01*
X154215429Y-114100000D01*
X154195756Y-113887690D01*
X154137405Y-113682611D01*
X154137403Y-113682606D01*
X154137403Y-113682605D01*
X154042367Y-113491746D01*
X153913872Y-113321593D01*
X153756302Y-113177948D01*
X153575019Y-113065702D01*
X153575017Y-113065701D01*
X153475608Y-113027190D01*
X153376198Y-112988679D01*
X153179385Y-112951888D01*
X153117106Y-112920221D01*
X153081833Y-112859908D01*
X153084767Y-112790100D01*
X153124976Y-112732960D01*
X153179384Y-112708111D01*
X153376198Y-112671321D01*
X153575019Y-112594298D01*
X153756302Y-112482052D01*
X153913872Y-112338407D01*
X154042366Y-112168255D01*
X154096773Y-112058990D01*
X154137403Y-111977394D01*
X154137403Y-111977393D01*
X154137405Y-111977389D01*
X154195756Y-111772310D01*
X154215429Y-111560000D01*
X154195756Y-111347690D01*
X154137405Y-111142611D01*
X154137403Y-111142606D01*
X154137403Y-111142605D01*
X154042367Y-110951746D01*
X153913872Y-110781593D01*
X153756302Y-110637948D01*
X153575019Y-110525702D01*
X153575017Y-110525701D01*
X153475608Y-110487190D01*
X153376198Y-110448679D01*
X153166610Y-110409500D01*
X152953390Y-110409500D01*
X152743802Y-110448679D01*
X152743799Y-110448679D01*
X152743799Y-110448680D01*
X152544982Y-110525701D01*
X152544980Y-110525702D01*
X152363699Y-110637947D01*
X152206127Y-110781593D01*
X152077632Y-110951746D01*
X151982596Y-111142605D01*
X151982596Y-111142607D01*
X151924244Y-111347689D01*
X151904571Y-111559999D01*
X151904571Y-111560000D01*
X151924244Y-111772310D01*
X151982596Y-111977392D01*
X151982596Y-111977394D01*
X152077632Y-112168253D01*
X152077634Y-112168255D01*
X152206128Y-112338407D01*
X152363698Y-112482052D01*
X152544981Y-112594298D01*
X152743802Y-112671321D01*
X152940613Y-112708111D01*
X153002893Y-112739779D01*
X153038166Y-112800092D01*
X153035232Y-112869900D01*
X152995023Y-112927040D01*
X152940613Y-112951888D01*
X152743802Y-112988679D01*
X152743799Y-112988679D01*
X152743799Y-112988680D01*
X152544982Y-113065701D01*
X152544980Y-113065702D01*
X152363699Y-113177947D01*
X152206127Y-113321593D01*
X152077632Y-113491746D01*
X151982596Y-113682605D01*
X151982596Y-113682607D01*
X151924244Y-113887689D01*
X151904571Y-114099999D01*
X151904571Y-114100000D01*
X151924244Y-114312310D01*
X151982596Y-114517392D01*
X151982596Y-114517394D01*
X152077632Y-114708253D01*
X152077634Y-114708255D01*
X152206128Y-114878407D01*
X152363698Y-115022052D01*
X152544981Y-115134298D01*
X152743802Y-115211321D01*
X152940613Y-115248111D01*
X153002893Y-115279779D01*
X153038166Y-115340092D01*
X153035232Y-115409900D01*
X152995023Y-115467040D01*
X152940613Y-115491888D01*
X152743802Y-115528679D01*
X152743799Y-115528679D01*
X152743799Y-115528680D01*
X152544982Y-115605701D01*
X152544980Y-115605702D01*
X152363699Y-115717947D01*
X152206127Y-115861593D01*
X152077632Y-116031746D01*
X151982596Y-116222605D01*
X151982596Y-116222607D01*
X151924244Y-116427689D01*
X151904571Y-116639999D01*
X151904571Y-116640000D01*
X151924244Y-116852310D01*
X151982596Y-117057392D01*
X151982596Y-117057394D01*
X152077632Y-117248253D01*
X152077634Y-117248255D01*
X152206128Y-117418407D01*
X152363698Y-117562052D01*
X152544981Y-117674298D01*
X152743802Y-117751321D01*
X152940613Y-117788111D01*
X153002893Y-117819779D01*
X153038166Y-117880092D01*
X153035232Y-117949900D01*
X152995023Y-118007040D01*
X152940613Y-118031888D01*
X152743802Y-118068679D01*
X152743799Y-118068679D01*
X152743799Y-118068680D01*
X152544982Y-118145701D01*
X152544980Y-118145702D01*
X152363699Y-118257947D01*
X152206127Y-118401593D01*
X152077632Y-118571746D01*
X151982596Y-118762605D01*
X151982596Y-118762607D01*
X151924244Y-118967689D01*
X151904571Y-119179999D01*
X151904571Y-119180000D01*
X151924244Y-119392310D01*
X151982596Y-119597392D01*
X151982596Y-119597394D01*
X152077632Y-119788253D01*
X152077634Y-119788255D01*
X152206128Y-119958407D01*
X152363698Y-120102052D01*
X152544981Y-120214298D01*
X152573961Y-120225525D01*
X152629362Y-120268095D01*
X152652954Y-120333861D01*
X152637244Y-120401942D01*
X152587222Y-120450722D01*
X152581573Y-120453533D01*
X152382422Y-120546399D01*
X152382420Y-120546400D01*
X152188926Y-120681886D01*
X152188920Y-120681891D01*
X152021891Y-120848920D01*
X152021886Y-120848926D01*
X151886400Y-121042420D01*
X151886399Y-121042422D01*
X151786570Y-121256507D01*
X151786567Y-121256513D01*
X151729364Y-121469999D01*
X151729364Y-121470000D01*
X152446653Y-121470000D01*
X152513692Y-121489685D01*
X152559447Y-121542489D01*
X152569391Y-121611647D01*
X152565631Y-121628933D01*
X152560000Y-121648111D01*
X152560000Y-121791888D01*
X152565631Y-121811067D01*
X152565630Y-121880936D01*
X152527855Y-121939714D01*
X152464299Y-121968738D01*
X152446653Y-121970000D01*
X151729364Y-121970000D01*
X94280500Y-121970000D01*
X94280500Y-112750000D01*
X115194615Y-112750000D01*
X115214140Y-113097688D01*
X115214142Y-113097700D01*
X115227776Y-113177947D01*
X115272473Y-113441013D01*
X115368879Y-113775644D01*
X115502145Y-114097376D01*
X115670595Y-114402164D01*
X115872112Y-114686176D01*
X116104161Y-114945839D01*
X116363824Y-115177888D01*
X116647836Y-115379405D01*
X116952624Y-115547855D01*
X117274356Y-115681121D01*
X117608987Y-115777527D01*
X117952307Y-115835859D01*
X118300000Y-115855385D01*
X118647693Y-115835859D01*
X118991013Y-115777527D01*
X119325644Y-115681121D01*
X119647376Y-115547855D01*
X119952164Y-115379405D01*
X120236176Y-115177888D01*
X120495839Y-114945839D01*
X120727888Y-114686176D01*
X120929405Y-114402164D01*
X121097855Y-114097376D01*
X121231121Y-113775644D01*
X121327527Y-113441013D01*
X121385859Y-113097693D01*
X121405385Y-112750000D01*
X121385859Y-112402307D01*
X121327527Y-112058987D01*
X121231121Y-111724356D01*
X121097855Y-111402624D01*
X120929405Y-111097836D01*
X120727888Y-110813824D01*
X120495839Y-110554161D01*
X120236176Y-110322112D01*
X119952164Y-110120595D01*
X119647376Y-109952145D01*
X119325644Y-109818879D01*
X119158328Y-109770675D01*
X118991017Y-109722474D01*
X118991009Y-109722472D01*
X118647700Y-109664142D01*
X118647688Y-109664140D01*
X118300000Y-109644615D01*
X117952311Y-109664140D01*
X117952299Y-109664142D01*
X117608990Y-109722472D01*
X117608982Y-109722474D01*
X117274359Y-109818878D01*
X117274356Y-109818879D01*
X117180124Y-109857911D01*
X116952625Y-109952144D01*
X116647835Y-110120595D01*
X116363823Y-110322113D01*
X116104161Y-110554161D01*
X115872113Y-110813823D01*
X115670595Y-111097835D01*
X115502144Y-111402625D01*
X115368878Y-111724359D01*
X115272474Y-112058982D01*
X115272472Y-112058990D01*
X115214142Y-112402299D01*
X115214140Y-112402311D01*
X115194615Y-112750000D01*
X94280500Y-112750000D01*
X94280500Y-106681877D01*
X94280613Y-106678133D01*
X94296601Y-106413804D01*
X94297505Y-106406365D01*
X94344901Y-106147739D01*
X94346691Y-106140473D01*
X94424918Y-105889432D01*
X94427569Y-105882445D01*
X94441873Y-105850660D01*
X94535486Y-105642662D01*
X94538956Y-105636049D01*
X94674993Y-105411019D01*
X94679236Y-105404872D01*
X94841406Y-105197877D01*
X94846350Y-105192296D01*
X95032296Y-105006350D01*
X95037877Y-105001406D01*
X95244872Y-104839236D01*
X95251019Y-104834993D01*
X95476049Y-104698956D01*
X95482662Y-104695486D01*
X95722443Y-104587569D01*
X95729432Y-104584918D01*
X95980473Y-104506691D01*
X95987739Y-104504901D01*
X96246365Y-104457505D01*
X96253797Y-104456601D01*
X96454717Y-104444448D01*
X96518134Y-104440613D01*
X96521878Y-104440500D01*
X96567595Y-104440500D01*
X170132405Y-104440500D01*
X170178122Y-104440500D01*
X170181866Y-104440613D01*
G37*
%TD.AperFunction*%
%TD*%
M02*
