%TF.GenerationSoftware,KiCad,Pcbnew,7.0.7*%
%TF.CreationDate,2023-09-24T09:01:41+02:00*%
%TF.ProjectId,transmitter_v0.1,7472616e-736d-4697-9474-65725f76302e,rev?*%
%TF.SameCoordinates,Original*%
%TF.FileFunction,Legend,Top*%
%TF.FilePolarity,Positive*%
%FSLAX46Y46*%
G04 Gerber Fmt 4.6, Leading zero omitted, Abs format (unit mm)*
G04 Created by KiCad (PCBNEW 7.0.7) date 2023-09-24 09:01:41*
%MOMM*%
%LPD*%
G01*
G04 APERTURE LIST*
%ADD10C,0.087500*%
%ADD11C,0.150000*%
%ADD12C,0.200000*%
%ADD13C,0.120000*%
G04 APERTURE END LIST*
D10*
X143285768Y-144730483D02*
X142752435Y-144730483D01*
X142949916Y-142422168D02*
X142949916Y-141888835D01*
X143216583Y-142155501D02*
X142683250Y-142155501D01*
X148391916Y-145255901D02*
X148358583Y-145322568D01*
X148358583Y-145322568D02*
X148358583Y-145422568D01*
X148358583Y-145422568D02*
X148391916Y-145522568D01*
X148391916Y-145522568D02*
X148458583Y-145589235D01*
X148458583Y-145589235D02*
X148525250Y-145622568D01*
X148525250Y-145622568D02*
X148658583Y-145655901D01*
X148658583Y-145655901D02*
X148758583Y-145655901D01*
X148758583Y-145655901D02*
X148891916Y-145622568D01*
X148891916Y-145622568D02*
X148958583Y-145589235D01*
X148958583Y-145589235D02*
X149025250Y-145522568D01*
X149025250Y-145522568D02*
X149058583Y-145422568D01*
X149058583Y-145422568D02*
X149058583Y-145355901D01*
X149058583Y-145355901D02*
X149025250Y-145255901D01*
X149025250Y-145255901D02*
X148991916Y-145222568D01*
X148991916Y-145222568D02*
X148758583Y-145222568D01*
X148758583Y-145222568D02*
X148758583Y-145355901D01*
X149058583Y-144922568D02*
X148358583Y-144922568D01*
X148358583Y-144922568D02*
X149058583Y-144522568D01*
X149058583Y-144522568D02*
X148358583Y-144522568D01*
X149058583Y-144189235D02*
X148358583Y-144189235D01*
X148358583Y-144189235D02*
X148358583Y-144022568D01*
X148358583Y-144022568D02*
X148391916Y-143922568D01*
X148391916Y-143922568D02*
X148458583Y-143855902D01*
X148458583Y-143855902D02*
X148525250Y-143822568D01*
X148525250Y-143822568D02*
X148658583Y-143789235D01*
X148658583Y-143789235D02*
X148758583Y-143789235D01*
X148758583Y-143789235D02*
X148891916Y-143822568D01*
X148891916Y-143822568D02*
X148958583Y-143855902D01*
X148958583Y-143855902D02*
X149025250Y-143922568D01*
X149025250Y-143922568D02*
X149058583Y-144022568D01*
X149058583Y-144022568D02*
X149058583Y-144189235D01*
D11*
X139325579Y-147799419D02*
X139325579Y-146799419D01*
X139325579Y-146799419D02*
X139706531Y-146799419D01*
X139706531Y-146799419D02*
X139801769Y-146847038D01*
X139801769Y-146847038D02*
X139849388Y-146894657D01*
X139849388Y-146894657D02*
X139897007Y-146989895D01*
X139897007Y-146989895D02*
X139897007Y-147132752D01*
X139897007Y-147132752D02*
X139849388Y-147227990D01*
X139849388Y-147227990D02*
X139801769Y-147275609D01*
X139801769Y-147275609D02*
X139706531Y-147323228D01*
X139706531Y-147323228D02*
X139325579Y-147323228D01*
X140468436Y-147799419D02*
X140373198Y-147751800D01*
X140373198Y-147751800D02*
X140325579Y-147704180D01*
X140325579Y-147704180D02*
X140277960Y-147608942D01*
X140277960Y-147608942D02*
X140277960Y-147323228D01*
X140277960Y-147323228D02*
X140325579Y-147227990D01*
X140325579Y-147227990D02*
X140373198Y-147180371D01*
X140373198Y-147180371D02*
X140468436Y-147132752D01*
X140468436Y-147132752D02*
X140611293Y-147132752D01*
X140611293Y-147132752D02*
X140706531Y-147180371D01*
X140706531Y-147180371D02*
X140754150Y-147227990D01*
X140754150Y-147227990D02*
X140801769Y-147323228D01*
X140801769Y-147323228D02*
X140801769Y-147608942D01*
X140801769Y-147608942D02*
X140754150Y-147704180D01*
X140754150Y-147704180D02*
X140706531Y-147751800D01*
X140706531Y-147751800D02*
X140611293Y-147799419D01*
X140611293Y-147799419D02*
X140468436Y-147799419D01*
X141135103Y-147132752D02*
X141325579Y-147799419D01*
X141325579Y-147799419D02*
X141516055Y-147323228D01*
X141516055Y-147323228D02*
X141706531Y-147799419D01*
X141706531Y-147799419D02*
X141897007Y-147132752D01*
X142658912Y-147751800D02*
X142563674Y-147799419D01*
X142563674Y-147799419D02*
X142373198Y-147799419D01*
X142373198Y-147799419D02*
X142277960Y-147751800D01*
X142277960Y-147751800D02*
X142230341Y-147656561D01*
X142230341Y-147656561D02*
X142230341Y-147275609D01*
X142230341Y-147275609D02*
X142277960Y-147180371D01*
X142277960Y-147180371D02*
X142373198Y-147132752D01*
X142373198Y-147132752D02*
X142563674Y-147132752D01*
X142563674Y-147132752D02*
X142658912Y-147180371D01*
X142658912Y-147180371D02*
X142706531Y-147275609D01*
X142706531Y-147275609D02*
X142706531Y-147370847D01*
X142706531Y-147370847D02*
X142230341Y-147466085D01*
X143135103Y-147799419D02*
X143135103Y-147132752D01*
X143135103Y-147323228D02*
X143182722Y-147227990D01*
X143182722Y-147227990D02*
X143230341Y-147180371D01*
X143230341Y-147180371D02*
X143325579Y-147132752D01*
X143325579Y-147132752D02*
X143420817Y-147132752D01*
X144761179Y-147799419D02*
X144761179Y-146799419D01*
X144761179Y-146799419D02*
X144999274Y-146799419D01*
X144999274Y-146799419D02*
X145142131Y-146847038D01*
X145142131Y-146847038D02*
X145237369Y-146942276D01*
X145237369Y-146942276D02*
X145284988Y-147037514D01*
X145284988Y-147037514D02*
X145332607Y-147227990D01*
X145332607Y-147227990D02*
X145332607Y-147370847D01*
X145332607Y-147370847D02*
X145284988Y-147561323D01*
X145284988Y-147561323D02*
X145237369Y-147656561D01*
X145237369Y-147656561D02*
X145142131Y-147751800D01*
X145142131Y-147751800D02*
X144999274Y-147799419D01*
X144999274Y-147799419D02*
X144761179Y-147799419D01*
X146142131Y-147751800D02*
X146046893Y-147799419D01*
X146046893Y-147799419D02*
X145856417Y-147799419D01*
X145856417Y-147799419D02*
X145761179Y-147751800D01*
X145761179Y-147751800D02*
X145713560Y-147656561D01*
X145713560Y-147656561D02*
X145713560Y-147275609D01*
X145713560Y-147275609D02*
X145761179Y-147180371D01*
X145761179Y-147180371D02*
X145856417Y-147132752D01*
X145856417Y-147132752D02*
X146046893Y-147132752D01*
X146046893Y-147132752D02*
X146142131Y-147180371D01*
X146142131Y-147180371D02*
X146189750Y-147275609D01*
X146189750Y-147275609D02*
X146189750Y-147370847D01*
X146189750Y-147370847D02*
X145713560Y-147466085D01*
X146618322Y-147799419D02*
X146618322Y-146799419D01*
X146618322Y-147180371D02*
X146713560Y-147132752D01*
X146713560Y-147132752D02*
X146904036Y-147132752D01*
X146904036Y-147132752D02*
X146999274Y-147180371D01*
X146999274Y-147180371D02*
X147046893Y-147227990D01*
X147046893Y-147227990D02*
X147094512Y-147323228D01*
X147094512Y-147323228D02*
X147094512Y-147608942D01*
X147094512Y-147608942D02*
X147046893Y-147704180D01*
X147046893Y-147704180D02*
X146999274Y-147751800D01*
X146999274Y-147751800D02*
X146904036Y-147799419D01*
X146904036Y-147799419D02*
X146713560Y-147799419D01*
X146713560Y-147799419D02*
X146618322Y-147751800D01*
X147951655Y-147132752D02*
X147951655Y-147799419D01*
X147523084Y-147132752D02*
X147523084Y-147656561D01*
X147523084Y-147656561D02*
X147570703Y-147751800D01*
X147570703Y-147751800D02*
X147665941Y-147799419D01*
X147665941Y-147799419D02*
X147808798Y-147799419D01*
X147808798Y-147799419D02*
X147904036Y-147751800D01*
X147904036Y-147751800D02*
X147951655Y-147704180D01*
X148856417Y-147132752D02*
X148856417Y-147942276D01*
X148856417Y-147942276D02*
X148808798Y-148037514D01*
X148808798Y-148037514D02*
X148761179Y-148085133D01*
X148761179Y-148085133D02*
X148665941Y-148132752D01*
X148665941Y-148132752D02*
X148523084Y-148132752D01*
X148523084Y-148132752D02*
X148427846Y-148085133D01*
X148856417Y-147751800D02*
X148761179Y-147799419D01*
X148761179Y-147799419D02*
X148570703Y-147799419D01*
X148570703Y-147799419D02*
X148475465Y-147751800D01*
X148475465Y-147751800D02*
X148427846Y-147704180D01*
X148427846Y-147704180D02*
X148380227Y-147608942D01*
X148380227Y-147608942D02*
X148380227Y-147323228D01*
X148380227Y-147323228D02*
X148427846Y-147227990D01*
X148427846Y-147227990D02*
X148475465Y-147180371D01*
X148475465Y-147180371D02*
X148570703Y-147132752D01*
X148570703Y-147132752D02*
X148761179Y-147132752D01*
X148761179Y-147132752D02*
X148856417Y-147180371D01*
X164195312Y-143516409D02*
X164338169Y-143564028D01*
X164338169Y-143564028D02*
X164385788Y-143611647D01*
X164385788Y-143611647D02*
X164433407Y-143706885D01*
X164433407Y-143706885D02*
X164433407Y-143849742D01*
X164433407Y-143849742D02*
X164385788Y-143944980D01*
X164385788Y-143944980D02*
X164338169Y-143992600D01*
X164338169Y-143992600D02*
X164242931Y-144040219D01*
X164242931Y-144040219D02*
X163861979Y-144040219D01*
X163861979Y-144040219D02*
X163861979Y-143040219D01*
X163861979Y-143040219D02*
X164195312Y-143040219D01*
X164195312Y-143040219D02*
X164290550Y-143087838D01*
X164290550Y-143087838D02*
X164338169Y-143135457D01*
X164338169Y-143135457D02*
X164385788Y-143230695D01*
X164385788Y-143230695D02*
X164385788Y-143325933D01*
X164385788Y-143325933D02*
X164338169Y-143421171D01*
X164338169Y-143421171D02*
X164290550Y-143468790D01*
X164290550Y-143468790D02*
X164195312Y-143516409D01*
X164195312Y-143516409D02*
X163861979Y-143516409D01*
X164719122Y-143040219D02*
X165290550Y-143040219D01*
X165004836Y-144040219D02*
X165004836Y-143040219D01*
X165623884Y-144040219D02*
X165623884Y-143040219D01*
X165623884Y-143040219D02*
X166195312Y-144040219D01*
X166195312Y-144040219D02*
X166195312Y-143040219D01*
X166623884Y-143135457D02*
X166671503Y-143087838D01*
X166671503Y-143087838D02*
X166766741Y-143040219D01*
X166766741Y-143040219D02*
X167004836Y-143040219D01*
X167004836Y-143040219D02*
X167100074Y-143087838D01*
X167100074Y-143087838D02*
X167147693Y-143135457D01*
X167147693Y-143135457D02*
X167195312Y-143230695D01*
X167195312Y-143230695D02*
X167195312Y-143325933D01*
X167195312Y-143325933D02*
X167147693Y-143468790D01*
X167147693Y-143468790D02*
X166576265Y-144040219D01*
X166576265Y-144040219D02*
X167195312Y-144040219D01*
X154136912Y-143618009D02*
X154279769Y-143665628D01*
X154279769Y-143665628D02*
X154327388Y-143713247D01*
X154327388Y-143713247D02*
X154375007Y-143808485D01*
X154375007Y-143808485D02*
X154375007Y-143951342D01*
X154375007Y-143951342D02*
X154327388Y-144046580D01*
X154327388Y-144046580D02*
X154279769Y-144094200D01*
X154279769Y-144094200D02*
X154184531Y-144141819D01*
X154184531Y-144141819D02*
X153803579Y-144141819D01*
X153803579Y-144141819D02*
X153803579Y-143141819D01*
X153803579Y-143141819D02*
X154136912Y-143141819D01*
X154136912Y-143141819D02*
X154232150Y-143189438D01*
X154232150Y-143189438D02*
X154279769Y-143237057D01*
X154279769Y-143237057D02*
X154327388Y-143332295D01*
X154327388Y-143332295D02*
X154327388Y-143427533D01*
X154327388Y-143427533D02*
X154279769Y-143522771D01*
X154279769Y-143522771D02*
X154232150Y-143570390D01*
X154232150Y-143570390D02*
X154136912Y-143618009D01*
X154136912Y-143618009D02*
X153803579Y-143618009D01*
X154660722Y-143141819D02*
X155232150Y-143141819D01*
X154946436Y-144141819D02*
X154946436Y-143141819D01*
X155565484Y-144141819D02*
X155565484Y-143141819D01*
X155565484Y-143141819D02*
X156136912Y-144141819D01*
X156136912Y-144141819D02*
X156136912Y-143141819D01*
X157136912Y-144141819D02*
X156565484Y-144141819D01*
X156851198Y-144141819D02*
X156851198Y-143141819D01*
X156851198Y-143141819D02*
X156755960Y-143284676D01*
X156755960Y-143284676D02*
X156660722Y-143379914D01*
X156660722Y-143379914D02*
X156565484Y-143427533D01*
X158883600Y-124275419D02*
X159121695Y-125275419D01*
X159121695Y-125275419D02*
X159312171Y-124561133D01*
X159312171Y-124561133D02*
X159502647Y-125275419D01*
X159502647Y-125275419D02*
X159740743Y-124275419D01*
X160502647Y-125227800D02*
X160407409Y-125275419D01*
X160407409Y-125275419D02*
X160216933Y-125275419D01*
X160216933Y-125275419D02*
X160121695Y-125227800D01*
X160121695Y-125227800D02*
X160074076Y-125132561D01*
X160074076Y-125132561D02*
X160074076Y-124751609D01*
X160074076Y-124751609D02*
X160121695Y-124656371D01*
X160121695Y-124656371D02*
X160216933Y-124608752D01*
X160216933Y-124608752D02*
X160407409Y-124608752D01*
X160407409Y-124608752D02*
X160502647Y-124656371D01*
X160502647Y-124656371D02*
X160550266Y-124751609D01*
X160550266Y-124751609D02*
X160550266Y-124846847D01*
X160550266Y-124846847D02*
X160074076Y-124942085D01*
X160931219Y-124989704D02*
X161407409Y-124989704D01*
X160835981Y-125275419D02*
X161169314Y-124275419D01*
X161169314Y-124275419D02*
X161502647Y-125275419D01*
X162264552Y-125227800D02*
X162169314Y-125275419D01*
X162169314Y-125275419D02*
X161978838Y-125275419D01*
X161978838Y-125275419D02*
X161883600Y-125227800D01*
X161883600Y-125227800D02*
X161835981Y-125180180D01*
X161835981Y-125180180D02*
X161788362Y-125084942D01*
X161788362Y-125084942D02*
X161788362Y-124799228D01*
X161788362Y-124799228D02*
X161835981Y-124703990D01*
X161835981Y-124703990D02*
X161883600Y-124656371D01*
X161883600Y-124656371D02*
X161978838Y-124608752D01*
X161978838Y-124608752D02*
X162169314Y-124608752D01*
X162169314Y-124608752D02*
X162264552Y-124656371D01*
X162550267Y-124608752D02*
X162931219Y-124608752D01*
X162693124Y-124275419D02*
X162693124Y-125132561D01*
X162693124Y-125132561D02*
X162740743Y-125227800D01*
X162740743Y-125227800D02*
X162835981Y-125275419D01*
X162835981Y-125275419D02*
X162931219Y-125275419D01*
X156835981Y-126837800D02*
X156978838Y-126885419D01*
X156978838Y-126885419D02*
X157216933Y-126885419D01*
X157216933Y-126885419D02*
X157312171Y-126837800D01*
X157312171Y-126837800D02*
X157359790Y-126790180D01*
X157359790Y-126790180D02*
X157407409Y-126694942D01*
X157407409Y-126694942D02*
X157407409Y-126599704D01*
X157407409Y-126599704D02*
X157359790Y-126504466D01*
X157359790Y-126504466D02*
X157312171Y-126456847D01*
X157312171Y-126456847D02*
X157216933Y-126409228D01*
X157216933Y-126409228D02*
X157026457Y-126361609D01*
X157026457Y-126361609D02*
X156931219Y-126313990D01*
X156931219Y-126313990D02*
X156883600Y-126266371D01*
X156883600Y-126266371D02*
X156835981Y-126171133D01*
X156835981Y-126171133D02*
X156835981Y-126075895D01*
X156835981Y-126075895D02*
X156883600Y-125980657D01*
X156883600Y-125980657D02*
X156931219Y-125933038D01*
X156931219Y-125933038D02*
X157026457Y-125885419D01*
X157026457Y-125885419D02*
X157264552Y-125885419D01*
X157264552Y-125885419D02*
X157407409Y-125933038D01*
X157693124Y-125885419D02*
X158264552Y-125885419D01*
X157978838Y-126885419D02*
X157978838Y-125885419D01*
X158597886Y-126885419D02*
X158597886Y-125885419D01*
X158597886Y-125885419D02*
X158931219Y-126599704D01*
X158931219Y-126599704D02*
X159264552Y-125885419D01*
X159264552Y-125885419D02*
X159264552Y-126885419D01*
X159645505Y-125885419D02*
X160264552Y-125885419D01*
X160264552Y-125885419D02*
X159931219Y-126266371D01*
X159931219Y-126266371D02*
X160074076Y-126266371D01*
X160074076Y-126266371D02*
X160169314Y-126313990D01*
X160169314Y-126313990D02*
X160216933Y-126361609D01*
X160216933Y-126361609D02*
X160264552Y-126456847D01*
X160264552Y-126456847D02*
X160264552Y-126694942D01*
X160264552Y-126694942D02*
X160216933Y-126790180D01*
X160216933Y-126790180D02*
X160169314Y-126837800D01*
X160169314Y-126837800D02*
X160074076Y-126885419D01*
X160074076Y-126885419D02*
X159788362Y-126885419D01*
X159788362Y-126885419D02*
X159693124Y-126837800D01*
X159693124Y-126837800D02*
X159645505Y-126790180D01*
X160645505Y-125980657D02*
X160693124Y-125933038D01*
X160693124Y-125933038D02*
X160788362Y-125885419D01*
X160788362Y-125885419D02*
X161026457Y-125885419D01*
X161026457Y-125885419D02*
X161121695Y-125933038D01*
X161121695Y-125933038D02*
X161169314Y-125980657D01*
X161169314Y-125980657D02*
X161216933Y-126075895D01*
X161216933Y-126075895D02*
X161216933Y-126171133D01*
X161216933Y-126171133D02*
X161169314Y-126313990D01*
X161169314Y-126313990D02*
X160597886Y-126885419D01*
X160597886Y-126885419D02*
X161216933Y-126885419D01*
X162169314Y-125933038D02*
X162074076Y-125885419D01*
X162074076Y-125885419D02*
X161931219Y-125885419D01*
X161931219Y-125885419D02*
X161788362Y-125933038D01*
X161788362Y-125933038D02*
X161693124Y-126028276D01*
X161693124Y-126028276D02*
X161645505Y-126123514D01*
X161645505Y-126123514D02*
X161597886Y-126313990D01*
X161597886Y-126313990D02*
X161597886Y-126456847D01*
X161597886Y-126456847D02*
X161645505Y-126647323D01*
X161645505Y-126647323D02*
X161693124Y-126742561D01*
X161693124Y-126742561D02*
X161788362Y-126837800D01*
X161788362Y-126837800D02*
X161931219Y-126885419D01*
X161931219Y-126885419D02*
X162026457Y-126885419D01*
X162026457Y-126885419D02*
X162169314Y-126837800D01*
X162169314Y-126837800D02*
X162216933Y-126790180D01*
X162216933Y-126790180D02*
X162216933Y-126456847D01*
X162216933Y-126456847D02*
X162026457Y-126456847D01*
X162835981Y-125885419D02*
X162931219Y-125885419D01*
X162931219Y-125885419D02*
X163026457Y-125933038D01*
X163026457Y-125933038D02*
X163074076Y-125980657D01*
X163074076Y-125980657D02*
X163121695Y-126075895D01*
X163121695Y-126075895D02*
X163169314Y-126266371D01*
X163169314Y-126266371D02*
X163169314Y-126504466D01*
X163169314Y-126504466D02*
X163121695Y-126694942D01*
X163121695Y-126694942D02*
X163074076Y-126790180D01*
X163074076Y-126790180D02*
X163026457Y-126837800D01*
X163026457Y-126837800D02*
X162931219Y-126885419D01*
X162931219Y-126885419D02*
X162835981Y-126885419D01*
X162835981Y-126885419D02*
X162740743Y-126837800D01*
X162740743Y-126837800D02*
X162693124Y-126790180D01*
X162693124Y-126790180D02*
X162645505Y-126694942D01*
X162645505Y-126694942D02*
X162597886Y-126504466D01*
X162597886Y-126504466D02*
X162597886Y-126266371D01*
X162597886Y-126266371D02*
X162645505Y-126075895D01*
X162645505Y-126075895D02*
X162693124Y-125980657D01*
X162693124Y-125980657D02*
X162740743Y-125933038D01*
X162740743Y-125933038D02*
X162835981Y-125885419D01*
X163502648Y-125885419D02*
X164121695Y-125885419D01*
X164121695Y-125885419D02*
X163788362Y-126266371D01*
X163788362Y-126266371D02*
X163931219Y-126266371D01*
X163931219Y-126266371D02*
X164026457Y-126313990D01*
X164026457Y-126313990D02*
X164074076Y-126361609D01*
X164074076Y-126361609D02*
X164121695Y-126456847D01*
X164121695Y-126456847D02*
X164121695Y-126694942D01*
X164121695Y-126694942D02*
X164074076Y-126790180D01*
X164074076Y-126790180D02*
X164026457Y-126837800D01*
X164026457Y-126837800D02*
X163931219Y-126885419D01*
X163931219Y-126885419D02*
X163645505Y-126885419D01*
X163645505Y-126885419D02*
X163550267Y-126837800D01*
X163550267Y-126837800D02*
X163502648Y-126790180D01*
X164455029Y-126885419D02*
X164978838Y-126218752D01*
X164455029Y-126218752D02*
X164978838Y-126885419D01*
X159002647Y-128495419D02*
X159002647Y-127495419D01*
X159002647Y-127876371D02*
X159097885Y-127828752D01*
X159097885Y-127828752D02*
X159288361Y-127828752D01*
X159288361Y-127828752D02*
X159383599Y-127876371D01*
X159383599Y-127876371D02*
X159431218Y-127923990D01*
X159431218Y-127923990D02*
X159478837Y-128019228D01*
X159478837Y-128019228D02*
X159478837Y-128304942D01*
X159478837Y-128304942D02*
X159431218Y-128400180D01*
X159431218Y-128400180D02*
X159383599Y-128447800D01*
X159383599Y-128447800D02*
X159288361Y-128495419D01*
X159288361Y-128495419D02*
X159097885Y-128495419D01*
X159097885Y-128495419D02*
X159002647Y-128447800D01*
X160050266Y-128495419D02*
X159955028Y-128447800D01*
X159955028Y-128447800D02*
X159907409Y-128400180D01*
X159907409Y-128400180D02*
X159859790Y-128304942D01*
X159859790Y-128304942D02*
X159859790Y-128019228D01*
X159859790Y-128019228D02*
X159907409Y-127923990D01*
X159907409Y-127923990D02*
X159955028Y-127876371D01*
X159955028Y-127876371D02*
X160050266Y-127828752D01*
X160050266Y-127828752D02*
X160193123Y-127828752D01*
X160193123Y-127828752D02*
X160288361Y-127876371D01*
X160288361Y-127876371D02*
X160335980Y-127923990D01*
X160335980Y-127923990D02*
X160383599Y-128019228D01*
X160383599Y-128019228D02*
X160383599Y-128304942D01*
X160383599Y-128304942D02*
X160335980Y-128400180D01*
X160335980Y-128400180D02*
X160288361Y-128447800D01*
X160288361Y-128447800D02*
X160193123Y-128495419D01*
X160193123Y-128495419D02*
X160050266Y-128495419D01*
X161240742Y-128495419D02*
X161240742Y-127971609D01*
X161240742Y-127971609D02*
X161193123Y-127876371D01*
X161193123Y-127876371D02*
X161097885Y-127828752D01*
X161097885Y-127828752D02*
X160907409Y-127828752D01*
X160907409Y-127828752D02*
X160812171Y-127876371D01*
X161240742Y-128447800D02*
X161145504Y-128495419D01*
X161145504Y-128495419D02*
X160907409Y-128495419D01*
X160907409Y-128495419D02*
X160812171Y-128447800D01*
X160812171Y-128447800D02*
X160764552Y-128352561D01*
X160764552Y-128352561D02*
X160764552Y-128257323D01*
X160764552Y-128257323D02*
X160812171Y-128162085D01*
X160812171Y-128162085D02*
X160907409Y-128114466D01*
X160907409Y-128114466D02*
X161145504Y-128114466D01*
X161145504Y-128114466D02*
X161240742Y-128066847D01*
X161716933Y-128495419D02*
X161716933Y-127828752D01*
X161716933Y-128019228D02*
X161764552Y-127923990D01*
X161764552Y-127923990D02*
X161812171Y-127876371D01*
X161812171Y-127876371D02*
X161907409Y-127828752D01*
X161907409Y-127828752D02*
X162002647Y-127828752D01*
X162764552Y-128495419D02*
X162764552Y-127495419D01*
X162764552Y-128447800D02*
X162669314Y-128495419D01*
X162669314Y-128495419D02*
X162478838Y-128495419D01*
X162478838Y-128495419D02*
X162383600Y-128447800D01*
X162383600Y-128447800D02*
X162335981Y-128400180D01*
X162335981Y-128400180D02*
X162288362Y-128304942D01*
X162288362Y-128304942D02*
X162288362Y-128019228D01*
X162288362Y-128019228D02*
X162335981Y-127923990D01*
X162335981Y-127923990D02*
X162383600Y-127876371D01*
X162383600Y-127876371D02*
X162478838Y-127828752D01*
X162478838Y-127828752D02*
X162669314Y-127828752D01*
X162669314Y-127828752D02*
X162764552Y-127876371D01*
D10*
X164878098Y-134320316D02*
X164811431Y-134286983D01*
X164811431Y-134286983D02*
X164711431Y-134286983D01*
X164711431Y-134286983D02*
X164611431Y-134320316D01*
X164611431Y-134320316D02*
X164544765Y-134386983D01*
X164544765Y-134386983D02*
X164511431Y-134453650D01*
X164511431Y-134453650D02*
X164478098Y-134586983D01*
X164478098Y-134586983D02*
X164478098Y-134686983D01*
X164478098Y-134686983D02*
X164511431Y-134820316D01*
X164511431Y-134820316D02*
X164544765Y-134886983D01*
X164544765Y-134886983D02*
X164611431Y-134953650D01*
X164611431Y-134953650D02*
X164711431Y-134986983D01*
X164711431Y-134986983D02*
X164778098Y-134986983D01*
X164778098Y-134986983D02*
X164878098Y-134953650D01*
X164878098Y-134953650D02*
X164911431Y-134920316D01*
X164911431Y-134920316D02*
X164911431Y-134686983D01*
X164911431Y-134686983D02*
X164778098Y-134686983D01*
X165211431Y-134986983D02*
X165211431Y-134286983D01*
X165211431Y-134286983D02*
X165611431Y-134986983D01*
X165611431Y-134986983D02*
X165611431Y-134286983D01*
X165944764Y-134986983D02*
X165944764Y-134286983D01*
X165944764Y-134286983D02*
X166111431Y-134286983D01*
X166111431Y-134286983D02*
X166211431Y-134320316D01*
X166211431Y-134320316D02*
X166278098Y-134386983D01*
X166278098Y-134386983D02*
X166311431Y-134453650D01*
X166311431Y-134453650D02*
X166344764Y-134586983D01*
X166344764Y-134586983D02*
X166344764Y-134686983D01*
X166344764Y-134686983D02*
X166311431Y-134820316D01*
X166311431Y-134820316D02*
X166278098Y-134886983D01*
X166278098Y-134886983D02*
X166211431Y-134953650D01*
X166211431Y-134953650D02*
X166111431Y-134986983D01*
X166111431Y-134986983D02*
X165944764Y-134986983D01*
X155683298Y-121417116D02*
X155616631Y-121383783D01*
X155616631Y-121383783D02*
X155516631Y-121383783D01*
X155516631Y-121383783D02*
X155416631Y-121417116D01*
X155416631Y-121417116D02*
X155349965Y-121483783D01*
X155349965Y-121483783D02*
X155316631Y-121550450D01*
X155316631Y-121550450D02*
X155283298Y-121683783D01*
X155283298Y-121683783D02*
X155283298Y-121783783D01*
X155283298Y-121783783D02*
X155316631Y-121917116D01*
X155316631Y-121917116D02*
X155349965Y-121983783D01*
X155349965Y-121983783D02*
X155416631Y-122050450D01*
X155416631Y-122050450D02*
X155516631Y-122083783D01*
X155516631Y-122083783D02*
X155583298Y-122083783D01*
X155583298Y-122083783D02*
X155683298Y-122050450D01*
X155683298Y-122050450D02*
X155716631Y-122017116D01*
X155716631Y-122017116D02*
X155716631Y-121783783D01*
X155716631Y-121783783D02*
X155583298Y-121783783D01*
X156016631Y-122083783D02*
X156016631Y-121383783D01*
X156016631Y-121383783D02*
X156416631Y-122083783D01*
X156416631Y-122083783D02*
X156416631Y-121383783D01*
X156749964Y-122083783D02*
X156749964Y-121383783D01*
X156749964Y-121383783D02*
X156916631Y-121383783D01*
X156916631Y-121383783D02*
X157016631Y-121417116D01*
X157016631Y-121417116D02*
X157083298Y-121483783D01*
X157083298Y-121483783D02*
X157116631Y-121550450D01*
X157116631Y-121550450D02*
X157149964Y-121683783D01*
X157149964Y-121683783D02*
X157149964Y-121783783D01*
X157149964Y-121783783D02*
X157116631Y-121917116D01*
X157116631Y-121917116D02*
X157083298Y-121983783D01*
X157083298Y-121983783D02*
X157016631Y-122050450D01*
X157016631Y-122050450D02*
X156916631Y-122083783D01*
X156916631Y-122083783D02*
X156749964Y-122083783D01*
X110850716Y-131997101D02*
X110817383Y-132063768D01*
X110817383Y-132063768D02*
X110817383Y-132163768D01*
X110817383Y-132163768D02*
X110850716Y-132263768D01*
X110850716Y-132263768D02*
X110917383Y-132330435D01*
X110917383Y-132330435D02*
X110984050Y-132363768D01*
X110984050Y-132363768D02*
X111117383Y-132397101D01*
X111117383Y-132397101D02*
X111217383Y-132397101D01*
X111217383Y-132397101D02*
X111350716Y-132363768D01*
X111350716Y-132363768D02*
X111417383Y-132330435D01*
X111417383Y-132330435D02*
X111484050Y-132263768D01*
X111484050Y-132263768D02*
X111517383Y-132163768D01*
X111517383Y-132163768D02*
X111517383Y-132097101D01*
X111517383Y-132097101D02*
X111484050Y-131997101D01*
X111484050Y-131997101D02*
X111450716Y-131963768D01*
X111450716Y-131963768D02*
X111217383Y-131963768D01*
X111217383Y-131963768D02*
X111217383Y-132097101D01*
X111517383Y-131663768D02*
X110817383Y-131663768D01*
X110817383Y-131663768D02*
X111517383Y-131263768D01*
X111517383Y-131263768D02*
X110817383Y-131263768D01*
X111517383Y-130930435D02*
X110817383Y-130930435D01*
X110817383Y-130930435D02*
X110817383Y-130763768D01*
X110817383Y-130763768D02*
X110850716Y-130663768D01*
X110850716Y-130663768D02*
X110917383Y-130597102D01*
X110917383Y-130597102D02*
X110984050Y-130563768D01*
X110984050Y-130563768D02*
X111117383Y-130530435D01*
X111117383Y-130530435D02*
X111217383Y-130530435D01*
X111217383Y-130530435D02*
X111350716Y-130563768D01*
X111350716Y-130563768D02*
X111417383Y-130597102D01*
X111417383Y-130597102D02*
X111484050Y-130663768D01*
X111484050Y-130663768D02*
X111517383Y-130763768D01*
X111517383Y-130763768D02*
X111517383Y-130930435D01*
X112019116Y-139667901D02*
X111985783Y-139734568D01*
X111985783Y-139734568D02*
X111985783Y-139834568D01*
X111985783Y-139834568D02*
X112019116Y-139934568D01*
X112019116Y-139934568D02*
X112085783Y-140001235D01*
X112085783Y-140001235D02*
X112152450Y-140034568D01*
X112152450Y-140034568D02*
X112285783Y-140067901D01*
X112285783Y-140067901D02*
X112385783Y-140067901D01*
X112385783Y-140067901D02*
X112519116Y-140034568D01*
X112519116Y-140034568D02*
X112585783Y-140001235D01*
X112585783Y-140001235D02*
X112652450Y-139934568D01*
X112652450Y-139934568D02*
X112685783Y-139834568D01*
X112685783Y-139834568D02*
X112685783Y-139767901D01*
X112685783Y-139767901D02*
X112652450Y-139667901D01*
X112652450Y-139667901D02*
X112619116Y-139634568D01*
X112619116Y-139634568D02*
X112385783Y-139634568D01*
X112385783Y-139634568D02*
X112385783Y-139767901D01*
X112685783Y-139334568D02*
X111985783Y-139334568D01*
X111985783Y-139334568D02*
X112685783Y-138934568D01*
X112685783Y-138934568D02*
X111985783Y-138934568D01*
X112685783Y-138601235D02*
X111985783Y-138601235D01*
X111985783Y-138601235D02*
X111985783Y-138434568D01*
X111985783Y-138434568D02*
X112019116Y-138334568D01*
X112019116Y-138334568D02*
X112085783Y-138267902D01*
X112085783Y-138267902D02*
X112152450Y-138234568D01*
X112152450Y-138234568D02*
X112285783Y-138201235D01*
X112285783Y-138201235D02*
X112385783Y-138201235D01*
X112385783Y-138201235D02*
X112519116Y-138234568D01*
X112519116Y-138234568D02*
X112585783Y-138267902D01*
X112585783Y-138267902D02*
X112652450Y-138334568D01*
X112652450Y-138334568D02*
X112685783Y-138434568D01*
X112685783Y-138434568D02*
X112685783Y-138601235D01*
D11*
X105546760Y-145465800D02*
X105689617Y-145513419D01*
X105689617Y-145513419D02*
X105927712Y-145513419D01*
X105927712Y-145513419D02*
X106022950Y-145465800D01*
X106022950Y-145465800D02*
X106070569Y-145418180D01*
X106070569Y-145418180D02*
X106118188Y-145322942D01*
X106118188Y-145322942D02*
X106118188Y-145227704D01*
X106118188Y-145227704D02*
X106070569Y-145132466D01*
X106070569Y-145132466D02*
X106022950Y-145084847D01*
X106022950Y-145084847D02*
X105927712Y-145037228D01*
X105927712Y-145037228D02*
X105737236Y-144989609D01*
X105737236Y-144989609D02*
X105641998Y-144941990D01*
X105641998Y-144941990D02*
X105594379Y-144894371D01*
X105594379Y-144894371D02*
X105546760Y-144799133D01*
X105546760Y-144799133D02*
X105546760Y-144703895D01*
X105546760Y-144703895D02*
X105594379Y-144608657D01*
X105594379Y-144608657D02*
X105641998Y-144561038D01*
X105641998Y-144561038D02*
X105737236Y-144513419D01*
X105737236Y-144513419D02*
X105975331Y-144513419D01*
X105975331Y-144513419D02*
X106118188Y-144561038D01*
X106499141Y-145465800D02*
X106641998Y-145513419D01*
X106641998Y-145513419D02*
X106880093Y-145513419D01*
X106880093Y-145513419D02*
X106975331Y-145465800D01*
X106975331Y-145465800D02*
X107022950Y-145418180D01*
X107022950Y-145418180D02*
X107070569Y-145322942D01*
X107070569Y-145322942D02*
X107070569Y-145227704D01*
X107070569Y-145227704D02*
X107022950Y-145132466D01*
X107022950Y-145132466D02*
X106975331Y-145084847D01*
X106975331Y-145084847D02*
X106880093Y-145037228D01*
X106880093Y-145037228D02*
X106689617Y-144989609D01*
X106689617Y-144989609D02*
X106594379Y-144941990D01*
X106594379Y-144941990D02*
X106546760Y-144894371D01*
X106546760Y-144894371D02*
X106499141Y-144799133D01*
X106499141Y-144799133D02*
X106499141Y-144703895D01*
X106499141Y-144703895D02*
X106546760Y-144608657D01*
X106546760Y-144608657D02*
X106594379Y-144561038D01*
X106594379Y-144561038D02*
X106689617Y-144513419D01*
X106689617Y-144513419D02*
X106927712Y-144513419D01*
X106927712Y-144513419D02*
X107070569Y-144561038D01*
X107499141Y-145513419D02*
X107499141Y-144513419D01*
X107499141Y-144513419D02*
X107737236Y-144513419D01*
X107737236Y-144513419D02*
X107880093Y-144561038D01*
X107880093Y-144561038D02*
X107975331Y-144656276D01*
X107975331Y-144656276D02*
X108022950Y-144751514D01*
X108022950Y-144751514D02*
X108070569Y-144941990D01*
X108070569Y-144941990D02*
X108070569Y-145084847D01*
X108070569Y-145084847D02*
X108022950Y-145275323D01*
X108022950Y-145275323D02*
X107975331Y-145370561D01*
X107975331Y-145370561D02*
X107880093Y-145465800D01*
X107880093Y-145465800D02*
X107737236Y-145513419D01*
X107737236Y-145513419D02*
X107499141Y-145513419D01*
X109022950Y-145513419D02*
X108451522Y-145513419D01*
X108737236Y-145513419D02*
X108737236Y-144513419D01*
X108737236Y-144513419D02*
X108641998Y-144656276D01*
X108641998Y-144656276D02*
X108546760Y-144751514D01*
X108546760Y-144751514D02*
X108451522Y-144799133D01*
X109356284Y-144513419D02*
X109975331Y-144513419D01*
X109975331Y-144513419D02*
X109641998Y-144894371D01*
X109641998Y-144894371D02*
X109784855Y-144894371D01*
X109784855Y-144894371D02*
X109880093Y-144941990D01*
X109880093Y-144941990D02*
X109927712Y-144989609D01*
X109927712Y-144989609D02*
X109975331Y-145084847D01*
X109975331Y-145084847D02*
X109975331Y-145322942D01*
X109975331Y-145322942D02*
X109927712Y-145418180D01*
X109927712Y-145418180D02*
X109880093Y-145465800D01*
X109880093Y-145465800D02*
X109784855Y-145513419D01*
X109784855Y-145513419D02*
X109499141Y-145513419D01*
X109499141Y-145513419D02*
X109403903Y-145465800D01*
X109403903Y-145465800D02*
X109356284Y-145418180D01*
X110594379Y-144513419D02*
X110689617Y-144513419D01*
X110689617Y-144513419D02*
X110784855Y-144561038D01*
X110784855Y-144561038D02*
X110832474Y-144608657D01*
X110832474Y-144608657D02*
X110880093Y-144703895D01*
X110880093Y-144703895D02*
X110927712Y-144894371D01*
X110927712Y-144894371D02*
X110927712Y-145132466D01*
X110927712Y-145132466D02*
X110880093Y-145322942D01*
X110880093Y-145322942D02*
X110832474Y-145418180D01*
X110832474Y-145418180D02*
X110784855Y-145465800D01*
X110784855Y-145465800D02*
X110689617Y-145513419D01*
X110689617Y-145513419D02*
X110594379Y-145513419D01*
X110594379Y-145513419D02*
X110499141Y-145465800D01*
X110499141Y-145465800D02*
X110451522Y-145418180D01*
X110451522Y-145418180D02*
X110403903Y-145322942D01*
X110403903Y-145322942D02*
X110356284Y-145132466D01*
X110356284Y-145132466D02*
X110356284Y-144894371D01*
X110356284Y-144894371D02*
X110403903Y-144703895D01*
X110403903Y-144703895D02*
X110451522Y-144608657D01*
X110451522Y-144608657D02*
X110499141Y-144561038D01*
X110499141Y-144561038D02*
X110594379Y-144513419D01*
X111784855Y-144513419D02*
X111594379Y-144513419D01*
X111594379Y-144513419D02*
X111499141Y-144561038D01*
X111499141Y-144561038D02*
X111451522Y-144608657D01*
X111451522Y-144608657D02*
X111356284Y-144751514D01*
X111356284Y-144751514D02*
X111308665Y-144941990D01*
X111308665Y-144941990D02*
X111308665Y-145322942D01*
X111308665Y-145322942D02*
X111356284Y-145418180D01*
X111356284Y-145418180D02*
X111403903Y-145465800D01*
X111403903Y-145465800D02*
X111499141Y-145513419D01*
X111499141Y-145513419D02*
X111689617Y-145513419D01*
X111689617Y-145513419D02*
X111784855Y-145465800D01*
X111784855Y-145465800D02*
X111832474Y-145418180D01*
X111832474Y-145418180D02*
X111880093Y-145322942D01*
X111880093Y-145322942D02*
X111880093Y-145084847D01*
X111880093Y-145084847D02*
X111832474Y-144989609D01*
X111832474Y-144989609D02*
X111784855Y-144941990D01*
X111784855Y-144941990D02*
X111689617Y-144894371D01*
X111689617Y-144894371D02*
X111499141Y-144894371D01*
X111499141Y-144894371D02*
X111403903Y-144941990D01*
X111403903Y-144941990D02*
X111356284Y-144989609D01*
X111356284Y-144989609D02*
X111308665Y-145084847D01*
X106524588Y-121955038D02*
X106429350Y-121907419D01*
X106429350Y-121907419D02*
X106286493Y-121907419D01*
X106286493Y-121907419D02*
X106143636Y-121955038D01*
X106143636Y-121955038D02*
X106048398Y-122050276D01*
X106048398Y-122050276D02*
X106000779Y-122145514D01*
X106000779Y-122145514D02*
X105953160Y-122335990D01*
X105953160Y-122335990D02*
X105953160Y-122478847D01*
X105953160Y-122478847D02*
X106000779Y-122669323D01*
X106000779Y-122669323D02*
X106048398Y-122764561D01*
X106048398Y-122764561D02*
X106143636Y-122859800D01*
X106143636Y-122859800D02*
X106286493Y-122907419D01*
X106286493Y-122907419D02*
X106381731Y-122907419D01*
X106381731Y-122907419D02*
X106524588Y-122859800D01*
X106524588Y-122859800D02*
X106572207Y-122812180D01*
X106572207Y-122812180D02*
X106572207Y-122478847D01*
X106572207Y-122478847D02*
X106381731Y-122478847D01*
X106857922Y-121907419D02*
X107429350Y-121907419D01*
X107143636Y-122907419D02*
X107143636Y-121907419D01*
X107762684Y-122526466D02*
X108524589Y-122526466D01*
X109000779Y-121907419D02*
X109000779Y-122716942D01*
X109000779Y-122716942D02*
X109048398Y-122812180D01*
X109048398Y-122812180D02*
X109096017Y-122859800D01*
X109096017Y-122859800D02*
X109191255Y-122907419D01*
X109191255Y-122907419D02*
X109381731Y-122907419D01*
X109381731Y-122907419D02*
X109476969Y-122859800D01*
X109476969Y-122859800D02*
X109524588Y-122812180D01*
X109524588Y-122812180D02*
X109572207Y-122716942D01*
X109572207Y-122716942D02*
X109572207Y-121907419D01*
X109953160Y-121907419D02*
X110619826Y-121907419D01*
X110619826Y-121907419D02*
X110191255Y-122907419D01*
D12*
G36*
X98332710Y-148369200D02*
G01*
X98316101Y-147865327D01*
X98309995Y-147664070D01*
X98266764Y-147792542D01*
X98167113Y-148103463D01*
X98061356Y-148103463D01*
X97971474Y-147792542D01*
X97933617Y-147664070D01*
X97928732Y-147861174D01*
X97913589Y-148369200D01*
X97770218Y-148369200D01*
X97814182Y-147478202D01*
X98004936Y-147478202D01*
X98084070Y-147738320D01*
X98121928Y-147884866D01*
X98159786Y-147746624D01*
X98242828Y-147478202D01*
X98437246Y-147478202D01*
X98481698Y-148369200D01*
X98332710Y-148369200D01*
G37*
G36*
X99014391Y-147478446D02*
G01*
X99013994Y-147488255D01*
X99012567Y-147499150D01*
X99010101Y-147509710D01*
X99006598Y-147519934D01*
X99006087Y-147521188D01*
X99001630Y-147530775D01*
X98996317Y-147539751D01*
X98990150Y-147548116D01*
X98983128Y-147555871D01*
X98975465Y-147562816D01*
X98967130Y-147568999D01*
X98958124Y-147574418D01*
X98948446Y-147579074D01*
X98938325Y-147582814D01*
X98927746Y-147585485D01*
X98916710Y-147587088D01*
X98906677Y-147587614D01*
X98905215Y-147587622D01*
X98895109Y-147587213D01*
X98885306Y-147585986D01*
X98874476Y-147583582D01*
X98864042Y-147580109D01*
X98861495Y-147579074D01*
X98851695Y-147574418D01*
X98842567Y-147568999D01*
X98834110Y-147562816D01*
X98826324Y-147555871D01*
X98819394Y-147548116D01*
X98813257Y-147539751D01*
X98807915Y-147530775D01*
X98803366Y-147521188D01*
X98799839Y-147511006D01*
X98797321Y-147500489D01*
X98795809Y-147489635D01*
X98795313Y-147479863D01*
X98795306Y-147478446D01*
X98795809Y-147467379D01*
X98797321Y-147456647D01*
X98799839Y-147446252D01*
X98803366Y-147436192D01*
X98807915Y-147426483D01*
X98813257Y-147417385D01*
X98819394Y-147408898D01*
X98826324Y-147401021D01*
X98834110Y-147393861D01*
X98842567Y-147387526D01*
X98851695Y-147382016D01*
X98861495Y-147377329D01*
X98871830Y-147373589D01*
X98882561Y-147370918D01*
X98892277Y-147369457D01*
X98902296Y-147368814D01*
X98905215Y-147368781D01*
X98915298Y-147369190D01*
X98925030Y-147370417D01*
X98935723Y-147372821D01*
X98945959Y-147376294D01*
X98948446Y-147377329D01*
X98958124Y-147382016D01*
X98967130Y-147387526D01*
X98975465Y-147393861D01*
X98983128Y-147401021D01*
X98990150Y-147408898D01*
X98996317Y-147417385D01*
X99001630Y-147426483D01*
X99006087Y-147436192D01*
X99009720Y-147446252D01*
X99012315Y-147456647D01*
X99013872Y-147467379D01*
X99014391Y-147478446D01*
G37*
G36*
X98828767Y-147790832D02*
G01*
X98631663Y-147790832D01*
X98631663Y-147665780D01*
X99000714Y-147665780D01*
X99000714Y-148244147D01*
X99201970Y-148244147D01*
X99201970Y-148369200D01*
X98607727Y-148369200D01*
X98607727Y-148244147D01*
X98828767Y-148244147D01*
X98828767Y-147790832D01*
G37*
G36*
X99937141Y-148353568D02*
G01*
X99924692Y-148357407D01*
X99915285Y-148360116D01*
X99905819Y-148362679D01*
X99896292Y-148365097D01*
X99886705Y-148367368D01*
X99877058Y-148369493D01*
X99867350Y-148371472D01*
X99857583Y-148373305D01*
X99847756Y-148374993D01*
X99837868Y-148376534D01*
X99834559Y-148377015D01*
X99824624Y-148378412D01*
X99814603Y-148379671D01*
X99804497Y-148380793D01*
X99794305Y-148381778D01*
X99784026Y-148382625D01*
X99773662Y-148383335D01*
X99763212Y-148383907D01*
X99752676Y-148384343D01*
X99742055Y-148384640D01*
X99731347Y-148384801D01*
X99724161Y-148384831D01*
X99713848Y-148384741D01*
X99703668Y-148384472D01*
X99693621Y-148384024D01*
X99683708Y-148383396D01*
X99673929Y-148382589D01*
X99659511Y-148381042D01*
X99645393Y-148379091D01*
X99631575Y-148376737D01*
X99618059Y-148373979D01*
X99604842Y-148370818D01*
X99591927Y-148367253D01*
X99579311Y-148363285D01*
X99575173Y-148361872D01*
X99562982Y-148357326D01*
X99551139Y-148352390D01*
X99539644Y-148347062D01*
X99528496Y-148341344D01*
X99517696Y-148335236D01*
X99507244Y-148328736D01*
X99497140Y-148321846D01*
X99487383Y-148314565D01*
X99477974Y-148306894D01*
X99468913Y-148298832D01*
X99463066Y-148293240D01*
X99454645Y-148284531D01*
X99446602Y-148275440D01*
X99438937Y-148265967D01*
X99431650Y-148256111D01*
X99424740Y-148245874D01*
X99418209Y-148235254D01*
X99412055Y-148224253D01*
X99406279Y-148212869D01*
X99400881Y-148201103D01*
X99395861Y-148188955D01*
X99392724Y-148180644D01*
X99388359Y-148167824D01*
X99384423Y-148154644D01*
X99380917Y-148141102D01*
X99377840Y-148127201D01*
X99375192Y-148112938D01*
X99373666Y-148103230D01*
X99372330Y-148093361D01*
X99371185Y-148083331D01*
X99370231Y-148073142D01*
X99369468Y-148062792D01*
X99368896Y-148052282D01*
X99368514Y-148041612D01*
X99368323Y-148030781D01*
X99368299Y-148025306D01*
X99368402Y-148014684D01*
X99368711Y-148004190D01*
X99369227Y-147993824D01*
X99369948Y-147983586D01*
X99370875Y-147973476D01*
X99372009Y-147963493D01*
X99373348Y-147953638D01*
X99374894Y-147943912D01*
X99377599Y-147929561D01*
X99380767Y-147915498D01*
X99384399Y-147901723D01*
X99388495Y-147888236D01*
X99393055Y-147875036D01*
X99394678Y-147870700D01*
X99399856Y-147857874D01*
X99405408Y-147845409D01*
X99411333Y-147833305D01*
X99417633Y-147821561D01*
X99424305Y-147810178D01*
X99431351Y-147799156D01*
X99438771Y-147788494D01*
X99446564Y-147778193D01*
X99454730Y-147768252D01*
X99463271Y-147758673D01*
X99469172Y-147752486D01*
X99478365Y-147743479D01*
X99487902Y-147734866D01*
X99497782Y-147726649D01*
X99508006Y-147718827D01*
X99518574Y-147711399D01*
X99529484Y-147704367D01*
X99540739Y-147697729D01*
X99552336Y-147691487D01*
X99564277Y-147685639D01*
X99576562Y-147680187D01*
X99584943Y-147676771D01*
X99597807Y-147672013D01*
X99610937Y-147667724D01*
X99624334Y-147663902D01*
X99637997Y-147660548D01*
X99651926Y-147657662D01*
X99666121Y-147655244D01*
X99680582Y-147653294D01*
X99690371Y-147652254D01*
X99700278Y-147651422D01*
X99710304Y-147650799D01*
X99720447Y-147650383D01*
X99730709Y-147650175D01*
X99735885Y-147650149D01*
X99748427Y-147650228D01*
X99760591Y-147650466D01*
X99772378Y-147650863D01*
X99783787Y-147651419D01*
X99794818Y-147652134D01*
X99805471Y-147653008D01*
X99815746Y-147654040D01*
X99825644Y-147655232D01*
X99838253Y-147657067D01*
X99850190Y-147659186D01*
X99861647Y-147661456D01*
X99872813Y-147663872D01*
X99883690Y-147666433D01*
X99894276Y-147669138D01*
X99904573Y-147671989D01*
X99914579Y-147674985D01*
X99924295Y-147678126D01*
X99933721Y-147681412D01*
X99933721Y-147837727D01*
X99922982Y-147832270D01*
X99912014Y-147827133D01*
X99900817Y-147822317D01*
X99889391Y-147817821D01*
X99877736Y-147813646D01*
X99865853Y-147809792D01*
X99853740Y-147806258D01*
X99841398Y-147803045D01*
X99829021Y-147800182D01*
X99816805Y-147797702D01*
X99804750Y-147795603D01*
X99792854Y-147793885D01*
X99781119Y-147792550D01*
X99769544Y-147791596D01*
X99758130Y-147791023D01*
X99746876Y-147790832D01*
X99735362Y-147791092D01*
X99724146Y-147791870D01*
X99713227Y-147793168D01*
X99702607Y-147794985D01*
X99692284Y-147797320D01*
X99682258Y-147800175D01*
X99672530Y-147803548D01*
X99663100Y-147807441D01*
X99654002Y-147811795D01*
X99645271Y-147816554D01*
X99636905Y-147821718D01*
X99626964Y-147828741D01*
X99617595Y-147836396D01*
X99608798Y-147844683D01*
X99600574Y-147853603D01*
X99594411Y-147861190D01*
X99588622Y-147869173D01*
X99583206Y-147877554D01*
X99578165Y-147886331D01*
X99573498Y-147895506D01*
X99569204Y-147905077D01*
X99565285Y-147915045D01*
X99561740Y-147925410D01*
X99558591Y-147936104D01*
X99555863Y-147947056D01*
X99553554Y-147958269D01*
X99551665Y-147969740D01*
X99550195Y-147981472D01*
X99549146Y-147993462D01*
X99548516Y-148005713D01*
X99548306Y-148018223D01*
X99548433Y-148028020D01*
X99548996Y-148040789D01*
X99550009Y-148053223D01*
X99551473Y-148065320D01*
X99553386Y-148077082D01*
X99555751Y-148088508D01*
X99558565Y-148099598D01*
X99561830Y-148110353D01*
X99562717Y-148112989D01*
X99566506Y-148123236D01*
X99570670Y-148133093D01*
X99575207Y-148142561D01*
X99580119Y-148151640D01*
X99585404Y-148160330D01*
X99591064Y-148168630D01*
X99597098Y-148176542D01*
X99603505Y-148184063D01*
X99610321Y-148191120D01*
X99619292Y-148199350D01*
X99628763Y-148206924D01*
X99638736Y-148213842D01*
X99649209Y-148220105D01*
X99657948Y-148224642D01*
X99667008Y-148228760D01*
X99676419Y-148232366D01*
X99686090Y-148235492D01*
X99696020Y-148238136D01*
X99706209Y-148240300D01*
X99716658Y-148241983D01*
X99727367Y-148243185D01*
X99738335Y-148243907D01*
X99749562Y-148244147D01*
X99760706Y-148243933D01*
X99770707Y-148243396D01*
X99780942Y-148242531D01*
X99791410Y-148241339D01*
X99795969Y-148240728D01*
X99806654Y-148239080D01*
X99817340Y-148237128D01*
X99828025Y-148234872D01*
X99838711Y-148232313D01*
X99844817Y-148230714D01*
X99855468Y-148227747D01*
X99866048Y-148224616D01*
X99876558Y-148221322D01*
X99886999Y-148217864D01*
X99892933Y-148215815D01*
X99903146Y-148212005D01*
X99913055Y-148208055D01*
X99922661Y-148203964D01*
X99931962Y-148199733D01*
X99937141Y-148197253D01*
X99937141Y-148353568D01*
G37*
G36*
X100557518Y-148369200D02*
G01*
X100557518Y-147907336D01*
X100557185Y-147893228D01*
X100556186Y-147880031D01*
X100554521Y-147867743D01*
X100552190Y-147856366D01*
X100549193Y-147845899D01*
X100545531Y-147836342D01*
X100538788Y-147823713D01*
X100530547Y-147813132D01*
X100520808Y-147804599D01*
X100509570Y-147798114D01*
X100496834Y-147793677D01*
X100482599Y-147791288D01*
X100472277Y-147790832D01*
X100461710Y-147791378D01*
X100451257Y-147793015D01*
X100440918Y-147795744D01*
X100430695Y-147799564D01*
X100420585Y-147804476D01*
X100410590Y-147810479D01*
X100400710Y-147817573D01*
X100390944Y-147825759D01*
X100383624Y-147832527D01*
X100376227Y-147839733D01*
X100368752Y-147847376D01*
X100361200Y-147855458D01*
X100353571Y-147863977D01*
X100345864Y-147872934D01*
X100338080Y-147882330D01*
X100330219Y-147892163D01*
X100322281Y-147902434D01*
X100314265Y-147913143D01*
X100308878Y-147920525D01*
X100308878Y-148369200D01*
X100141328Y-148369200D01*
X100141328Y-147400044D01*
X100308878Y-147400044D01*
X100308878Y-147634761D01*
X100300574Y-147758837D01*
X100307232Y-147750954D01*
X100313926Y-147743333D01*
X100320656Y-147735975D01*
X100327422Y-147728879D01*
X100335588Y-147720710D01*
X100343805Y-147712919D01*
X100352252Y-147705466D01*
X100360921Y-147698493D01*
X100369814Y-147692002D01*
X100378930Y-147685991D01*
X100388270Y-147680461D01*
X100391433Y-147678725D01*
X100401104Y-147673736D01*
X100411067Y-147669211D01*
X100421323Y-147665149D01*
X100431870Y-147661552D01*
X100442709Y-147658418D01*
X100446387Y-147657476D01*
X100457684Y-147654986D01*
X100467427Y-147653304D01*
X100477467Y-147651980D01*
X100487806Y-147651014D01*
X100498442Y-147650406D01*
X100509377Y-147650156D01*
X100511600Y-147650149D01*
X100521509Y-147650305D01*
X100534347Y-147651002D01*
X100546758Y-147652255D01*
X100558741Y-147654066D01*
X100570297Y-147656434D01*
X100581425Y-147659359D01*
X100592126Y-147662842D01*
X100602399Y-147666881D01*
X100604901Y-147667978D01*
X100614705Y-147672604D01*
X100624089Y-147677687D01*
X100633054Y-147683228D01*
X100641598Y-147689227D01*
X100649723Y-147695685D01*
X100657428Y-147702600D01*
X100664714Y-147709973D01*
X100671579Y-147717804D01*
X100678086Y-147726013D01*
X100684173Y-147734641D01*
X100689840Y-147743690D01*
X100695087Y-147753158D01*
X100699915Y-147763046D01*
X100704323Y-147773354D01*
X100708311Y-147784081D01*
X100711879Y-147795229D01*
X100715028Y-147806754D01*
X100717756Y-147818615D01*
X100720065Y-147830812D01*
X100721954Y-147843345D01*
X100723423Y-147856213D01*
X100724250Y-147866085D01*
X100724840Y-147876146D01*
X100725194Y-147886395D01*
X100725313Y-147896834D01*
X100725313Y-148369200D01*
X100557518Y-148369200D01*
G37*
G36*
X101210336Y-147650280D02*
G01*
X101224313Y-147650672D01*
X101237899Y-147651327D01*
X101251095Y-147652244D01*
X101263900Y-147653422D01*
X101276314Y-147654863D01*
X101288337Y-147656565D01*
X101299970Y-147658529D01*
X101311212Y-147660755D01*
X101322064Y-147663243D01*
X101329081Y-147665047D01*
X101339348Y-147667972D01*
X101349268Y-147671158D01*
X101358840Y-147674606D01*
X101368064Y-147678317D01*
X101379822Y-147683671D01*
X101390962Y-147689491D01*
X101401484Y-147695776D01*
X101411387Y-147702527D01*
X101420672Y-147709744D01*
X101429411Y-147717426D01*
X101437555Y-147725574D01*
X101445104Y-147734187D01*
X101452057Y-147743266D01*
X101458415Y-147752811D01*
X101464178Y-147762821D01*
X101469345Y-147773297D01*
X101473917Y-147784238D01*
X101477981Y-147795645D01*
X101481504Y-147807517D01*
X101484484Y-147819855D01*
X101486923Y-147832659D01*
X101488396Y-147842567D01*
X101489565Y-147852738D01*
X101490428Y-147863170D01*
X101490987Y-147873864D01*
X101491241Y-147884819D01*
X101491258Y-147888530D01*
X101491258Y-148369200D01*
X101347888Y-148369200D01*
X101343735Y-148276631D01*
X101336812Y-148283940D01*
X101329782Y-148291057D01*
X101322644Y-148297984D01*
X101315399Y-148304719D01*
X101308047Y-148311264D01*
X101300587Y-148317618D01*
X101297574Y-148320107D01*
X101288426Y-148327262D01*
X101278935Y-148334074D01*
X101270763Y-148339489D01*
X101262353Y-148344665D01*
X101253704Y-148349602D01*
X101244817Y-148354301D01*
X101235679Y-148358713D01*
X101226279Y-148362792D01*
X101216617Y-148366537D01*
X101206692Y-148369947D01*
X101196505Y-148373024D01*
X101186056Y-148375767D01*
X101181802Y-148376771D01*
X101171038Y-148379093D01*
X101159964Y-148381021D01*
X101148579Y-148382556D01*
X101136885Y-148383698D01*
X101124880Y-148384445D01*
X101115053Y-148384760D01*
X101107553Y-148384831D01*
X101097594Y-148384689D01*
X101084675Y-148384060D01*
X101072169Y-148382926D01*
X101060076Y-148381289D01*
X101048394Y-148379148D01*
X101037124Y-148376503D01*
X101026267Y-148373355D01*
X101015822Y-148369703D01*
X101013275Y-148368711D01*
X101003341Y-148364483D01*
X100993812Y-148359857D01*
X100984687Y-148354835D01*
X100975967Y-148349416D01*
X100967651Y-148343600D01*
X100959740Y-148337387D01*
X100952233Y-148330777D01*
X100945131Y-148323770D01*
X100938498Y-148316382D01*
X100932278Y-148308627D01*
X100926469Y-148300506D01*
X100921073Y-148292019D01*
X100916089Y-148283165D01*
X100911517Y-148273945D01*
X100907357Y-148264358D01*
X100903610Y-148254405D01*
X100900347Y-148244078D01*
X100897519Y-148233492D01*
X100895126Y-148222646D01*
X100893168Y-148211541D01*
X100891646Y-148200176D01*
X100890558Y-148188551D01*
X100889906Y-148176667D01*
X100889736Y-148167211D01*
X101065543Y-148167211D01*
X101065970Y-148178171D01*
X101067253Y-148188460D01*
X101069390Y-148198077D01*
X101073263Y-148209154D01*
X101078472Y-148219181D01*
X101085017Y-148228159D01*
X101092898Y-148236087D01*
X101102006Y-148242912D01*
X101112080Y-148248581D01*
X101123120Y-148253092D01*
X101132647Y-148255869D01*
X101142793Y-148257905D01*
X101153556Y-148259200D01*
X101164938Y-148259756D01*
X101167881Y-148259779D01*
X101178861Y-148259123D01*
X101189972Y-148257155D01*
X101201215Y-148253875D01*
X101212588Y-148249284D01*
X101221782Y-148244666D01*
X101231059Y-148239209D01*
X101240421Y-148232912D01*
X101250003Y-148225776D01*
X101259823Y-148217922D01*
X101267343Y-148211560D01*
X101274995Y-148204795D01*
X101282781Y-148197627D01*
X101290700Y-148190055D01*
X101298753Y-148182079D01*
X101306938Y-148173700D01*
X101315256Y-148164918D01*
X101323708Y-148155731D01*
X101323708Y-148056569D01*
X101221370Y-148056569D01*
X101210947Y-148056706D01*
X101200930Y-148057118D01*
X101188976Y-148058020D01*
X101177655Y-148059351D01*
X101166966Y-148061111D01*
X101156909Y-148063301D01*
X101149318Y-148065361D01*
X101138622Y-148068891D01*
X101128699Y-148072883D01*
X101119548Y-148077340D01*
X101109849Y-148083125D01*
X101101202Y-148089541D01*
X101093560Y-148096400D01*
X101086877Y-148103727D01*
X101080412Y-148112672D01*
X101075199Y-148122228D01*
X101074091Y-148124712D01*
X101070351Y-148134879D01*
X101067680Y-148145351D01*
X101066077Y-148156128D01*
X101065543Y-148167211D01*
X100889736Y-148167211D01*
X100889688Y-148164524D01*
X100890016Y-148152007D01*
X100891001Y-148139733D01*
X100892642Y-148127704D01*
X100894939Y-148115920D01*
X100897893Y-148104379D01*
X100901503Y-148093083D01*
X100905770Y-148082031D01*
X100910693Y-148071223D01*
X100916284Y-148060667D01*
X100922554Y-148050493D01*
X100929503Y-148040701D01*
X100937132Y-148031290D01*
X100945440Y-148022260D01*
X100954428Y-148013612D01*
X100964094Y-148005346D01*
X100974440Y-147997462D01*
X100982687Y-147991808D01*
X100991307Y-147986385D01*
X101000301Y-147981194D01*
X101009668Y-147976236D01*
X101019409Y-147971509D01*
X101029524Y-147967014D01*
X101040012Y-147962750D01*
X101050873Y-147958719D01*
X101062108Y-147954919D01*
X101073716Y-147951352D01*
X101081663Y-147949102D01*
X101093902Y-147945959D01*
X101106533Y-147943125D01*
X101119554Y-147940601D01*
X101132965Y-147938386D01*
X101146768Y-147936479D01*
X101160961Y-147934882D01*
X101175544Y-147933594D01*
X101185484Y-147932907D01*
X101195597Y-147932358D01*
X101205884Y-147931946D01*
X101216344Y-147931671D01*
X101226979Y-147931533D01*
X101232361Y-147931516D01*
X101323708Y-147931516D01*
X101323708Y-147890239D01*
X101323345Y-147878944D01*
X101322258Y-147868140D01*
X101320447Y-147857827D01*
X101317911Y-147848004D01*
X101316136Y-147842612D01*
X101312379Y-147833524D01*
X101306998Y-147823911D01*
X101300457Y-147815122D01*
X101292756Y-147807157D01*
X101291712Y-147806220D01*
X101283859Y-147800029D01*
X101275049Y-147794492D01*
X101265280Y-147789610D01*
X101256144Y-147785947D01*
X101247992Y-147783261D01*
X101237571Y-147780522D01*
X101226274Y-147778349D01*
X101216190Y-147776972D01*
X101205499Y-147775988D01*
X101194199Y-147775398D01*
X101182291Y-147775201D01*
X101170720Y-147775310D01*
X101159178Y-147775639D01*
X101147667Y-147776186D01*
X101136186Y-147776953D01*
X101124735Y-147777938D01*
X101113314Y-147779142D01*
X101101923Y-147780565D01*
X101090562Y-147782208D01*
X101079232Y-147784069D01*
X101067931Y-147786149D01*
X101060414Y-147787657D01*
X101049180Y-147790035D01*
X101038011Y-147792589D01*
X101026906Y-147795319D01*
X101015866Y-147798225D01*
X101004890Y-147801306D01*
X100993979Y-147804564D01*
X100983132Y-147807998D01*
X100972349Y-147811608D01*
X100961631Y-147815394D01*
X100950977Y-147819356D01*
X100943910Y-147822096D01*
X100943910Y-147681412D01*
X100953433Y-147678934D01*
X100963227Y-147676537D01*
X100973291Y-147674222D01*
X100983626Y-147671989D01*
X100994231Y-147669838D01*
X101005107Y-147667767D01*
X101016253Y-147665779D01*
X101027670Y-147663872D01*
X101039357Y-147662047D01*
X101051315Y-147660303D01*
X101059437Y-147659186D01*
X101071801Y-147657571D01*
X101084255Y-147656114D01*
X101096799Y-147654817D01*
X101109434Y-147653679D01*
X101122159Y-147652699D01*
X101134974Y-147651878D01*
X101147879Y-147651216D01*
X101160874Y-147650713D01*
X101173959Y-147650369D01*
X101187135Y-147650184D01*
X101195969Y-147650149D01*
X101210336Y-147650280D01*
G37*
G36*
X101904273Y-147525096D02*
G01*
X101707169Y-147525096D01*
X101707169Y-147400044D01*
X102076220Y-147400044D01*
X102076220Y-148244147D01*
X102277476Y-148244147D01*
X102277476Y-148369200D01*
X101683233Y-148369200D01*
X101683233Y-148244147D01*
X101904273Y-148244147D01*
X101904273Y-147525096D01*
G37*
G36*
X102719140Y-147478276D02*
G01*
X102729802Y-147478499D01*
X102740306Y-147478871D01*
X102750651Y-147479392D01*
X102760837Y-147480062D01*
X102770865Y-147480881D01*
X102780735Y-147481848D01*
X102790447Y-147482964D01*
X102804717Y-147484918D01*
X102818631Y-147487206D01*
X102832189Y-147489829D01*
X102845390Y-147492787D01*
X102858235Y-147496080D01*
X102862437Y-147497253D01*
X102874842Y-147500933D01*
X102886869Y-147504923D01*
X102898519Y-147509222D01*
X102909790Y-147513831D01*
X102920684Y-147518748D01*
X102931199Y-147523974D01*
X102941337Y-147529510D01*
X102951098Y-147535354D01*
X102960480Y-147541508D01*
X102969485Y-147547971D01*
X102975278Y-147552451D01*
X102983648Y-147559423D01*
X102991632Y-147566691D01*
X102999230Y-147574255D01*
X103006442Y-147582115D01*
X103013266Y-147590272D01*
X103019705Y-147598725D01*
X103025757Y-147607474D01*
X103031423Y-147616519D01*
X103036702Y-147625861D01*
X103041595Y-147635499D01*
X103044643Y-147642089D01*
X103048877Y-147652209D01*
X103052694Y-147662605D01*
X103056095Y-147673275D01*
X103059080Y-147684220D01*
X103061648Y-147695440D01*
X103063799Y-147706935D01*
X103065535Y-147718704D01*
X103066853Y-147730749D01*
X103067756Y-147743068D01*
X103068242Y-147755661D01*
X103068334Y-147764210D01*
X103068128Y-147777259D01*
X103067510Y-147790119D01*
X103066479Y-147802790D01*
X103065037Y-147815272D01*
X103063182Y-147827565D01*
X103060915Y-147839670D01*
X103058236Y-147851585D01*
X103055145Y-147863312D01*
X103051642Y-147874849D01*
X103047726Y-147886198D01*
X103044887Y-147893659D01*
X103040335Y-147904647D01*
X103035379Y-147915357D01*
X103030019Y-147925788D01*
X103024256Y-147935939D01*
X103018089Y-147945812D01*
X103011519Y-147955405D01*
X103004545Y-147964720D01*
X102997168Y-147973755D01*
X102989387Y-147982511D01*
X102981202Y-147990988D01*
X102975522Y-147996485D01*
X102966711Y-148004423D01*
X102957496Y-148012027D01*
X102947877Y-148019295D01*
X102937855Y-148026229D01*
X102927429Y-148032828D01*
X102916600Y-148039092D01*
X102905367Y-148045021D01*
X102893731Y-148050615D01*
X102881691Y-148055875D01*
X102869248Y-148060799D01*
X102860728Y-148063896D01*
X102847666Y-148068174D01*
X102834218Y-148072030D01*
X102820383Y-148075466D01*
X102806162Y-148078482D01*
X102796467Y-148080258D01*
X102786600Y-148081848D01*
X102776561Y-148083250D01*
X102766351Y-148084466D01*
X102755969Y-148085494D01*
X102745415Y-148086336D01*
X102734689Y-148086990D01*
X102723791Y-148087458D01*
X102712722Y-148087738D01*
X102701481Y-148087832D01*
X102615508Y-148087832D01*
X102615508Y-148369200D01*
X102445271Y-148369200D01*
X102445271Y-147618885D01*
X102615508Y-147618885D01*
X102615508Y-147947148D01*
X102709541Y-147947148D01*
X102720372Y-147946961D01*
X102730882Y-147946400D01*
X102741072Y-147945465D01*
X102750941Y-147944156D01*
X102762826Y-147941994D01*
X102774210Y-147939247D01*
X102785094Y-147935916D01*
X102787211Y-147935180D01*
X102797481Y-147931184D01*
X102807227Y-147926674D01*
X102816448Y-147921652D01*
X102825145Y-147916118D01*
X102833316Y-147910070D01*
X102840963Y-147903509D01*
X102843875Y-147900742D01*
X102850852Y-147893429D01*
X102857280Y-147885686D01*
X102863159Y-147877515D01*
X102868490Y-147868914D01*
X102873272Y-147859884D01*
X102877506Y-147850424D01*
X102879046Y-147846520D01*
X102882494Y-147836425D01*
X102885357Y-147825983D01*
X102887636Y-147815196D01*
X102889331Y-147804064D01*
X102890441Y-147792585D01*
X102890967Y-147780760D01*
X102891014Y-147775934D01*
X102890734Y-147764951D01*
X102889893Y-147754290D01*
X102888492Y-147743952D01*
X102886530Y-147733935D01*
X102884007Y-147724241D01*
X102880925Y-147714868D01*
X102879534Y-147711209D01*
X102874909Y-147700527D01*
X102869459Y-147690464D01*
X102863185Y-147681019D01*
X102856087Y-147672191D01*
X102848165Y-147663983D01*
X102845340Y-147661384D01*
X102836302Y-147654025D01*
X102828113Y-147648404D01*
X102819329Y-147643249D01*
X102809948Y-147638558D01*
X102799970Y-147634333D01*
X102789397Y-147630573D01*
X102787211Y-147629876D01*
X102775974Y-147626710D01*
X102764093Y-147624080D01*
X102754125Y-147622363D01*
X102743745Y-147620989D01*
X102732952Y-147619959D01*
X102721748Y-147619272D01*
X102710131Y-147618928D01*
X102704168Y-147618885D01*
X102615508Y-147618885D01*
X102445271Y-147618885D01*
X102445271Y-147478202D01*
X102708320Y-147478202D01*
X102719140Y-147478276D01*
G37*
G36*
X103627650Y-147478446D02*
G01*
X103627253Y-147488255D01*
X103625826Y-147499150D01*
X103623360Y-147509710D01*
X103619857Y-147519934D01*
X103619346Y-147521188D01*
X103614889Y-147530775D01*
X103609576Y-147539751D01*
X103603409Y-147548116D01*
X103596387Y-147555871D01*
X103588724Y-147562816D01*
X103580389Y-147568999D01*
X103571383Y-147574418D01*
X103561705Y-147579074D01*
X103551584Y-147582814D01*
X103541005Y-147585485D01*
X103529968Y-147587088D01*
X103519936Y-147587614D01*
X103518474Y-147587622D01*
X103508367Y-147587213D01*
X103498565Y-147585986D01*
X103487734Y-147583582D01*
X103477301Y-147580109D01*
X103474754Y-147579074D01*
X103464954Y-147574418D01*
X103455825Y-147568999D01*
X103447369Y-147562816D01*
X103439583Y-147555871D01*
X103432653Y-147548116D01*
X103426516Y-147539751D01*
X103421174Y-147530775D01*
X103416624Y-147521188D01*
X103413098Y-147511006D01*
X103410579Y-147500489D01*
X103409068Y-147489635D01*
X103408572Y-147479863D01*
X103408564Y-147478446D01*
X103409068Y-147467379D01*
X103410579Y-147456647D01*
X103413098Y-147446252D01*
X103416624Y-147436192D01*
X103421174Y-147426483D01*
X103426516Y-147417385D01*
X103432653Y-147408898D01*
X103439583Y-147401021D01*
X103447369Y-147393861D01*
X103455825Y-147387526D01*
X103464954Y-147382016D01*
X103474754Y-147377329D01*
X103485089Y-147373589D01*
X103495820Y-147370918D01*
X103505536Y-147369457D01*
X103515555Y-147368814D01*
X103518474Y-147368781D01*
X103528557Y-147369190D01*
X103538289Y-147370417D01*
X103548982Y-147372821D01*
X103559217Y-147376294D01*
X103561705Y-147377329D01*
X103571383Y-147382016D01*
X103580389Y-147387526D01*
X103588724Y-147393861D01*
X103596387Y-147401021D01*
X103603409Y-147408898D01*
X103609576Y-147417385D01*
X103614889Y-147426483D01*
X103619346Y-147436192D01*
X103622979Y-147446252D01*
X103625574Y-147456647D01*
X103627131Y-147467379D01*
X103627650Y-147478446D01*
G37*
G36*
X103442026Y-147790832D02*
G01*
X103244922Y-147790832D01*
X103244922Y-147665780D01*
X103613973Y-147665780D01*
X103613973Y-148244147D01*
X103815229Y-148244147D01*
X103815229Y-148369200D01*
X103220986Y-148369200D01*
X103220986Y-148244147D01*
X103442026Y-148244147D01*
X103442026Y-147790832D01*
G37*
G36*
X104302341Y-147650350D02*
G01*
X104315805Y-147650956D01*
X104328965Y-147651965D01*
X104341820Y-147653377D01*
X104354370Y-147655193D01*
X104366616Y-147657413D01*
X104378556Y-147660036D01*
X104390192Y-147663063D01*
X104401523Y-147666493D01*
X104412549Y-147670327D01*
X104419730Y-147673107D01*
X104430281Y-147677573D01*
X104440501Y-147682361D01*
X104450391Y-147687471D01*
X104459950Y-147692903D01*
X104469178Y-147698656D01*
X104478076Y-147704732D01*
X104486644Y-147711130D01*
X104494880Y-147717850D01*
X104502786Y-147724891D01*
X104510362Y-147732255D01*
X104515229Y-147737343D01*
X104522299Y-147745220D01*
X104529039Y-147753372D01*
X104535448Y-147761798D01*
X104541527Y-147770499D01*
X104547275Y-147779475D01*
X104552692Y-147788726D01*
X104557779Y-147798251D01*
X104562536Y-147808052D01*
X104566961Y-147818127D01*
X104571056Y-147828476D01*
X104573603Y-147835529D01*
X104577182Y-147846296D01*
X104580409Y-147857256D01*
X104583284Y-147868409D01*
X104585807Y-147879756D01*
X104587978Y-147891296D01*
X104589797Y-147903029D01*
X104591264Y-147914955D01*
X104592379Y-147927074D01*
X104593142Y-147939387D01*
X104593553Y-147951892D01*
X104593631Y-147960337D01*
X104593553Y-147970903D01*
X104593355Y-147981657D01*
X104593081Y-147992119D01*
X104592714Y-148003563D01*
X104592654Y-148005278D01*
X104592244Y-148015416D01*
X104591749Y-148025313D01*
X104591063Y-148036556D01*
X104590260Y-148047473D01*
X104589479Y-148056569D01*
X104130546Y-148056569D01*
X104130764Y-148067876D01*
X104131416Y-148078841D01*
X104132504Y-148089461D01*
X104134027Y-148099739D01*
X104135985Y-148109672D01*
X104138377Y-148119263D01*
X104141980Y-148130768D01*
X104144468Y-148137413D01*
X104149175Y-148148053D01*
X104154443Y-148158145D01*
X104160271Y-148167688D01*
X104166660Y-148176683D01*
X104173609Y-148185129D01*
X104181119Y-148193026D01*
X104184280Y-148196031D01*
X104192621Y-148203090D01*
X104201463Y-148209613D01*
X104210805Y-148215598D01*
X104220649Y-148221047D01*
X104230994Y-148225959D01*
X104241839Y-148230335D01*
X104246317Y-148231935D01*
X104257804Y-148235453D01*
X104269673Y-148238375D01*
X104279443Y-148240283D01*
X104289457Y-148241810D01*
X104299715Y-148242955D01*
X104310217Y-148243718D01*
X104320964Y-148244099D01*
X104326429Y-148244147D01*
X104339240Y-148244033D01*
X104352273Y-148243689D01*
X104362193Y-148243281D01*
X104372237Y-148242745D01*
X104382406Y-148242079D01*
X104392699Y-148241285D01*
X104403117Y-148240362D01*
X104413659Y-148239310D01*
X104424326Y-148238129D01*
X104435117Y-148236820D01*
X104446055Y-148235364D01*
X104457070Y-148233746D01*
X104468163Y-148231964D01*
X104479333Y-148230019D01*
X104490580Y-148227911D01*
X104501904Y-148225640D01*
X104513306Y-148223206D01*
X104524785Y-148220608D01*
X104536341Y-148217848D01*
X104547975Y-148214924D01*
X104555773Y-148212884D01*
X104555773Y-148353568D01*
X104545535Y-148356090D01*
X104534971Y-148358525D01*
X104524080Y-148360875D01*
X104512863Y-148363139D01*
X104501319Y-148365317D01*
X104497399Y-148366024D01*
X104487517Y-148367750D01*
X104477564Y-148369416D01*
X104467539Y-148371022D01*
X104457442Y-148372569D01*
X104447274Y-148374056D01*
X104437035Y-148375484D01*
X104432919Y-148376038D01*
X104422597Y-148377358D01*
X104412239Y-148378571D01*
X104401846Y-148379677D01*
X104391417Y-148380675D01*
X104380952Y-148381566D01*
X104370451Y-148382349D01*
X104366241Y-148382633D01*
X104355761Y-148383266D01*
X104345389Y-148383792D01*
X104335125Y-148384211D01*
X104324967Y-148384522D01*
X104314917Y-148384726D01*
X104304975Y-148384822D01*
X104301028Y-148384831D01*
X104291139Y-148384742D01*
X104276545Y-148384276D01*
X104262239Y-148383411D01*
X104248221Y-148382147D01*
X104234490Y-148380483D01*
X104221047Y-148378420D01*
X104207891Y-148375958D01*
X104195023Y-148373097D01*
X104182443Y-148369836D01*
X104170151Y-148366176D01*
X104158146Y-148362116D01*
X104146454Y-148357621D01*
X104135102Y-148352743D01*
X104124089Y-148347483D01*
X104113415Y-148341840D01*
X104103080Y-148335816D01*
X104093085Y-148329410D01*
X104083428Y-148322621D01*
X104074111Y-148315451D01*
X104065133Y-148307898D01*
X104056494Y-148299963D01*
X104050923Y-148294461D01*
X104042860Y-148285896D01*
X104035158Y-148276962D01*
X104027816Y-148267658D01*
X104020835Y-148257985D01*
X104014215Y-148247943D01*
X104007955Y-148237532D01*
X104002056Y-148226751D01*
X103996518Y-148215601D01*
X103991340Y-148204082D01*
X103986523Y-148192194D01*
X103983512Y-148184063D01*
X103979365Y-148171518D01*
X103975627Y-148158613D01*
X103972296Y-148145346D01*
X103969373Y-148131719D01*
X103966858Y-148117731D01*
X103964750Y-148103383D01*
X103963572Y-148093617D01*
X103962575Y-148083691D01*
X103961759Y-148073605D01*
X103961125Y-148063358D01*
X103960672Y-148052951D01*
X103960400Y-148042383D01*
X103960309Y-148031656D01*
X103960400Y-148021000D01*
X103960672Y-148010464D01*
X103961125Y-148000048D01*
X103961759Y-147989753D01*
X103962575Y-147979578D01*
X103963572Y-147969523D01*
X103964750Y-147959588D01*
X103966110Y-147949773D01*
X103967651Y-147940079D01*
X103969237Y-147931516D01*
X104133477Y-147931516D01*
X104423393Y-147931516D01*
X104423336Y-147921724D01*
X104422760Y-147909934D01*
X104421624Y-147898645D01*
X104419927Y-147887856D01*
X104417669Y-147877569D01*
X104414851Y-147867783D01*
X104412891Y-147862151D01*
X104408569Y-147851346D01*
X104403663Y-147841280D01*
X104398174Y-147831952D01*
X104392100Y-147823363D01*
X104385442Y-147815511D01*
X104383093Y-147813059D01*
X104375818Y-147806175D01*
X104368095Y-147799995D01*
X104359927Y-147794520D01*
X104351311Y-147789749D01*
X104342250Y-147785681D01*
X104339130Y-147784482D01*
X104329650Y-147781328D01*
X104319896Y-147778826D01*
X104309866Y-147776977D01*
X104299562Y-147775781D01*
X104288984Y-147775237D01*
X104285396Y-147775201D01*
X104273735Y-147775562D01*
X104262473Y-147776643D01*
X104251610Y-147778447D01*
X104241146Y-147780971D01*
X104231082Y-147784217D01*
X104221417Y-147788184D01*
X104212151Y-147792872D01*
X104203285Y-147798282D01*
X104194818Y-147804413D01*
X104186750Y-147811265D01*
X104181593Y-147816234D01*
X104174281Y-147824178D01*
X104167548Y-147832714D01*
X104161395Y-147841843D01*
X104155822Y-147851565D01*
X104150828Y-147861879D01*
X104146414Y-147872785D01*
X104142579Y-147884284D01*
X104139324Y-147896376D01*
X104136648Y-147909060D01*
X104134552Y-147922336D01*
X104133477Y-147931516D01*
X103969237Y-147931516D01*
X103970302Y-147925763D01*
X103973361Y-147911717D01*
X103976828Y-147897942D01*
X103980702Y-147884438D01*
X103983512Y-147875585D01*
X103988076Y-147862574D01*
X103992975Y-147849919D01*
X103998208Y-147837621D01*
X104003777Y-147825679D01*
X104009680Y-147814093D01*
X104015918Y-147802864D01*
X104022491Y-147791991D01*
X104029399Y-147781475D01*
X104036642Y-147771315D01*
X104044220Y-147761511D01*
X104049458Y-147755173D01*
X104057631Y-147745941D01*
X104066122Y-147737112D01*
X104074930Y-147728687D01*
X104084056Y-147720666D01*
X104093500Y-147713048D01*
X104103262Y-147705834D01*
X104113341Y-147699023D01*
X104123738Y-147692616D01*
X104134453Y-147686613D01*
X104145485Y-147681013D01*
X104153017Y-147677504D01*
X104164542Y-147672615D01*
X104176312Y-147668207D01*
X104188327Y-147664280D01*
X104200587Y-147660834D01*
X104213091Y-147657869D01*
X104225840Y-147655385D01*
X104238834Y-147653381D01*
X104252072Y-147651858D01*
X104265556Y-147650816D01*
X104279284Y-147650255D01*
X104288571Y-147650149D01*
X104302341Y-147650350D01*
G37*
G36*
X105186652Y-148369200D02*
G01*
X104928976Y-148020665D01*
X104928976Y-148369200D01*
X104761426Y-148369200D01*
X104761426Y-147400044D01*
X104928976Y-147400044D01*
X104928976Y-147967176D01*
X105172975Y-147665780D01*
X105382535Y-147665780D01*
X105099458Y-147986227D01*
X105405738Y-148369200D01*
X105186652Y-148369200D01*
G37*
G36*
X105836188Y-147650352D02*
G01*
X105850392Y-147650964D01*
X105864295Y-147651984D01*
X105877898Y-147653411D01*
X105891200Y-147655247D01*
X105904202Y-147657490D01*
X105916903Y-147660141D01*
X105929303Y-147663200D01*
X105941403Y-147666667D01*
X105953203Y-147670542D01*
X105960902Y-147673352D01*
X105972232Y-147677900D01*
X105983230Y-147682843D01*
X105993899Y-147688181D01*
X106004236Y-147693914D01*
X106014243Y-147700042D01*
X106023920Y-147706565D01*
X106033266Y-147713483D01*
X106042281Y-147720796D01*
X106050966Y-147728504D01*
X106059320Y-147736607D01*
X106064705Y-147742228D01*
X106072496Y-147750985D01*
X106079930Y-147760128D01*
X106087007Y-147769658D01*
X106093728Y-147779574D01*
X106100093Y-147789877D01*
X106106102Y-147800566D01*
X106111754Y-147811641D01*
X106117050Y-147823103D01*
X106121989Y-147834951D01*
X106126572Y-147847186D01*
X106129430Y-147855557D01*
X106133445Y-147868383D01*
X106137066Y-147881583D01*
X106140292Y-147895156D01*
X106143123Y-147909103D01*
X106145558Y-147923424D01*
X106146963Y-147933178D01*
X106148192Y-147943099D01*
X106149245Y-147953185D01*
X106150123Y-147963437D01*
X106150825Y-147973856D01*
X106151352Y-147984440D01*
X106151703Y-147995191D01*
X106151878Y-148006107D01*
X106151900Y-148011628D01*
X106151809Y-148021953D01*
X106151534Y-148032167D01*
X106151076Y-148042271D01*
X106150435Y-148052264D01*
X106149610Y-148062146D01*
X106148603Y-148071918D01*
X106146748Y-148086368D01*
X106144481Y-148100569D01*
X106141802Y-148114521D01*
X106138711Y-148128223D01*
X106135208Y-148141677D01*
X106131292Y-148154882D01*
X106128453Y-148163547D01*
X106123920Y-148176290D01*
X106119022Y-148188689D01*
X106113759Y-148200744D01*
X106108131Y-148212457D01*
X106102138Y-148223825D01*
X106095781Y-148234851D01*
X106089058Y-148245532D01*
X106081970Y-148255871D01*
X106074518Y-148265866D01*
X106066700Y-148275517D01*
X106061286Y-148281761D01*
X106052867Y-148290772D01*
X106044096Y-148299398D01*
X106034972Y-148307636D01*
X106025497Y-148315489D01*
X106015669Y-148322955D01*
X106005490Y-148330035D01*
X105994958Y-148336728D01*
X105984075Y-148343035D01*
X105972839Y-148348955D01*
X105961251Y-148354490D01*
X105953331Y-148357964D01*
X105941219Y-148362766D01*
X105928790Y-148367095D01*
X105916043Y-148370952D01*
X105902979Y-148374336D01*
X105889596Y-148377249D01*
X105875896Y-148379689D01*
X105861878Y-148381656D01*
X105847543Y-148383152D01*
X105832890Y-148384175D01*
X105822945Y-148384595D01*
X105812858Y-148384805D01*
X105807762Y-148384831D01*
X105793386Y-148384631D01*
X105779294Y-148384032D01*
X105765486Y-148383034D01*
X105751960Y-148381637D01*
X105738718Y-148379840D01*
X105725759Y-148377644D01*
X105713084Y-148375049D01*
X105700692Y-148372054D01*
X105688583Y-148368660D01*
X105676758Y-148364867D01*
X105669032Y-148362116D01*
X105657746Y-148357614D01*
X105646787Y-148352717D01*
X105636154Y-148347425D01*
X105625847Y-148341737D01*
X105615866Y-148335655D01*
X105606212Y-148329178D01*
X105596884Y-148322306D01*
X105587882Y-148315039D01*
X105579207Y-148307376D01*
X105570858Y-148299319D01*
X105565473Y-148293728D01*
X105557679Y-148285011D01*
X105550232Y-148275894D01*
X105543133Y-148266378D01*
X105536381Y-148256462D01*
X105529978Y-148246148D01*
X105523922Y-148235434D01*
X105518214Y-148224320D01*
X105512854Y-148212808D01*
X105507842Y-148200896D01*
X105503177Y-148188585D01*
X105500260Y-148180156D01*
X105496201Y-148167181D01*
X105492541Y-148153812D01*
X105489280Y-148140047D01*
X105486419Y-148125888D01*
X105484733Y-148116229D01*
X105483224Y-148106394D01*
X105481893Y-148096384D01*
X105480740Y-148086198D01*
X105479764Y-148075837D01*
X105478965Y-148065300D01*
X105478344Y-148054588D01*
X105477901Y-148043700D01*
X105477634Y-148032637D01*
X105477546Y-148021398D01*
X105477583Y-148017246D01*
X105651935Y-148017246D01*
X105652107Y-148031103D01*
X105652622Y-148044528D01*
X105653481Y-148057520D01*
X105654683Y-148070078D01*
X105656228Y-148082204D01*
X105658117Y-148093896D01*
X105660350Y-148105155D01*
X105662926Y-148115981D01*
X105665845Y-148126373D01*
X105669108Y-148136333D01*
X105672715Y-148145859D01*
X105676665Y-148154953D01*
X105683233Y-148167780D01*
X105690575Y-148179634D01*
X105695899Y-148186994D01*
X105704425Y-148197208D01*
X105713519Y-148206417D01*
X105723179Y-148214622D01*
X105733405Y-148221822D01*
X105744199Y-148228017D01*
X105755559Y-148233208D01*
X105767486Y-148237394D01*
X105779979Y-148240575D01*
X105793040Y-148242752D01*
X105806667Y-148243924D01*
X105816066Y-148244147D01*
X105826393Y-148243876D01*
X105836369Y-148243063D01*
X105848345Y-148241285D01*
X105859772Y-148238660D01*
X105870651Y-148235189D01*
X105880981Y-148230870D01*
X105888851Y-148226806D01*
X105898252Y-148221059D01*
X105907069Y-148214656D01*
X105915301Y-148207597D01*
X105922949Y-148199882D01*
X105930013Y-148191511D01*
X105936492Y-148182484D01*
X105938920Y-148178690D01*
X105944712Y-148168734D01*
X105950026Y-148158254D01*
X105954863Y-148147249D01*
X105958389Y-148138067D01*
X105961610Y-148128549D01*
X105964526Y-148118695D01*
X105967136Y-148108506D01*
X105967741Y-148105906D01*
X105970031Y-148095308D01*
X105972015Y-148084519D01*
X105973694Y-148073540D01*
X105975068Y-148062369D01*
X105976137Y-148051008D01*
X105976900Y-148039456D01*
X105977358Y-148027714D01*
X105977511Y-148015780D01*
X105977350Y-148001984D01*
X105976870Y-147988623D01*
X105976068Y-147975698D01*
X105974946Y-147963207D01*
X105973504Y-147951151D01*
X105971740Y-147939531D01*
X105969657Y-147928345D01*
X105967253Y-147917594D01*
X105964528Y-147907279D01*
X105961482Y-147897399D01*
X105958116Y-147887953D01*
X105952466Y-147874601D01*
X105946095Y-147862228D01*
X105939002Y-147850833D01*
X105936478Y-147847253D01*
X105928489Y-147837170D01*
X105919817Y-147828079D01*
X105910462Y-147819979D01*
X105900425Y-147812872D01*
X105889706Y-147806756D01*
X105878303Y-147801632D01*
X105866218Y-147797499D01*
X105853451Y-147794359D01*
X105840000Y-147792210D01*
X105825867Y-147791053D01*
X105816066Y-147790832D01*
X105805278Y-147791111D01*
X105794893Y-147791947D01*
X105784914Y-147793340D01*
X105775339Y-147795290D01*
X105763939Y-147798511D01*
X105753171Y-147802603D01*
X105743035Y-147807565D01*
X105741084Y-147808662D01*
X105731729Y-147814486D01*
X105722899Y-147820965D01*
X105714594Y-147828100D01*
X105706813Y-147835891D01*
X105699558Y-147844339D01*
X105692827Y-147853442D01*
X105690281Y-147857266D01*
X105684355Y-147867140D01*
X105678942Y-147877526D01*
X105674042Y-147888425D01*
X105669654Y-147899837D01*
X105666513Y-147909336D01*
X105663701Y-147919163D01*
X105661216Y-147929318D01*
X105659041Y-147939668D01*
X105657156Y-147950201D01*
X105655560Y-147960917D01*
X105654255Y-147971816D01*
X105653240Y-147982899D01*
X105652515Y-147994165D01*
X105652080Y-148005613D01*
X105651935Y-148017246D01*
X105477583Y-148017246D01*
X105477638Y-148010985D01*
X105477916Y-148000690D01*
X105478379Y-147990514D01*
X105479026Y-147980456D01*
X105479859Y-147970517D01*
X105480877Y-147960696D01*
X105482080Y-147950993D01*
X105484232Y-147936660D01*
X105486800Y-147922594D01*
X105489785Y-147908794D01*
X105493186Y-147895260D01*
X105497003Y-147881992D01*
X105501237Y-147868990D01*
X105505860Y-147856300D01*
X105510843Y-147843966D01*
X105516187Y-147831988D01*
X105521891Y-147820367D01*
X105527956Y-147809102D01*
X105534382Y-147798193D01*
X105541168Y-147787641D01*
X105548315Y-147777445D01*
X105555823Y-147767605D01*
X105563691Y-147758122D01*
X105569137Y-147751998D01*
X105577641Y-147743078D01*
X105586485Y-147734544D01*
X105595667Y-147726397D01*
X105605189Y-147718636D01*
X105615050Y-147711261D01*
X105625251Y-147704273D01*
X105635790Y-147697671D01*
X105646669Y-147691456D01*
X105657886Y-147685627D01*
X105669443Y-147680185D01*
X105677336Y-147676771D01*
X105689479Y-147672013D01*
X105701908Y-147667724D01*
X105714626Y-147663902D01*
X105727631Y-147660548D01*
X105740924Y-147657662D01*
X105754505Y-147655244D01*
X105768373Y-147653294D01*
X105782529Y-147651812D01*
X105796972Y-147650799D01*
X105806761Y-147650383D01*
X105816678Y-147650175D01*
X105821684Y-147650149D01*
X105836188Y-147650352D01*
G37*
G36*
X106868020Y-148161837D02*
G01*
X106867786Y-148172992D01*
X106867084Y-148183833D01*
X106865914Y-148194361D01*
X106864276Y-148204576D01*
X106862170Y-148214477D01*
X106859597Y-148224065D01*
X106855437Y-148236361D01*
X106850445Y-148248100D01*
X106844622Y-148259282D01*
X106841398Y-148264664D01*
X106834532Y-148275044D01*
X106827125Y-148284936D01*
X106819175Y-148294339D01*
X106810684Y-148303254D01*
X106801651Y-148311680D01*
X106792076Y-148319618D01*
X106781959Y-148327068D01*
X106771300Y-148334029D01*
X106760244Y-148340455D01*
X106748814Y-148346424D01*
X106737011Y-148351935D01*
X106727912Y-148355767D01*
X106718604Y-148359342D01*
X106709085Y-148362659D01*
X106699355Y-148365719D01*
X106689415Y-148368521D01*
X106679265Y-148371066D01*
X106672382Y-148372619D01*
X106662010Y-148374801D01*
X106651596Y-148376769D01*
X106641139Y-148378522D01*
X106630639Y-148380061D01*
X106620096Y-148381384D01*
X106609510Y-148382494D01*
X106598881Y-148383388D01*
X106588209Y-148384068D01*
X106577495Y-148384533D01*
X106566737Y-148384783D01*
X106559541Y-148384831D01*
X106545249Y-148384795D01*
X106531223Y-148384685D01*
X106517462Y-148384503D01*
X106503969Y-148384247D01*
X106490741Y-148383919D01*
X106477779Y-148383517D01*
X106465084Y-148383043D01*
X106452655Y-148382495D01*
X106440492Y-148381875D01*
X106428595Y-148381182D01*
X106420812Y-148380679D01*
X106409285Y-148379914D01*
X106397879Y-148379085D01*
X106386594Y-148378191D01*
X106375428Y-148377233D01*
X106364383Y-148376210D01*
X106353458Y-148375123D01*
X106342653Y-148373972D01*
X106331968Y-148372756D01*
X106321404Y-148371476D01*
X106310959Y-148370132D01*
X106304063Y-148369200D01*
X106304063Y-148212884D01*
X106316151Y-148217391D01*
X106328235Y-148221663D01*
X106340314Y-148225698D01*
X106352389Y-148229496D01*
X106364460Y-148233059D01*
X106376526Y-148236386D01*
X106388588Y-148239476D01*
X106400646Y-148242331D01*
X106412700Y-148244949D01*
X106424749Y-148247331D01*
X106432779Y-148248788D01*
X106444761Y-148250752D01*
X106456619Y-148252523D01*
X106468352Y-148254101D01*
X106479960Y-148255485D01*
X106491444Y-148256677D01*
X106502804Y-148257675D01*
X106514039Y-148258480D01*
X106525149Y-148259092D01*
X106536135Y-148259510D01*
X106546996Y-148259736D01*
X106554168Y-148259779D01*
X106566239Y-148259583D01*
X106577721Y-148258997D01*
X106588616Y-148258021D01*
X106598922Y-148256653D01*
X106608640Y-148254895D01*
X106620682Y-148251943D01*
X106631679Y-148248297D01*
X106641630Y-148243956D01*
X106650535Y-148238920D01*
X106652598Y-148237553D01*
X106662027Y-148230203D01*
X106669857Y-148222197D01*
X106676090Y-148213535D01*
X106680724Y-148204217D01*
X106683760Y-148194244D01*
X106685199Y-148183614D01*
X106685327Y-148179179D01*
X106684518Y-148168581D01*
X106682094Y-148158619D01*
X106678488Y-148150114D01*
X106673021Y-148141990D01*
X106666061Y-148134882D01*
X106658253Y-148128726D01*
X106652598Y-148124957D01*
X106643622Y-148119590D01*
X106634738Y-148114954D01*
X106624754Y-148110283D01*
X106615595Y-148106364D01*
X106605673Y-148102421D01*
X106599353Y-148100044D01*
X106588143Y-148095927D01*
X106578419Y-148092531D01*
X106568023Y-148089042D01*
X106556956Y-148085463D01*
X106545217Y-148081791D01*
X106532806Y-148078029D01*
X106523058Y-148075146D01*
X106512931Y-148072213D01*
X106509472Y-148071223D01*
X106499920Y-148068443D01*
X106487533Y-148064637D01*
X106475542Y-148060715D01*
X106463948Y-148056680D01*
X106452751Y-148052529D01*
X106441951Y-148048265D01*
X106431548Y-148043885D01*
X106421541Y-148039392D01*
X106419102Y-148038250D01*
X106409603Y-148033568D01*
X106400524Y-148028679D01*
X106391865Y-148023584D01*
X106383626Y-148018284D01*
X106373917Y-148011368D01*
X106364864Y-148004130D01*
X106356467Y-147996570D01*
X106354866Y-147995019D01*
X106347238Y-147987037D01*
X106340230Y-147978662D01*
X106333843Y-147969893D01*
X106328076Y-147960730D01*
X106322928Y-147951174D01*
X106318401Y-147941224D01*
X106316764Y-147937134D01*
X106313105Y-147926556D01*
X106310066Y-147915429D01*
X106307648Y-147903753D01*
X106306160Y-147894018D01*
X106305068Y-147883931D01*
X106304373Y-147873494D01*
X106304076Y-147862705D01*
X106304063Y-147859953D01*
X106304361Y-147849283D01*
X106305254Y-147838765D01*
X106306742Y-147828400D01*
X106308826Y-147818188D01*
X106311505Y-147808128D01*
X106314780Y-147798221D01*
X106318649Y-147788466D01*
X106323114Y-147778865D01*
X106328232Y-147769488D01*
X106333937Y-147760409D01*
X106340230Y-147751628D01*
X106347111Y-147743144D01*
X106354580Y-147734958D01*
X106362636Y-147727070D01*
X106371280Y-147719479D01*
X106380511Y-147712186D01*
X106390388Y-147705172D01*
X106400845Y-147698539D01*
X106411881Y-147692288D01*
X106423498Y-147686419D01*
X106432591Y-147682267D01*
X106442011Y-147678330D01*
X106451757Y-147674608D01*
X106461829Y-147671100D01*
X106472227Y-147667807D01*
X106475766Y-147666757D01*
X106486608Y-147663789D01*
X106497794Y-147661113D01*
X106509323Y-147658729D01*
X106521195Y-147656636D01*
X106533411Y-147654836D01*
X106545971Y-147653328D01*
X106558874Y-147652111D01*
X106572120Y-147651187D01*
X106585710Y-147650554D01*
X106599643Y-147650213D01*
X106609123Y-147650149D01*
X106621354Y-147650191D01*
X106633320Y-147650320D01*
X106645019Y-147650535D01*
X106656452Y-147650835D01*
X106667619Y-147651222D01*
X106678520Y-147651694D01*
X106689155Y-147652252D01*
X106699523Y-147652896D01*
X106709625Y-147653626D01*
X106719461Y-147654442D01*
X106725871Y-147655033D01*
X106738388Y-147656270D01*
X106750539Y-147657537D01*
X106762324Y-147658834D01*
X106773742Y-147660163D01*
X106784794Y-147661521D01*
X106795480Y-147662910D01*
X106805799Y-147664330D01*
X106815752Y-147665780D01*
X106815752Y-147806464D01*
X106804597Y-147803346D01*
X106793570Y-147800405D01*
X106782672Y-147797639D01*
X106771903Y-147795049D01*
X106761263Y-147792636D01*
X106750751Y-147790398D01*
X106740368Y-147788337D01*
X106730115Y-147786451D01*
X106719989Y-147784742D01*
X106709993Y-147783208D01*
X106703400Y-147782284D01*
X106693563Y-147781018D01*
X106683743Y-147779877D01*
X106673940Y-147778860D01*
X106664154Y-147777968D01*
X106654385Y-147777200D01*
X106644633Y-147776557D01*
X106631658Y-147775893D01*
X106618713Y-147775450D01*
X106605799Y-147775229D01*
X106599353Y-147775201D01*
X106586786Y-147775491D01*
X106574852Y-147776361D01*
X106563552Y-147777811D01*
X106552886Y-147779842D01*
X106542853Y-147782452D01*
X106533453Y-147785642D01*
X106522595Y-147790446D01*
X106516555Y-147793763D01*
X106507548Y-147799916D01*
X106500068Y-147806772D01*
X106493107Y-147815928D01*
X106488345Y-147826098D01*
X106485780Y-147837281D01*
X106485292Y-147845299D01*
X106486013Y-147855809D01*
X106488178Y-147865512D01*
X106491398Y-147873631D01*
X106497149Y-147882137D01*
X106504781Y-147889769D01*
X106512536Y-147895807D01*
X106515822Y-147898055D01*
X106524514Y-147903243D01*
X106534562Y-147908547D01*
X106544253Y-147913187D01*
X106554941Y-147917912D01*
X106564608Y-147921916D01*
X106566624Y-147922724D01*
X106577359Y-147926752D01*
X106586676Y-147930061D01*
X106596643Y-147933446D01*
X106607258Y-147936907D01*
X106618522Y-147940445D01*
X106630434Y-147944059D01*
X106642995Y-147947749D01*
X106652842Y-147950567D01*
X106664030Y-147953840D01*
X106674878Y-147957156D01*
X106685388Y-147960515D01*
X106695558Y-147963917D01*
X106705389Y-147967361D01*
X106714881Y-147970849D01*
X106724034Y-147974380D01*
X106735709Y-147979154D01*
X106746782Y-147984004D01*
X106754691Y-147987692D01*
X106764755Y-147992718D01*
X106774307Y-147997905D01*
X106783348Y-148003251D01*
X106791877Y-148008758D01*
X106799895Y-148014425D01*
X106809199Y-148021735D01*
X106817703Y-148029295D01*
X106820881Y-148032389D01*
X106828397Y-148040347D01*
X106835221Y-148048651D01*
X106841353Y-148057301D01*
X106846794Y-148066296D01*
X106851543Y-148075638D01*
X106855600Y-148085325D01*
X106857029Y-148089297D01*
X106860196Y-148099440D01*
X106862825Y-148110024D01*
X106864918Y-148121050D01*
X106866475Y-148132517D01*
X106867494Y-148144425D01*
X106867924Y-148154269D01*
X106868020Y-148161837D01*
G37*
D10*
X133439298Y-112282583D02*
X133772631Y-112282583D01*
X133372631Y-112482583D02*
X133605965Y-111782583D01*
X133605965Y-111782583D02*
X133839298Y-112482583D01*
X134072631Y-112482583D02*
X134072631Y-111782583D01*
X134072631Y-111782583D02*
X134472631Y-112482583D01*
X134472631Y-112482583D02*
X134472631Y-111782583D01*
X134705964Y-111782583D02*
X135105964Y-111782583D01*
X134905964Y-112482583D02*
X134905964Y-111782583D01*
D11*
X132924811Y-112166400D02*
G75*
G03*
X132924811Y-112166400I-540011J0D01*
G01*
X135883807Y-118538619D02*
X135550474Y-118062428D01*
X135312379Y-118538619D02*
X135312379Y-117538619D01*
X135312379Y-117538619D02*
X135693331Y-117538619D01*
X135693331Y-117538619D02*
X135788569Y-117586238D01*
X135788569Y-117586238D02*
X135836188Y-117633857D01*
X135836188Y-117633857D02*
X135883807Y-117729095D01*
X135883807Y-117729095D02*
X135883807Y-117871952D01*
X135883807Y-117871952D02*
X135836188Y-117967190D01*
X135836188Y-117967190D02*
X135788569Y-118014809D01*
X135788569Y-118014809D02*
X135693331Y-118062428D01*
X135693331Y-118062428D02*
X135312379Y-118062428D01*
X136264760Y-118252904D02*
X136740950Y-118252904D01*
X136169522Y-118538619D02*
X136502855Y-117538619D01*
X136502855Y-117538619D02*
X136836188Y-118538619D01*
X137169522Y-118157666D02*
X137931427Y-118157666D01*
X138598093Y-117538619D02*
X138693331Y-117538619D01*
X138693331Y-117538619D02*
X138788569Y-117586238D01*
X138788569Y-117586238D02*
X138836188Y-117633857D01*
X138836188Y-117633857D02*
X138883807Y-117729095D01*
X138883807Y-117729095D02*
X138931426Y-117919571D01*
X138931426Y-117919571D02*
X138931426Y-118157666D01*
X138931426Y-118157666D02*
X138883807Y-118348142D01*
X138883807Y-118348142D02*
X138836188Y-118443380D01*
X138836188Y-118443380D02*
X138788569Y-118491000D01*
X138788569Y-118491000D02*
X138693331Y-118538619D01*
X138693331Y-118538619D02*
X138598093Y-118538619D01*
X138598093Y-118538619D02*
X138502855Y-118491000D01*
X138502855Y-118491000D02*
X138455236Y-118443380D01*
X138455236Y-118443380D02*
X138407617Y-118348142D01*
X138407617Y-118348142D02*
X138359998Y-118157666D01*
X138359998Y-118157666D02*
X138359998Y-117919571D01*
X138359998Y-117919571D02*
X138407617Y-117729095D01*
X138407617Y-117729095D02*
X138455236Y-117633857D01*
X138455236Y-117633857D02*
X138502855Y-117586238D01*
X138502855Y-117586238D02*
X138598093Y-117538619D01*
X139312379Y-117633857D02*
X139359998Y-117586238D01*
X139359998Y-117586238D02*
X139455236Y-117538619D01*
X139455236Y-117538619D02*
X139693331Y-117538619D01*
X139693331Y-117538619D02*
X139788569Y-117586238D01*
X139788569Y-117586238D02*
X139836188Y-117633857D01*
X139836188Y-117633857D02*
X139883807Y-117729095D01*
X139883807Y-117729095D02*
X139883807Y-117824333D01*
X139883807Y-117824333D02*
X139836188Y-117967190D01*
X139836188Y-117967190D02*
X139264760Y-118538619D01*
X139264760Y-118538619D02*
X139883807Y-118538619D01*
X95033600Y-109549600D02*
X122491000Y-109549600D01*
X122491000Y-136067200D01*
X95033600Y-136067200D01*
X95033600Y-109549600D01*
X126809580Y-117501466D02*
X126857200Y-117549085D01*
X126857200Y-117549085D02*
X126904819Y-117691942D01*
X126904819Y-117691942D02*
X126904819Y-117787180D01*
X126904819Y-117787180D02*
X126857200Y-117930037D01*
X126857200Y-117930037D02*
X126761961Y-118025275D01*
X126761961Y-118025275D02*
X126666723Y-118072894D01*
X126666723Y-118072894D02*
X126476247Y-118120513D01*
X126476247Y-118120513D02*
X126333390Y-118120513D01*
X126333390Y-118120513D02*
X126142914Y-118072894D01*
X126142914Y-118072894D02*
X126047676Y-118025275D01*
X126047676Y-118025275D02*
X125952438Y-117930037D01*
X125952438Y-117930037D02*
X125904819Y-117787180D01*
X125904819Y-117787180D02*
X125904819Y-117691942D01*
X125904819Y-117691942D02*
X125952438Y-117549085D01*
X125952438Y-117549085D02*
X126000057Y-117501466D01*
X126238152Y-116644323D02*
X126904819Y-116644323D01*
X125857200Y-116882418D02*
X126571485Y-117120513D01*
X126571485Y-117120513D02*
X126571485Y-116501466D01*
X137113180Y-137631466D02*
X137160800Y-137679085D01*
X137160800Y-137679085D02*
X137208419Y-137821942D01*
X137208419Y-137821942D02*
X137208419Y-137917180D01*
X137208419Y-137917180D02*
X137160800Y-138060037D01*
X137160800Y-138060037D02*
X137065561Y-138155275D01*
X137065561Y-138155275D02*
X136970323Y-138202894D01*
X136970323Y-138202894D02*
X136779847Y-138250513D01*
X136779847Y-138250513D02*
X136636990Y-138250513D01*
X136636990Y-138250513D02*
X136446514Y-138202894D01*
X136446514Y-138202894D02*
X136351276Y-138155275D01*
X136351276Y-138155275D02*
X136256038Y-138060037D01*
X136256038Y-138060037D02*
X136208419Y-137917180D01*
X136208419Y-137917180D02*
X136208419Y-137821942D01*
X136208419Y-137821942D02*
X136256038Y-137679085D01*
X136256038Y-137679085D02*
X136303657Y-137631466D01*
X137208419Y-136679085D02*
X137208419Y-137250513D01*
X137208419Y-136964799D02*
X136208419Y-136964799D01*
X136208419Y-136964799D02*
X136351276Y-137060037D01*
X136351276Y-137060037D02*
X136446514Y-137155275D01*
X136446514Y-137155275D02*
X136494133Y-137250513D01*
X124357980Y-117548666D02*
X124405600Y-117596285D01*
X124405600Y-117596285D02*
X124453219Y-117739142D01*
X124453219Y-117739142D02*
X124453219Y-117834380D01*
X124453219Y-117834380D02*
X124405600Y-117977237D01*
X124405600Y-117977237D02*
X124310361Y-118072475D01*
X124310361Y-118072475D02*
X124215123Y-118120094D01*
X124215123Y-118120094D02*
X124024647Y-118167713D01*
X124024647Y-118167713D02*
X123881790Y-118167713D01*
X123881790Y-118167713D02*
X123691314Y-118120094D01*
X123691314Y-118120094D02*
X123596076Y-118072475D01*
X123596076Y-118072475D02*
X123500838Y-117977237D01*
X123500838Y-117977237D02*
X123453219Y-117834380D01*
X123453219Y-117834380D02*
X123453219Y-117739142D01*
X123453219Y-117739142D02*
X123500838Y-117596285D01*
X123500838Y-117596285D02*
X123548457Y-117548666D01*
X123453219Y-117215332D02*
X123453219Y-116596285D01*
X123453219Y-116596285D02*
X123834171Y-116929618D01*
X123834171Y-116929618D02*
X123834171Y-116786761D01*
X123834171Y-116786761D02*
X123881790Y-116691523D01*
X123881790Y-116691523D02*
X123929409Y-116643904D01*
X123929409Y-116643904D02*
X124024647Y-116596285D01*
X124024647Y-116596285D02*
X124262742Y-116596285D01*
X124262742Y-116596285D02*
X124357980Y-116643904D01*
X124357980Y-116643904D02*
X124405600Y-116691523D01*
X124405600Y-116691523D02*
X124453219Y-116786761D01*
X124453219Y-116786761D02*
X124453219Y-117072475D01*
X124453219Y-117072475D02*
X124405600Y-117167713D01*
X124405600Y-117167713D02*
X124357980Y-117215332D01*
X125479980Y-142254266D02*
X125527600Y-142301885D01*
X125527600Y-142301885D02*
X125575219Y-142444742D01*
X125575219Y-142444742D02*
X125575219Y-142539980D01*
X125575219Y-142539980D02*
X125527600Y-142682837D01*
X125527600Y-142682837D02*
X125432361Y-142778075D01*
X125432361Y-142778075D02*
X125337123Y-142825694D01*
X125337123Y-142825694D02*
X125146647Y-142873313D01*
X125146647Y-142873313D02*
X125003790Y-142873313D01*
X125003790Y-142873313D02*
X124813314Y-142825694D01*
X124813314Y-142825694D02*
X124718076Y-142778075D01*
X124718076Y-142778075D02*
X124622838Y-142682837D01*
X124622838Y-142682837D02*
X124575219Y-142539980D01*
X124575219Y-142539980D02*
X124575219Y-142444742D01*
X124575219Y-142444742D02*
X124622838Y-142301885D01*
X124622838Y-142301885D02*
X124670457Y-142254266D01*
X124670457Y-141873313D02*
X124622838Y-141825694D01*
X124622838Y-141825694D02*
X124575219Y-141730456D01*
X124575219Y-141730456D02*
X124575219Y-141492361D01*
X124575219Y-141492361D02*
X124622838Y-141397123D01*
X124622838Y-141397123D02*
X124670457Y-141349504D01*
X124670457Y-141349504D02*
X124765695Y-141301885D01*
X124765695Y-141301885D02*
X124860933Y-141301885D01*
X124860933Y-141301885D02*
X125003790Y-141349504D01*
X125003790Y-141349504D02*
X125575219Y-141920932D01*
X125575219Y-141920932D02*
X125575219Y-141301885D01*
X135069819Y-144951904D02*
X135879342Y-144951904D01*
X135879342Y-144951904D02*
X135974580Y-144904285D01*
X135974580Y-144904285D02*
X136022200Y-144856666D01*
X136022200Y-144856666D02*
X136069819Y-144761428D01*
X136069819Y-144761428D02*
X136069819Y-144570952D01*
X136069819Y-144570952D02*
X136022200Y-144475714D01*
X136022200Y-144475714D02*
X135974580Y-144428095D01*
X135974580Y-144428095D02*
X135879342Y-144380476D01*
X135879342Y-144380476D02*
X135069819Y-144380476D01*
X135165057Y-143951904D02*
X135117438Y-143904285D01*
X135117438Y-143904285D02*
X135069819Y-143809047D01*
X135069819Y-143809047D02*
X135069819Y-143570952D01*
X135069819Y-143570952D02*
X135117438Y-143475714D01*
X135117438Y-143475714D02*
X135165057Y-143428095D01*
X135165057Y-143428095D02*
X135260295Y-143380476D01*
X135260295Y-143380476D02*
X135355533Y-143380476D01*
X135355533Y-143380476D02*
X135498390Y-143428095D01*
X135498390Y-143428095D02*
X136069819Y-143999523D01*
X136069819Y-143999523D02*
X136069819Y-143380476D01*
D13*
%TO.C,C4*%
X125715000Y-114633552D02*
X125715000Y-114111048D01*
X127185000Y-114633552D02*
X127185000Y-114111048D01*
%TO.C,C1*%
X137488600Y-140120648D02*
X137488600Y-140643152D01*
X136018600Y-140120648D02*
X136018600Y-140643152D01*
%TO.C,SW2*%
X162000000Y-142850000D02*
X162000000Y-144350000D01*
X163250000Y-146850000D02*
X167750000Y-146850000D01*
X167750000Y-140350000D02*
X163250000Y-140350000D01*
X169000000Y-144350000D02*
X169000000Y-142850000D01*
%TO.C,J1*%
X169630000Y-135750000D02*
X168300000Y-135750000D01*
X169630000Y-134420000D02*
X169630000Y-135750000D01*
X169630000Y-133150000D02*
X169630000Y-110230000D01*
X169630000Y-133150000D02*
X166970000Y-133150000D01*
X169630000Y-110230000D02*
X166970000Y-110230000D01*
X166970000Y-133150000D02*
X166970000Y-110230000D01*
%TO.C,J3*%
X102238000Y-135466800D02*
X102238000Y-134136800D01*
X103568000Y-135466800D02*
X102238000Y-135466800D01*
X104838000Y-135466800D02*
X115058000Y-135466800D01*
X104838000Y-135466800D02*
X104838000Y-132806800D01*
X115058000Y-135466800D02*
X115058000Y-132806800D01*
X104838000Y-132806800D02*
X115058000Y-132806800D01*
%TO.C,C3*%
X123365000Y-114646052D02*
X123365000Y-114123548D01*
X124835000Y-114646052D02*
X124835000Y-114123548D01*
%TO.C,SW1*%
X151950000Y-142850000D02*
X151950000Y-144350000D01*
X153200000Y-146850000D02*
X157700000Y-146850000D01*
X157700000Y-140350000D02*
X153200000Y-140350000D01*
X158950000Y-144350000D02*
X158950000Y-142850000D01*
%TO.C,C2*%
X127700000Y-141778748D02*
X127700000Y-142301252D01*
X126230000Y-141778748D02*
X126230000Y-142301252D01*
%TO.C,J6*%
X139792400Y-140854200D02*
X141122400Y-140854200D01*
X139792400Y-142184200D02*
X139792400Y-140854200D01*
X139792400Y-143454200D02*
X139792400Y-146054200D01*
X139792400Y-143454200D02*
X142452400Y-143454200D01*
X139792400Y-146054200D02*
X142452400Y-146054200D01*
X142452400Y-143454200D02*
X142452400Y-146054200D01*
%TO.C,J4*%
X106030000Y-143480000D02*
X113710000Y-143480000D01*
X106030000Y-143480000D02*
X106030000Y-140820000D01*
X113710000Y-143480000D02*
X113710000Y-140820000D01*
X103430000Y-142150000D02*
X103430000Y-140820000D01*
X103430000Y-140820000D02*
X104760000Y-140820000D01*
X106030000Y-140820000D02*
X113710000Y-140820000D01*
%TO.C,J2*%
X154390000Y-135750000D02*
X153060000Y-135750000D01*
X154390000Y-134420000D02*
X154390000Y-135750000D01*
X154390000Y-133150000D02*
X154390000Y-110230000D01*
X154390000Y-133150000D02*
X151730000Y-133150000D01*
X154390000Y-110230000D02*
X151730000Y-110230000D01*
X151730000Y-133150000D02*
X151730000Y-110230000D01*
%TO.C,J5*%
X147735600Y-146008400D02*
X146405600Y-146008400D01*
X147735600Y-144678400D02*
X147735600Y-146008400D01*
X147735600Y-143408400D02*
X147735600Y-140808400D01*
X147735600Y-143408400D02*
X145075600Y-143408400D01*
X147735600Y-140808400D02*
X145075600Y-140808400D01*
X145075600Y-143408400D02*
X145075600Y-140808400D01*
%TO.C,U2*%
X134245000Y-141690000D02*
X134245000Y-142830000D01*
X134475000Y-142830000D02*
X134245000Y-142830000D01*
X134475000Y-142830000D02*
X134475000Y-145550000D01*
X129755000Y-142830000D02*
X129985000Y-142830000D01*
X134475000Y-145550000D02*
X133165000Y-145550000D01*
X131065000Y-145550000D02*
X129755000Y-145550000D01*
X129755000Y-145550000D02*
X129755000Y-142830000D01*
D11*
%TO.C,U1*%
X129200000Y-109600000D02*
X145700000Y-109600000D01*
X129200000Y-110350000D02*
X129200000Y-109600000D01*
X129200000Y-126350000D02*
X129200000Y-127100000D01*
X129200000Y-127100000D02*
X145700000Y-127100000D01*
X145700000Y-109600000D02*
X145700000Y-110350000D01*
X145700000Y-127100000D02*
X145700000Y-126350000D01*
%TD*%
M02*
