M48
; DRILL file {KiCad 7.0.7} date Sun Sep 24 09:01:32 2023
; FORMAT={-:-/ absolute / metric / decimal}
; #@! TF.CreationDate,2023-09-24T09:01:32+02:00
; #@! TF.GenerationSoftware,Kicad,Pcbnew,7.0.7
; #@! TF.FileFunction,MixedPlating,1,2
FMAT,2
METRIC
; #@! TA.AperFunction,Plated,PTH,ViaDrill
T1C0.300
; #@! TA.AperFunction,Plated,PTH,ViaDrill
T2C0.400
; #@! TA.AperFunction,Plated,PTH,ComponentDrill
T3C1.000
; #@! TA.AperFunction,Plated,PTH,ComponentDrill
T4C1.100
; #@! TA.AperFunction,Plated,PTH,ComponentDrill
T5C3.200
%
G90
G05
T1
X124.103Y-111.455
X126.492Y-111.354
X147.523Y-111.354
X147.726Y-125.324
X156.464Y-131.877
X156.515Y-123.292
X157.531Y-139.04
X158.7Y-120.85
X158.7Y-131.65
X165.862Y-139.04
T2
X127.965Y-145.44
T3
X103.568Y-134.137
X104.76Y-142.15
X106.108Y-134.137
X107.3Y-142.15
X108.648Y-134.137
X109.84Y-142.15
X111.188Y-134.137
X112.38Y-142.15
X113.728Y-134.137
X141.122Y-142.184
X141.122Y-144.724
X146.406Y-142.138
X146.406Y-144.678
X153.06Y-111.56
X153.06Y-114.1
X153.06Y-116.64
X153.06Y-119.18
X153.06Y-121.72
X153.06Y-124.26
X153.06Y-126.8
X153.06Y-129.34
X153.06Y-131.88
X153.06Y-134.42
X168.3Y-111.56
X168.3Y-114.1
X168.3Y-116.64
X168.3Y-119.18
X168.3Y-121.72
X168.3Y-124.26
X168.3Y-126.8
X168.3Y-129.34
X168.3Y-131.88
X168.3Y-134.42
T4
X152.2Y-141.35
X152.2Y-145.85
X158.7Y-141.35
X158.7Y-145.85
X162.25Y-141.35
X162.25Y-145.85
X168.75Y-141.35
X168.75Y-145.85
T5
X118.3Y-112.75
X119.0Y-145.0
T0
M30
